<?xml version="1.0" encoding="UTF-8" standalone="no"?>
<!-- This is a Stata 16.0 generated SVG file (http://www.stata.com) -->

<svg version="1.1" width="5.50in" height="4.00in" viewBox="0 0 3960 2880" xmlns="http://www.w3.org/2000/svg" xmlns:xlink="http://www.w3.org/1999/xlink">
	<desc>Stata Graph - Graph</desc>
	<rect x="0" y="0" width="3960" height="2880" style="fill:#FFFFFF;stroke:none"/>
	<rect x="0.00" y="0.00" width="3959.88" height="2880.00" style="fill:#FFFFFF"/>
	<rect x="2.88" y="2.88" width="3954.12" height="2874.24" style="fill:none;stroke:#FFFFFF;stroke-width:5.76"/>
	<rect x="293.69" y="103.74" width="3562.45" height="2127.01" style="fill:none;stroke:#000000;stroke-width:5.76"/>
	<line x1="354.17" y1="1815.35" x2="354.17" y2="1691.84" style="stroke:#408840;stroke-opacity:0.80;stroke-width:8.64"/>
	<line x1="332.14" y1="1691.84" x2="376.20" y2="1691.84" stroke-linecap="round" style="stroke:#408840;stroke-opacity:0.80;stroke-width:8.64"/>
	<line x1="332.14" y1="1815.35" x2="376.20" y2="1815.35" stroke-linecap="round" style="stroke:#408840;stroke-opacity:0.80;stroke-width:8.64"/>
	<line x1="2074.92" y1="1982.91" x2="2074.92" y2="1731.44" style="stroke:#408840;stroke-opacity:0.80;stroke-width:8.64"/>
	<line x1="2052.89" y1="1731.44" x2="2096.94" y2="1731.44" stroke-linecap="round" style="stroke:#408840;stroke-opacity:0.80;stroke-width:8.64"/>
	<line x1="2052.89" y1="1982.91" x2="2096.94" y2="1982.91" stroke-linecap="round" style="stroke:#408840;stroke-opacity:0.80;stroke-width:8.64"/>
	<line x1="2935.35" y1="1730.20" x2="2935.35" y2="1645.56" style="stroke:#408840;stroke-opacity:0.80;stroke-width:8.64"/>
	<line x1="2913.32" y1="1645.56" x2="2957.38" y2="1645.56" stroke-linecap="round" style="stroke:#408840;stroke-opacity:0.80;stroke-width:8.64"/>
	<line x1="2913.32" y1="1730.20" x2="2957.38" y2="1730.20" stroke-linecap="round" style="stroke:#408840;stroke-opacity:0.80;stroke-width:8.64"/>
	<line x1="3795.66" y1="1409.80" x2="3795.66" y2="1303.50" style="stroke:#408840;stroke-opacity:0.80;stroke-width:8.64"/>
	<line x1="3773.63" y1="1303.50" x2="3817.69" y2="1303.50" stroke-linecap="round" style="stroke:#408840;stroke-opacity:0.80;stroke-width:8.64"/>
	<line x1="3773.63" y1="1409.80" x2="3817.69" y2="1409.80" stroke-linecap="round" style="stroke:#408840;stroke-opacity:0.80;stroke-width:8.64"/>
	<circle cx="354.05" cy="1753.72" r="26.35" style="fill:#006000"/>
	<circle cx="354.05" cy="1753.72" r="22.03" style="fill:none;stroke:#006000;stroke-width:8.64"/>
	<circle cx="2074.92" cy="1857.17" r="26.35" style="fill:#006000"/>
	<circle cx="2074.92" cy="1857.17" r="22.03" style="fill:none;stroke:#006000;stroke-width:8.64"/>
	<circle cx="2935.23" cy="1687.88" r="26.35" style="fill:#006000"/>
	<circle cx="2935.23" cy="1687.88" r="22.03" style="fill:none;stroke:#006000;stroke-width:8.64"/>
	<circle cx="3795.66" cy="1356.71" r="26.35" style="fill:#006000"/>
	<circle cx="3795.66" cy="1356.71" r="22.03" style="fill:none;stroke:#006000;stroke-width:8.64"/>
	<line x1="354.17" y1="1109.70" x2="354.17" y2="875.81" style="stroke:#FF7440;stroke-opacity:0.80;stroke-width:8.64"/>
	<line x1="332.14" y1="875.81" x2="376.20" y2="875.81" stroke-linecap="round" style="stroke:#FF7440;stroke-opacity:0.80;stroke-width:8.64"/>
	<line x1="332.14" y1="1109.70" x2="376.20" y2="1109.70" stroke-linecap="round" style="stroke:#FF7440;stroke-opacity:0.80;stroke-width:8.64"/>
	<line x1="2074.92" y1="1195.21" x2="2074.92" y2="786.58" style="stroke:#FF7440;stroke-opacity:0.80;stroke-width:8.64"/>
	<line x1="2052.89" y1="786.58" x2="2096.94" y2="786.58" stroke-linecap="round" style="stroke:#FF7440;stroke-opacity:0.80;stroke-width:8.64"/>
	<line x1="2052.89" y1="1195.21" x2="2096.94" y2="1195.21" stroke-linecap="round" style="stroke:#FF7440;stroke-opacity:0.80;stroke-width:8.64"/>
	<line x1="2935.35" y1="822.22" x2="2935.35" y2="686.34" style="stroke:#FF7440;stroke-opacity:0.80;stroke-width:8.64"/>
	<line x1="2913.32" y1="686.34" x2="2957.38" y2="686.34" stroke-linecap="round" style="stroke:#FF7440;stroke-opacity:0.80;stroke-width:8.64"/>
	<line x1="2913.32" y1="822.22" x2="2957.38" y2="822.22" stroke-linecap="round" style="stroke:#FF7440;stroke-opacity:0.80;stroke-width:8.64"/>
	<line x1="3795.66" y1="338.96" x2="3795.66" y2="164.22" style="stroke:#FF7440;stroke-opacity:0.80;stroke-width:8.64"/>
	<line x1="3773.63" y1="164.22" x2="3817.69" y2="164.22" stroke-linecap="round" style="stroke:#FF7440;stroke-opacity:0.80;stroke-width:8.64"/>
	<line x1="3773.63" y1="338.96" x2="3817.69" y2="338.96" stroke-linecap="round" style="stroke:#FF7440;stroke-opacity:0.80;stroke-width:8.64"/>
	<circle cx="354.05" cy="992.75" r="26.35" style="fill:#FF4500"/>
	<circle cx="354.05" cy="992.75" r="22.03" style="fill:none;stroke:#FF4500;stroke-width:8.64"/>
	<circle cx="2074.92" cy="990.90" r="26.35" style="fill:#FF4500"/>
	<circle cx="2074.92" cy="990.90" r="22.03" style="fill:none;stroke:#FF4500;stroke-width:8.64"/>
	<circle cx="2935.23" cy="754.40" r="26.35" style="fill:#FF4500"/>
	<circle cx="2935.23" cy="754.40" r="22.03" style="fill:none;stroke:#FF4500;stroke-width:8.64"/>
	<circle cx="3795.66" cy="251.59" r="26.35" style="fill:#FF4500"/>
	<circle cx="3795.66" cy="251.59" r="22.03" style="fill:none;stroke:#FF4500;stroke-width:8.64"/>
	<line x1="290.81" y1="2233.63" x2="290.81" y2="100.86" style="stroke:#000000;stroke-width:5.76"/>
	<line x1="290.81" y1="2170.27" x2="250.84" y2="2170.27" style="stroke:#000000;stroke-width:5.76"/>
	<text x="200.73" y="2170.27" style="font-family:'Helvetica';font-size:99.99px;fill:#000000" transform="rotate(-90 200.73,2170.27)" text-anchor="middle">-1</text>
	<line x1="290.81" y1="1708.17" x2="250.84" y2="1708.17" style="stroke:#000000;stroke-width:5.76"/>
	<text x="200.73" y="1708.17" style="font-family:'Helvetica';font-size:99.99px;fill:#000000" transform="rotate(-90 200.73,1708.17)" text-anchor="middle">-.5</text>
	<line x1="290.81" y1="1246.08" x2="250.84" y2="1246.08" style="stroke:#000000;stroke-width:5.76"/>
	<text x="200.73" y="1246.08" style="font-family:'Helvetica';font-size:99.99px;fill:#000000" transform="rotate(-90 200.73,1246.08)" text-anchor="middle">0</text>
	<line x1="290.81" y1="783.98" x2="250.84" y2="783.98" style="stroke:#000000;stroke-width:5.76"/>
	<text x="200.73" y="783.98" style="font-family:'Helvetica';font-size:99.99px;fill:#000000" transform="rotate(-90 200.73,783.98)" text-anchor="middle">.5</text>
	<line x1="290.81" y1="321.88" x2="250.84" y2="321.88" style="stroke:#000000;stroke-width:5.76"/>
	<text x="200.73" y="321.88" style="font-family:'Helvetica';font-size:99.99px;fill:#000000" transform="rotate(-90 200.73,321.88)" text-anchor="middle">1</text>
	<line x1="290.81" y1="2233.63" x2="3859.02" y2="2233.63" style="stroke:#000000;stroke-width:5.76"/>
	<line x1="354.17" y1="2233.63" x2="354.17" y2="2273.73" style="stroke:#000000;stroke-width:5.76"/>
	<text x="354.17" y="2363.59" style="font-family:'Helvetica';font-size:99.99px;fill:#000000" text-anchor="middle">-2</text>
	<line x1="1214.48" y1="2233.63" x2="1214.48" y2="2273.73" style="stroke:#000000;stroke-width:5.76"/>
	<text x="1214.48" y="2363.59" style="font-family:'Helvetica';font-size:99.99px;fill:#000000" text-anchor="middle">-1</text>
	<line x1="2074.92" y1="2233.63" x2="2074.92" y2="2273.73" style="stroke:#000000;stroke-width:5.76"/>
	<text x="2074.92" y="2363.59" style="font-family:'Helvetica';font-size:99.99px;fill:#000000" text-anchor="middle">0</text>
	<line x1="2935.35" y1="2233.63" x2="2935.35" y2="2273.73" style="stroke:#000000;stroke-width:5.76"/>
	<text x="2935.35" y="2363.59" style="font-family:'Helvetica';font-size:99.99px;fill:#000000" text-anchor="middle">1</text>
	<line x1="3795.66" y1="2233.63" x2="3795.66" y2="2273.73" style="stroke:#000000;stroke-width:5.76"/>
	<text x="3795.66" y="2363.59" style="font-family:'Helvetica';font-size:99.99px;fill:#000000" text-anchor="middle">2</text>
	<text x="2074.92" y="2473.60" style="font-family:'Helvetica';font-size:99.99px;fill:#000000" text-anchor="middle">x</text>
	<rect x="1542.79" y="2558.24" width="1064.37" height="186.37" style="fill:#FFFFFF"/>
	<rect x="1545.67" y="2561.12" width="1058.61" height="180.61" style="fill:none;stroke:#000000;stroke-width:5.76"/>
	<circle cx="1608.01" cy="2651.43" r="26.35" style="fill:#006000"/>
	<circle cx="1608.01" cy="2651.43" r="22.03" style="fill:none;stroke:#006000;stroke-width:8.64"/>
	<circle cx="2231.09" cy="2651.43" r="26.35" style="fill:#FF4500"/>
	<circle cx="2231.09" cy="2651.43" r="22.03" style="fill:none;stroke:#FF4500;stroke-width:8.64"/>
	<text x="1689.93" y="2686.46" style="font-family:'Helvetica';font-size:99.99px;fill:#000000">Female </text>
	<text x="2313.14" y="2686.46" style="font-family:'Helvetica';font-size:99.99px;fill:#000000">Male </text>
</svg>
