<?xml version="1.0" encoding="UTF-8" standalone="no"?>
<!-- This is a Stata 16.1 generated SVG file (http://www.stata.com) -->

<svg version="1.1" width="5.50in" height="4.00in" viewBox="0 0 3960 2880" xmlns="http://www.w3.org/2000/svg" xmlns:xlink="http://www.w3.org/1999/xlink">
	<desc>Stata Graph - Graph</desc>
	<rect x="0" y="0" width="3960" height="2880" style="fill:#FFFFFF;stroke:none"/>
	<rect x="0.00" y="0.00" width="3959.88" height="2880.00" style="fill:#FFFFFF"/>
	<rect x="2.88" y="2.88" width="3954.12" height="2874.24" style="fill:none;stroke:#FFFFFF;stroke-width:5.76"/>
	<rect x="293.69" y="103.74" width="3562.45" height="2127.01" style="fill:none;stroke:#000000;stroke-width:5.76"/>
	<line x1="354.17" y1="2033.03" x2="354.17" y2="1831.19" style="stroke:#408840;stroke-opacity:0.80;stroke-width:8.64"/>
	<line x1="332.14" y1="1831.19" x2="376.20" y2="1831.19" stroke-linecap="round" style="stroke:#408840;stroke-opacity:0.80;stroke-width:8.64"/>
	<line x1="332.14" y1="2033.03" x2="376.20" y2="2033.03" stroke-linecap="round" style="stroke:#408840;stroke-opacity:0.80;stroke-width:8.64"/>
	<line x1="2074.92" y1="2170.27" x2="2074.92" y2="1748.89" style="stroke:#408840;stroke-opacity:0.80;stroke-width:8.64"/>
	<line x1="2052.89" y1="1748.89" x2="2096.94" y2="1748.89" stroke-linecap="round" style="stroke:#408840;stroke-opacity:0.80;stroke-width:8.64"/>
	<line x1="2052.89" y1="2170.27" x2="2096.94" y2="2170.27" stroke-linecap="round" style="stroke:#408840;stroke-opacity:0.80;stroke-width:8.64"/>
	<line x1="2935.35" y1="1903.33" x2="2935.35" y2="1763.62" style="stroke:#408840;stroke-opacity:0.80;stroke-width:8.64"/>
	<line x1="2913.32" y1="1763.62" x2="2957.38" y2="1763.62" stroke-linecap="round" style="stroke:#408840;stroke-opacity:0.80;stroke-width:8.64"/>
	<line x1="2913.32" y1="1903.33" x2="2957.38" y2="1903.33" stroke-linecap="round" style="stroke:#408840;stroke-opacity:0.80;stroke-width:8.64"/>
	<line x1="3795.66" y1="1727.73" x2="3795.66" y2="1557.94" style="stroke:#408840;stroke-opacity:0.80;stroke-width:8.64"/>
	<line x1="3773.63" y1="1557.94" x2="3817.69" y2="1557.94" stroke-linecap="round" style="stroke:#408840;stroke-opacity:0.80;stroke-width:8.64"/>
	<line x1="3773.63" y1="1727.73" x2="3817.69" y2="1727.73" stroke-linecap="round" style="stroke:#408840;stroke-opacity:0.80;stroke-width:8.64"/>
	<circle cx="354.05" cy="1932.17" r="26.35" style="fill:#006000"/>
	<circle cx="354.05" cy="1932.17" r="22.03" style="fill:none;stroke:#006000;stroke-width:8.64"/>
	<circle cx="2074.92" cy="1959.64" r="26.35" style="fill:#006000"/>
	<circle cx="2074.92" cy="1959.64" r="22.03" style="fill:none;stroke:#006000;stroke-width:8.64"/>
	<circle cx="2935.23" cy="1833.54" r="26.35" style="fill:#006000"/>
	<circle cx="2935.23" cy="1833.54" r="22.03" style="fill:none;stroke:#006000;stroke-width:8.64"/>
	<circle cx="3795.66" cy="1642.83" r="26.35" style="fill:#006000"/>
	<circle cx="3795.66" cy="1642.83" r="22.03" style="fill:none;stroke:#006000;stroke-width:8.64"/>
	<line x1="354.17" y1="1634.05" x2="354.17" y2="1139.28" style="stroke:#FF7440;stroke-opacity:0.80;stroke-width:8.64"/>
	<line x1="332.14" y1="1139.28" x2="376.20" y2="1139.28" stroke-linecap="round" style="stroke:#FF7440;stroke-opacity:0.80;stroke-width:8.64"/>
	<line x1="332.14" y1="1634.05" x2="376.20" y2="1634.05" stroke-linecap="round" style="stroke:#FF7440;stroke-opacity:0.80;stroke-width:8.64"/>
	<line x1="2074.92" y1="1581.08" x2="2074.92" y2="848.33" style="stroke:#FF7440;stroke-opacity:0.80;stroke-width:8.64"/>
	<line x1="2052.89" y1="848.33" x2="2096.94" y2="848.33" stroke-linecap="round" style="stroke:#FF7440;stroke-opacity:0.80;stroke-width:8.64"/>
	<line x1="2052.89" y1="1581.08" x2="2096.94" y2="1581.08" stroke-linecap="round" style="stroke:#FF7440;stroke-opacity:0.80;stroke-width:8.64"/>
	<line x1="2935.35" y1="1127.27" x2="2935.35" y2="878.53" style="stroke:#FF7440;stroke-opacity:0.80;stroke-width:8.64"/>
	<line x1="2913.32" y1="878.53" x2="2957.38" y2="878.53" stroke-linecap="round" style="stroke:#FF7440;stroke-opacity:0.80;stroke-width:8.64"/>
	<line x1="2913.32" y1="1127.27" x2="2957.38" y2="1127.27" stroke-linecap="round" style="stroke:#FF7440;stroke-opacity:0.80;stroke-width:8.64"/>
	<line x1="3795.66" y1="667.28" x2="3795.66" y2="337.11" style="stroke:#FF7440;stroke-opacity:0.80;stroke-width:8.64"/>
	<line x1="3773.63" y1="337.11" x2="3817.69" y2="337.11" stroke-linecap="round" style="stroke:#FF7440;stroke-opacity:0.80;stroke-width:8.64"/>
	<line x1="3773.63" y1="667.28" x2="3817.69" y2="667.28" stroke-linecap="round" style="stroke:#FF7440;stroke-opacity:0.80;stroke-width:8.64"/>
	<circle cx="354.05" cy="1386.66" r="26.35" style="fill:#FF4500"/>
	<circle cx="354.05" cy="1386.66" r="22.03" style="fill:none;stroke:#FF4500;stroke-width:8.64"/>
	<circle cx="2074.92" cy="1214.77" r="26.35" style="fill:#FF4500"/>
	<circle cx="2074.92" cy="1214.77" r="22.03" style="fill:none;stroke:#FF4500;stroke-width:8.64"/>
	<circle cx="2935.23" cy="1003.03" r="26.35" style="fill:#FF4500"/>
	<circle cx="2935.23" cy="1003.03" r="22.03" style="fill:none;stroke:#FF4500;stroke-width:8.64"/>
	<circle cx="3795.66" cy="502.32" r="26.35" style="fill:#FF4500"/>
	<circle cx="3795.66" cy="502.32" r="22.03" style="fill:none;stroke:#FF4500;stroke-width:8.64"/>
	<line x1="290.81" y1="2233.63" x2="290.81" y2="100.86" style="stroke:#000000;stroke-width:5.76"/>
	<line x1="290.81" y1="2103.57" x2="250.84" y2="2103.57" style="stroke:#000000;stroke-width:5.76"/>
	<text x="200.73" y="2103.57" style="font-family:'Helvetica';font-size:99.99px;fill:#000000" transform="rotate(-90 200.73,2103.57)" text-anchor="middle">-1</text>
	<line x1="290.81" y1="1618.70" x2="250.84" y2="1618.70" style="stroke:#000000;stroke-width:5.76"/>
	<text x="200.73" y="1618.70" style="font-family:'Helvetica';font-size:99.99px;fill:#000000" transform="rotate(-90 200.73,1618.70)" text-anchor="middle">0</text>
	<line x1="290.81" y1="1133.83" x2="250.84" y2="1133.83" style="stroke:#000000;stroke-width:5.76"/>
	<text x="200.73" y="1133.83" style="font-family:'Helvetica';font-size:99.99px;fill:#000000" transform="rotate(-90 200.73,1133.83)" text-anchor="middle">1</text>
	<line x1="290.81" y1="648.97" x2="250.84" y2="648.97" style="stroke:#000000;stroke-width:5.76"/>
	<text x="200.73" y="648.97" style="font-family:'Helvetica';font-size:99.99px;fill:#000000" transform="rotate(-90 200.73,648.97)" text-anchor="middle">2</text>
	<line x1="290.81" y1="164.22" x2="250.84" y2="164.22" style="stroke:#000000;stroke-width:5.76"/>
	<text x="200.73" y="164.22" style="font-family:'Helvetica';font-size:99.99px;fill:#000000" transform="rotate(-90 200.73,164.22)" text-anchor="middle">3</text>
	<line x1="290.81" y1="2233.63" x2="3859.02" y2="2233.63" style="stroke:#000000;stroke-width:5.76"/>
	<line x1="354.17" y1="2233.63" x2="354.17" y2="2273.73" style="stroke:#000000;stroke-width:5.76"/>
	<text x="354.17" y="2363.59" style="font-family:'Helvetica';font-size:99.99px;fill:#000000" text-anchor="middle">-2</text>
	<line x1="1214.48" y1="2233.63" x2="1214.48" y2="2273.73" style="stroke:#000000;stroke-width:5.76"/>
	<text x="1214.48" y="2363.59" style="font-family:'Helvetica';font-size:99.99px;fill:#000000" text-anchor="middle">-1</text>
	<line x1="2074.92" y1="2233.63" x2="2074.92" y2="2273.73" style="stroke:#000000;stroke-width:5.76"/>
	<text x="2074.92" y="2363.59" style="font-family:'Helvetica';font-size:99.99px;fill:#000000" text-anchor="middle">0</text>
	<line x1="2935.35" y1="2233.63" x2="2935.35" y2="2273.73" style="stroke:#000000;stroke-width:5.76"/>
	<text x="2935.35" y="2363.59" style="font-family:'Helvetica';font-size:99.99px;fill:#000000" text-anchor="middle">1</text>
	<line x1="3795.66" y1="2233.63" x2="3795.66" y2="2273.73" style="stroke:#000000;stroke-width:5.76"/>
	<text x="3795.66" y="2363.59" style="font-family:'Helvetica';font-size:99.99px;fill:#000000" text-anchor="middle">2</text>
	<text x="2074.92" y="2473.60" style="font-family:'Helvetica';font-size:99.99px;fill:#000000" text-anchor="middle">x</text>
	<rect x="1601.08" y="2558.24" width="947.68" height="186.37" style="fill:#FFFFFF"/>
	<rect x="1603.96" y="2561.12" width="941.92" height="180.61" style="fill:none;stroke:#000000;stroke-width:5.76"/>
	<circle cx="1666.29" cy="2651.43" r="26.35" style="fill:#006000"/>
	<circle cx="1666.29" cy="2651.43" r="22.03" style="fill:none;stroke:#006000;stroke-width:8.64"/>
	<circle cx="2210.67" cy="2651.43" r="26.35" style="fill:#FF4500"/>
	<circle cx="2210.67" cy="2651.43" r="22.03" style="fill:none;stroke:#FF4500;stroke-width:8.64"/>
	<text x="1748.22" y="2686.46" style="font-family:'Helvetica';font-size:99.99px;fill:#000000">Female</text>
	<text x="2292.72" y="2686.46" style="font-family:'Helvetica';font-size:99.99px;fill:#000000">Male</text>
</svg>
