<?xml version="1.0" encoding="UTF-8" standalone="no"?>
<!-- This is a Stata 16.1 generated SVG file (http://www.stata.com) -->

<svg version="1.1" width="5.50in" height="4.00in" viewBox="0 0 3960 2880" xmlns="http://www.w3.org/2000/svg" xmlns:xlink="http://www.w3.org/1999/xlink">
	<desc>Stata Graph - Graph</desc>
	<rect x="0" y="0" width="3960" height="2880" style="fill:#FFFFFF;stroke:none"/>
	<rect x="0.00" y="0.00" width="3959.88" height="2880.00" style="fill:#FFFFFF"/>
	<rect x="2.88" y="2.88" width="3954.12" height="2874.24" style="fill:none;stroke:#FFFFFF;stroke-width:5.76"/>
	<rect x="293.69" y="103.74" width="3562.45" height="2127.01" style="fill:none;stroke:#000000;stroke-width:5.76"/>
	<line x1="354.17" y1="2027.21" x2="354.17" y2="1689.24" style="stroke:#408840;stroke-opacity:0.80;stroke-width:8.64"/>
	<line x1="332.14" y1="1689.24" x2="376.20" y2="1689.24" stroke-linecap="round" style="stroke:#408840;stroke-opacity:0.80;stroke-width:8.64"/>
	<line x1="332.14" y1="2027.21" x2="376.20" y2="2027.21" stroke-linecap="round" style="stroke:#408840;stroke-opacity:0.80;stroke-width:8.64"/>
	<line x1="526.18" y1="2001.84" x2="526.18" y2="1668.94" style="stroke:#408840;stroke-opacity:0.80;stroke-width:8.64"/>
	<line x1="504.16" y1="1668.94" x2="548.21" y2="1668.94" stroke-linecap="round" style="stroke:#408840;stroke-opacity:0.80;stroke-width:8.64"/>
	<line x1="504.16" y1="2001.84" x2="548.21" y2="2001.84" stroke-linecap="round" style="stroke:#408840;stroke-opacity:0.80;stroke-width:8.64"/>
	<line x1="698.32" y1="1955.93" x2="698.32" y2="1604.22" style="stroke:#408840;stroke-opacity:0.80;stroke-width:8.64"/>
	<line x1="676.29" y1="1604.22" x2="720.35" y2="1604.22" stroke-linecap="round" style="stroke:#408840;stroke-opacity:0.80;stroke-width:8.64"/>
	<line x1="676.29" y1="1955.93" x2="720.35" y2="1955.93" stroke-linecap="round" style="stroke:#408840;stroke-opacity:0.80;stroke-width:8.64"/>
	<line x1="870.33" y1="1906.55" x2="870.33" y2="1650.26" style="stroke:#408840;stroke-opacity:0.80;stroke-width:8.64"/>
	<line x1="848.31" y1="1650.26" x2="892.36" y2="1650.26" stroke-linecap="round" style="stroke:#408840;stroke-opacity:0.80;stroke-width:8.64"/>
	<line x1="848.31" y1="1906.55" x2="892.36" y2="1906.55" stroke-linecap="round" style="stroke:#408840;stroke-opacity:0.80;stroke-width:8.64"/>
	<line x1="1042.47" y1="1899.25" x2="1042.47" y2="1637.02" style="stroke:#408840;stroke-opacity:0.80;stroke-width:8.64"/>
	<line x1="1020.44" y1="1637.02" x2="1064.50" y2="1637.02" stroke-linecap="round" style="stroke:#408840;stroke-opacity:0.80;stroke-width:8.64"/>
	<line x1="1020.44" y1="1899.25" x2="1064.50" y2="1899.25" stroke-linecap="round" style="stroke:#408840;stroke-opacity:0.80;stroke-width:8.64"/>
	<line x1="1214.48" y1="1869.43" x2="1214.48" y2="1631.32" style="stroke:#408840;stroke-opacity:0.80;stroke-width:8.64"/>
	<line x1="1192.45" y1="1631.32" x2="1236.51" y2="1631.32" stroke-linecap="round" style="stroke:#408840;stroke-opacity:0.80;stroke-width:8.64"/>
	<line x1="1192.45" y1="1869.43" x2="1236.51" y2="1869.43" stroke-linecap="round" style="stroke:#408840;stroke-opacity:0.80;stroke-width:8.64"/>
	<line x1="1386.62" y1="1839.23" x2="1386.62" y2="1610.16" style="stroke:#408840;stroke-opacity:0.80;stroke-width:8.64"/>
	<line x1="1364.59" y1="1610.16" x2="1408.65" y2="1610.16" stroke-linecap="round" style="stroke:#408840;stroke-opacity:0.80;stroke-width:8.64"/>
	<line x1="1364.59" y1="1839.23" x2="1408.65" y2="1839.23" stroke-linecap="round" style="stroke:#408840;stroke-opacity:0.80;stroke-width:8.64"/>
	<line x1="1558.76" y1="1772.77" x2="1558.76" y2="1608.68" style="stroke:#408840;stroke-opacity:0.80;stroke-width:8.64"/>
	<line x1="1536.73" y1="1608.68" x2="1580.78" y2="1608.68" stroke-linecap="round" style="stroke:#408840;stroke-opacity:0.80;stroke-width:8.64"/>
	<line x1="1536.73" y1="1772.77" x2="1580.78" y2="1772.77" stroke-linecap="round" style="stroke:#408840;stroke-opacity:0.80;stroke-width:8.64"/>
	<line x1="1730.77" y1="1782.80" x2="1730.77" y2="1679.34" style="stroke:#408840;stroke-opacity:0.80;stroke-width:8.64"/>
	<line x1="1708.74" y1="1679.34" x2="1752.80" y2="1679.34" stroke-linecap="round" style="stroke:#408840;stroke-opacity:0.80;stroke-width:8.64"/>
	<line x1="1708.74" y1="1782.80" x2="1752.80" y2="1782.80" stroke-linecap="round" style="stroke:#408840;stroke-opacity:0.80;stroke-width:8.64"/>
	<line x1="2074.92" y1="1810.27" x2="2074.92" y2="1711.64" style="stroke:#408840;stroke-opacity:0.80;stroke-width:8.64"/>
	<line x1="2052.89" y1="1711.64" x2="2096.94" y2="1711.64" stroke-linecap="round" style="stroke:#408840;stroke-opacity:0.80;stroke-width:8.64"/>
	<line x1="2052.89" y1="1810.27" x2="2096.94" y2="1810.27" stroke-linecap="round" style="stroke:#408840;stroke-opacity:0.80;stroke-width:8.64"/>
	<line x1="2247.05" y1="1821.16" x2="2247.05" y2="1713.37" style="stroke:#408840;stroke-opacity:0.80;stroke-width:8.64"/>
	<line x1="2225.03" y1="1713.37" x2="2269.08" y2="1713.37" stroke-linecap="round" style="stroke:#408840;stroke-opacity:0.80;stroke-width:8.64"/>
	<line x1="2225.03" y1="1821.16" x2="2269.08" y2="1821.16" stroke-linecap="round" style="stroke:#408840;stroke-opacity:0.80;stroke-width:8.64"/>
	<line x1="2419.07" y1="1778.84" x2="2419.07" y2="1656.20" style="stroke:#408840;stroke-opacity:0.80;stroke-width:8.64"/>
	<line x1="2397.04" y1="1656.20" x2="2441.09" y2="1656.20" stroke-linecap="round" style="stroke:#408840;stroke-opacity:0.80;stroke-width:8.64"/>
	<line x1="2397.04" y1="1778.84" x2="2441.09" y2="1778.84" stroke-linecap="round" style="stroke:#408840;stroke-opacity:0.80;stroke-width:8.64"/>
	<line x1="2591.20" y1="1765.35" x2="2591.20" y2="1597.04" style="stroke:#408840;stroke-opacity:0.80;stroke-width:8.64"/>
	<line x1="2569.17" y1="1597.04" x2="2613.23" y2="1597.04" stroke-linecap="round" style="stroke:#408840;stroke-opacity:0.80;stroke-width:8.64"/>
	<line x1="2569.17" y1="1765.35" x2="2613.23" y2="1765.35" stroke-linecap="round" style="stroke:#408840;stroke-opacity:0.80;stroke-width:8.64"/>
	<line x1="2763.21" y1="1773.15" x2="2763.21" y2="1577.74" style="stroke:#408840;stroke-opacity:0.80;stroke-width:8.64"/>
	<line x1="2741.19" y1="1577.74" x2="2785.24" y2="1577.74" stroke-linecap="round" style="stroke:#408840;stroke-opacity:0.80;stroke-width:8.64"/>
	<line x1="2741.19" y1="1773.15" x2="2785.24" y2="1773.15" stroke-linecap="round" style="stroke:#408840;stroke-opacity:0.80;stroke-width:8.64"/>
	<line x1="2935.35" y1="1859.03" x2="2935.35" y2="1637.76" style="stroke:#408840;stroke-opacity:0.80;stroke-width:8.64"/>
	<line x1="2913.32" y1="1637.76" x2="2957.38" y2="1637.76" stroke-linecap="round" style="stroke:#408840;stroke-opacity:0.80;stroke-width:8.64"/>
	<line x1="2913.32" y1="1859.03" x2="2957.38" y2="1859.03" stroke-linecap="round" style="stroke:#408840;stroke-opacity:0.80;stroke-width:8.64"/>
	<line x1="3107.36" y1="1883.53" x2="3107.36" y2="1615.61" style="stroke:#408840;stroke-opacity:0.80;stroke-width:8.64"/>
	<line x1="3085.34" y1="1615.61" x2="3129.39" y2="1615.61" stroke-linecap="round" style="stroke:#408840;stroke-opacity:0.80;stroke-width:8.64"/>
	<line x1="3085.34" y1="1883.53" x2="3129.39" y2="1883.53" stroke-linecap="round" style="stroke:#408840;stroke-opacity:0.80;stroke-width:8.64"/>
	<line x1="3279.50" y1="1894.55" x2="3279.50" y2="1604.35" style="stroke:#408840;stroke-opacity:0.80;stroke-width:8.64"/>
	<line x1="3257.47" y1="1604.35" x2="3301.53" y2="1604.35" stroke-linecap="round" style="stroke:#408840;stroke-opacity:0.80;stroke-width:8.64"/>
	<line x1="3257.47" y1="1894.55" x2="3301.53" y2="1894.55" stroke-linecap="round" style="stroke:#408840;stroke-opacity:0.80;stroke-width:8.64"/>
	<line x1="3451.51" y1="1910.64" x2="3451.51" y2="1578.98" style="stroke:#408840;stroke-opacity:0.80;stroke-width:8.64"/>
	<line x1="3429.48" y1="1578.98" x2="3473.54" y2="1578.98" stroke-linecap="round" style="stroke:#408840;stroke-opacity:0.80;stroke-width:8.64"/>
	<line x1="3429.48" y1="1910.64" x2="3473.54" y2="1910.64" stroke-linecap="round" style="stroke:#408840;stroke-opacity:0.80;stroke-width:8.64"/>
	<line x1="3623.65" y1="1896.53" x2="3623.65" y2="1544.82" style="stroke:#408840;stroke-opacity:0.80;stroke-width:8.64"/>
	<line x1="3601.62" y1="1544.82" x2="3645.68" y2="1544.82" stroke-linecap="round" style="stroke:#408840;stroke-opacity:0.80;stroke-width:8.64"/>
	<line x1="3601.62" y1="1896.53" x2="3645.68" y2="1896.53" stroke-linecap="round" style="stroke:#408840;stroke-opacity:0.80;stroke-width:8.64"/>
	<line x1="3795.66" y1="1852.72" x2="3795.66" y2="1479.48" style="stroke:#408840;stroke-opacity:0.80;stroke-width:8.64"/>
	<line x1="3773.63" y1="1479.48" x2="3817.69" y2="1479.48" stroke-linecap="round" style="stroke:#408840;stroke-opacity:0.80;stroke-width:8.64"/>
	<line x1="3773.63" y1="1852.72" x2="3817.69" y2="1852.72" stroke-linecap="round" style="stroke:#408840;stroke-opacity:0.80;stroke-width:8.64"/>
	<circle cx="354.05" cy="1858.29" r="26.35" style="fill:#006000"/>
	<circle cx="354.05" cy="1858.29" r="22.03" style="fill:none;stroke:#006000;stroke-width:8.64"/>
	<circle cx="526.18" cy="1835.39" r="26.35" style="fill:#006000"/>
	<circle cx="526.18" cy="1835.39" r="22.03" style="fill:none;stroke:#006000;stroke-width:8.64"/>
	<circle cx="698.20" cy="1780.20" r="26.35" style="fill:#006000"/>
	<circle cx="698.20" cy="1780.20" r="22.03" style="fill:none;stroke:#006000;stroke-width:8.64"/>
	<circle cx="870.33" cy="1778.47" r="26.35" style="fill:#006000"/>
	<circle cx="870.33" cy="1778.47" r="22.03" style="fill:none;stroke:#006000;stroke-width:8.64"/>
	<circle cx="1042.35" cy="1768.20" r="26.35" style="fill:#006000"/>
	<circle cx="1042.35" cy="1768.20" r="22.03" style="fill:none;stroke:#006000;stroke-width:8.64"/>
	<circle cx="1214.48" cy="1750.37" r="26.35" style="fill:#006000"/>
	<circle cx="1214.48" cy="1750.37" r="22.03" style="fill:none;stroke:#006000;stroke-width:8.64"/>
	<circle cx="1386.49" cy="1724.76" r="26.35" style="fill:#006000"/>
	<circle cx="1386.49" cy="1724.76" r="22.03" style="fill:none;stroke:#006000;stroke-width:8.64"/>
	<circle cx="1558.63" cy="1690.85" r="26.35" style="fill:#006000"/>
	<circle cx="1558.63" cy="1690.85" r="22.03" style="fill:none;stroke:#006000;stroke-width:8.64"/>
	<circle cx="1730.77" cy="1731.07" r="26.35" style="fill:#006000"/>
	<circle cx="1730.77" cy="1731.07" r="22.03" style="fill:none;stroke:#006000;stroke-width:8.64"/>
	<circle cx="2074.92" cy="1761.02" r="26.35" style="fill:#006000"/>
	<circle cx="2074.92" cy="1761.02" r="22.03" style="fill:none;stroke:#006000;stroke-width:8.64"/>
	<circle cx="2246.93" cy="1767.33" r="26.35" style="fill:#006000"/>
	<circle cx="2246.93" cy="1767.33" r="22.03" style="fill:none;stroke:#006000;stroke-width:8.64"/>
	<circle cx="2419.07" cy="1717.58" r="26.35" style="fill:#006000"/>
	<circle cx="2419.07" cy="1717.58" r="22.03" style="fill:none;stroke:#006000;stroke-width:8.64"/>
	<circle cx="2591.08" cy="1681.32" r="26.35" style="fill:#006000"/>
	<circle cx="2591.08" cy="1681.32" r="22.03" style="fill:none;stroke:#006000;stroke-width:8.64"/>
	<circle cx="2763.21" cy="1675.50" r="26.35" style="fill:#006000"/>
	<circle cx="2763.21" cy="1675.50" r="22.03" style="fill:none;stroke:#006000;stroke-width:8.64"/>
	<circle cx="2935.23" cy="1748.39" r="26.35" style="fill:#006000"/>
	<circle cx="2935.23" cy="1748.39" r="22.03" style="fill:none;stroke:#006000;stroke-width:8.64"/>
	<circle cx="3107.36" cy="1749.63" r="26.35" style="fill:#006000"/>
	<circle cx="3107.36" cy="1749.63" r="22.03" style="fill:none;stroke:#006000;stroke-width:8.64"/>
	<circle cx="3279.38" cy="1749.51" r="26.35" style="fill:#006000"/>
	<circle cx="3279.38" cy="1749.51" r="22.03" style="fill:none;stroke:#006000;stroke-width:8.64"/>
	<circle cx="3451.51" cy="1744.93" r="26.35" style="fill:#006000"/>
	<circle cx="3451.51" cy="1744.93" r="22.03" style="fill:none;stroke:#006000;stroke-width:8.64"/>
	<circle cx="3623.52" cy="1720.80" r="26.35" style="fill:#006000"/>
	<circle cx="3623.52" cy="1720.80" r="22.03" style="fill:none;stroke:#006000;stroke-width:8.64"/>
	<circle cx="3795.66" cy="1666.22" r="26.35" style="fill:#006000"/>
	<circle cx="3795.66" cy="1666.22" r="22.03" style="fill:none;stroke:#006000;stroke-width:8.64"/>
	<line x1="354.17" y1="1644.32" x2="354.17" y2="260.38" style="stroke:#FF7440;stroke-opacity:0.80;stroke-width:8.64"/>
	<line x1="332.14" y1="260.38" x2="376.20" y2="260.38" stroke-linecap="round" style="stroke:#FF7440;stroke-opacity:0.80;stroke-width:8.64"/>
	<line x1="332.14" y1="1644.32" x2="376.20" y2="1644.32" stroke-linecap="round" style="stroke:#FF7440;stroke-opacity:0.80;stroke-width:8.64"/>
	<line x1="526.18" y1="1917.94" x2="526.18" y2="602.93" style="stroke:#FF7440;stroke-opacity:0.80;stroke-width:8.64"/>
	<line x1="504.16" y1="602.93" x2="548.21" y2="602.93" stroke-linecap="round" style="stroke:#FF7440;stroke-opacity:0.80;stroke-width:8.64"/>
	<line x1="504.16" y1="1917.94" x2="548.21" y2="1917.94" stroke-linecap="round" style="stroke:#FF7440;stroke-opacity:0.80;stroke-width:8.64"/>
	<line x1="698.32" y1="2012.73" x2="698.32" y2="800.32" style="stroke:#FF7440;stroke-opacity:0.80;stroke-width:8.64"/>
	<line x1="676.29" y1="800.32" x2="720.35" y2="800.32" stroke-linecap="round" style="stroke:#FF7440;stroke-opacity:0.80;stroke-width:8.64"/>
	<line x1="676.29" y1="2012.73" x2="720.35" y2="2012.73" stroke-linecap="round" style="stroke:#FF7440;stroke-opacity:0.80;stroke-width:8.64"/>
	<line x1="870.33" y1="1925.49" x2="870.33" y2="1175.66" style="stroke:#FF7440;stroke-opacity:0.80;stroke-width:8.64"/>
	<line x1="848.31" y1="1175.66" x2="892.36" y2="1175.66" stroke-linecap="round" style="stroke:#FF7440;stroke-opacity:0.80;stroke-width:8.64"/>
	<line x1="848.31" y1="1925.49" x2="892.36" y2="1925.49" stroke-linecap="round" style="stroke:#FF7440;stroke-opacity:0.80;stroke-width:8.64"/>
	<line x1="1042.47" y1="1988.97" x2="1042.47" y2="1403.62" style="stroke:#FF7440;stroke-opacity:0.80;stroke-width:8.64"/>
	<line x1="1020.44" y1="1403.62" x2="1064.50" y2="1403.62" stroke-linecap="round" style="stroke:#FF7440;stroke-opacity:0.80;stroke-width:8.64"/>
	<line x1="1020.44" y1="1988.97" x2="1064.50" y2="1988.97" stroke-linecap="round" style="stroke:#FF7440;stroke-opacity:0.80;stroke-width:8.64"/>
	<line x1="1214.48" y1="1932.42" x2="1214.48" y2="1449.28" style="stroke:#FF7440;stroke-opacity:0.80;stroke-width:8.64"/>
	<line x1="1192.45" y1="1449.28" x2="1236.51" y2="1449.28" stroke-linecap="round" style="stroke:#FF7440;stroke-opacity:0.80;stroke-width:8.64"/>
	<line x1="1192.45" y1="1932.42" x2="1236.51" y2="1932.42" stroke-linecap="round" style="stroke:#FF7440;stroke-opacity:0.80;stroke-width:8.64"/>
	<line x1="1386.62" y1="1897.39" x2="1386.62" y2="1527.12" style="stroke:#FF7440;stroke-opacity:0.80;stroke-width:8.64"/>
	<line x1="1364.59" y1="1527.12" x2="1408.65" y2="1527.12" stroke-linecap="round" style="stroke:#FF7440;stroke-opacity:0.80;stroke-width:8.64"/>
	<line x1="1364.59" y1="1897.39" x2="1408.65" y2="1897.39" stroke-linecap="round" style="stroke:#FF7440;stroke-opacity:0.80;stroke-width:8.64"/>
	<line x1="1558.76" y1="1927.10" x2="1558.76" y2="1676.12" style="stroke:#FF7440;stroke-opacity:0.80;stroke-width:8.64"/>
	<line x1="1536.73" y1="1676.12" x2="1580.78" y2="1676.12" stroke-linecap="round" style="stroke:#FF7440;stroke-opacity:0.80;stroke-width:8.64"/>
	<line x1="1536.73" y1="1927.10" x2="1580.78" y2="1927.10" stroke-linecap="round" style="stroke:#FF7440;stroke-opacity:0.80;stroke-width:8.64"/>
	<line x1="1730.77" y1="1840.47" x2="1730.77" y2="1687.76" style="stroke:#FF7440;stroke-opacity:0.80;stroke-width:8.64"/>
	<line x1="1708.74" y1="1687.76" x2="1752.80" y2="1687.76" stroke-linecap="round" style="stroke:#FF7440;stroke-opacity:0.80;stroke-width:8.64"/>
	<line x1="1708.74" y1="1840.47" x2="1752.80" y2="1840.47" stroke-linecap="round" style="stroke:#FF7440;stroke-opacity:0.80;stroke-width:8.64"/>
	<line x1="2074.92" y1="1821.16" x2="2074.92" y2="1710.90" style="stroke:#FF7440;stroke-opacity:0.80;stroke-width:8.64"/>
	<line x1="2052.89" y1="1710.90" x2="2096.94" y2="1710.90" stroke-linecap="round" style="stroke:#FF7440;stroke-opacity:0.80;stroke-width:8.64"/>
	<line x1="2052.89" y1="1821.16" x2="2096.94" y2="1821.16" stroke-linecap="round" style="stroke:#FF7440;stroke-opacity:0.80;stroke-width:8.64"/>
	<line x1="2247.05" y1="1816.58" x2="2247.05" y2="1675.50" style="stroke:#FF7440;stroke-opacity:0.80;stroke-width:8.64"/>
	<line x1="2225.03" y1="1675.50" x2="2269.08" y2="1675.50" stroke-linecap="round" style="stroke:#FF7440;stroke-opacity:0.80;stroke-width:8.64"/>
	<line x1="2225.03" y1="1816.58" x2="2269.08" y2="1816.58" stroke-linecap="round" style="stroke:#FF7440;stroke-opacity:0.80;stroke-width:8.64"/>
	<line x1="2419.07" y1="1855.57" x2="2419.07" y2="1642.34" style="stroke:#FF7440;stroke-opacity:0.80;stroke-width:8.64"/>
	<line x1="2397.04" y1="1642.34" x2="2441.09" y2="1642.34" stroke-linecap="round" style="stroke:#FF7440;stroke-opacity:0.80;stroke-width:8.64"/>
	<line x1="2397.04" y1="1855.57" x2="2441.09" y2="1855.57" stroke-linecap="round" style="stroke:#FF7440;stroke-opacity:0.80;stroke-width:8.64"/>
	<line x1="2591.20" y1="1887.00" x2="2591.20" y2="1561.03" style="stroke:#FF7440;stroke-opacity:0.80;stroke-width:8.64"/>
	<line x1="2569.17" y1="1561.03" x2="2613.23" y2="1561.03" stroke-linecap="round" style="stroke:#FF7440;stroke-opacity:0.80;stroke-width:8.64"/>
	<line x1="2569.17" y1="1887.00" x2="2613.23" y2="1887.00" stroke-linecap="round" style="stroke:#FF7440;stroke-opacity:0.80;stroke-width:8.64"/>
	<line x1="2763.21" y1="1805.32" x2="2763.21" y2="1413.89" style="stroke:#FF7440;stroke-opacity:0.80;stroke-width:8.64"/>
	<line x1="2741.19" y1="1413.89" x2="2785.24" y2="1413.89" stroke-linecap="round" style="stroke:#FF7440;stroke-opacity:0.80;stroke-width:8.64"/>
	<line x1="2741.19" y1="1805.32" x2="2785.24" y2="1805.32" stroke-linecap="round" style="stroke:#FF7440;stroke-opacity:0.80;stroke-width:8.64"/>
	<line x1="2935.35" y1="1863.98" x2="2935.35" y2="1417.11" style="stroke:#FF7440;stroke-opacity:0.80;stroke-width:8.64"/>
	<line x1="2913.32" y1="1417.11" x2="2957.38" y2="1417.11" stroke-linecap="round" style="stroke:#FF7440;stroke-opacity:0.80;stroke-width:8.64"/>
	<line x1="2913.32" y1="1863.98" x2="2957.38" y2="1863.98" stroke-linecap="round" style="stroke:#FF7440;stroke-opacity:0.80;stroke-width:8.64"/>
	<line x1="3107.36" y1="1839.85" x2="3107.36" y2="1371.19" style="stroke:#FF7440;stroke-opacity:0.80;stroke-width:8.64"/>
	<line x1="3085.34" y1="1371.19" x2="3129.39" y2="1371.19" stroke-linecap="round" style="stroke:#FF7440;stroke-opacity:0.80;stroke-width:8.64"/>
	<line x1="3085.34" y1="1839.85" x2="3129.39" y2="1839.85" stroke-linecap="round" style="stroke:#FF7440;stroke-opacity:0.80;stroke-width:8.64"/>
	<line x1="3279.50" y1="1909.40" x2="3279.50" y2="1449.78" style="stroke:#FF7440;stroke-opacity:0.80;stroke-width:8.64"/>
	<line x1="3257.47" y1="1449.78" x2="3301.53" y2="1449.78" stroke-linecap="round" style="stroke:#FF7440;stroke-opacity:0.80;stroke-width:8.64"/>
	<line x1="3257.47" y1="1909.40" x2="3301.53" y2="1909.40" stroke-linecap="round" style="stroke:#FF7440;stroke-opacity:0.80;stroke-width:8.64"/>
	<line x1="3451.51" y1="1871.28" x2="3451.51" y2="1432.45" style="stroke:#FF7440;stroke-opacity:0.80;stroke-width:8.64"/>
	<line x1="3429.48" y1="1432.45" x2="3473.54" y2="1432.45" stroke-linecap="round" style="stroke:#FF7440;stroke-opacity:0.80;stroke-width:8.64"/>
	<line x1="3429.48" y1="1871.28" x2="3473.54" y2="1871.28" stroke-linecap="round" style="stroke:#FF7440;stroke-opacity:0.80;stroke-width:8.64"/>
	<line x1="3623.65" y1="1782.06" x2="3623.65" y2="1358.07" style="stroke:#FF7440;stroke-opacity:0.80;stroke-width:8.64"/>
	<line x1="3601.62" y1="1358.07" x2="3645.68" y2="1358.07" stroke-linecap="round" style="stroke:#FF7440;stroke-opacity:0.80;stroke-width:8.64"/>
	<line x1="3601.62" y1="1782.06" x2="3645.68" y2="1782.06" stroke-linecap="round" style="stroke:#FF7440;stroke-opacity:0.80;stroke-width:8.64"/>
	<line x1="3795.66" y1="1821.04" x2="3795.66" y2="1317.11" style="stroke:#FF7440;stroke-opacity:0.80;stroke-width:8.64"/>
	<line x1="3773.63" y1="1317.11" x2="3817.69" y2="1317.11" stroke-linecap="round" style="stroke:#FF7440;stroke-opacity:0.80;stroke-width:8.64"/>
	<line x1="3773.63" y1="1821.04" x2="3817.69" y2="1821.04" stroke-linecap="round" style="stroke:#FF7440;stroke-opacity:0.80;stroke-width:8.64"/>
	<circle cx="354.05" cy="952.41" r="26.35" style="fill:#FF4500"/>
	<circle cx="354.05" cy="952.41" r="22.03" style="fill:none;stroke:#FF4500;stroke-width:8.64"/>
	<circle cx="526.18" cy="1260.43" r="26.35" style="fill:#FF4500"/>
	<circle cx="526.18" cy="1260.43" r="22.03" style="fill:none;stroke:#FF4500;stroke-width:8.64"/>
	<circle cx="698.20" cy="1406.59" r="26.35" style="fill:#FF4500"/>
	<circle cx="698.20" cy="1406.59" r="22.03" style="fill:none;stroke:#FF4500;stroke-width:8.64"/>
	<circle cx="870.33" cy="1550.64" r="26.35" style="fill:#FF4500"/>
	<circle cx="870.33" cy="1550.64" r="22.03" style="fill:none;stroke:#FF4500;stroke-width:8.64"/>
	<circle cx="1042.35" cy="1696.42" r="26.35" style="fill:#FF4500"/>
	<circle cx="1042.35" cy="1696.42" r="22.03" style="fill:none;stroke:#FF4500;stroke-width:8.64"/>
	<circle cx="1214.48" cy="1690.97" r="26.35" style="fill:#FF4500"/>
	<circle cx="1214.48" cy="1690.97" r="22.03" style="fill:none;stroke:#FF4500;stroke-width:8.64"/>
	<circle cx="1386.49" cy="1712.26" r="26.35" style="fill:#FF4500"/>
	<circle cx="1386.49" cy="1712.26" r="22.03" style="fill:none;stroke:#FF4500;stroke-width:8.64"/>
	<circle cx="1558.63" cy="1801.73" r="26.35" style="fill:#FF4500"/>
	<circle cx="1558.63" cy="1801.73" r="22.03" style="fill:none;stroke:#FF4500;stroke-width:8.64"/>
	<circle cx="1730.77" cy="1764.11" r="26.35" style="fill:#FF4500"/>
	<circle cx="1730.77" cy="1764.11" r="22.03" style="fill:none;stroke:#FF4500;stroke-width:8.64"/>
	<circle cx="2074.92" cy="1766.09" r="26.35" style="fill:#FF4500"/>
	<circle cx="2074.92" cy="1766.09" r="22.03" style="fill:none;stroke:#FF4500;stroke-width:8.64"/>
	<circle cx="2246.93" cy="1746.17" r="26.35" style="fill:#FF4500"/>
	<circle cx="2246.93" cy="1746.17" r="22.03" style="fill:none;stroke:#FF4500;stroke-width:8.64"/>
	<circle cx="2419.07" cy="1749.01" r="26.35" style="fill:#FF4500"/>
	<circle cx="2419.07" cy="1749.01" r="22.03" style="fill:none;stroke:#FF4500;stroke-width:8.64"/>
	<circle cx="2591.08" cy="1724.02" r="26.35" style="fill:#FF4500"/>
	<circle cx="2591.08" cy="1724.02" r="22.03" style="fill:none;stroke:#FF4500;stroke-width:8.64"/>
	<circle cx="2763.21" cy="1609.67" r="26.35" style="fill:#FF4500"/>
	<circle cx="2763.21" cy="1609.67" r="22.03" style="fill:none;stroke:#FF4500;stroke-width:8.64"/>
	<circle cx="2935.23" cy="1640.61" r="26.35" style="fill:#FF4500"/>
	<circle cx="2935.23" cy="1640.61" r="22.03" style="fill:none;stroke:#FF4500;stroke-width:8.64"/>
	<circle cx="3107.36" cy="1605.58" r="26.35" style="fill:#FF4500"/>
	<circle cx="3107.36" cy="1605.58" r="22.03" style="fill:none;stroke:#FF4500;stroke-width:8.64"/>
	<circle cx="3279.38" cy="1679.59" r="26.35" style="fill:#FF4500"/>
	<circle cx="3279.38" cy="1679.59" r="22.03" style="fill:none;stroke:#FF4500;stroke-width:8.64"/>
	<circle cx="3451.51" cy="1651.87" r="26.35" style="fill:#FF4500"/>
	<circle cx="3451.51" cy="1651.87" r="22.03" style="fill:none;stroke:#FF4500;stroke-width:8.64"/>
	<circle cx="3623.52" cy="1570.19" r="26.35" style="fill:#FF4500"/>
	<circle cx="3623.52" cy="1570.19" r="22.03" style="fill:none;stroke:#FF4500;stroke-width:8.64"/>
	<circle cx="3795.66" cy="1569.08" r="26.35" style="fill:#FF4500"/>
	<circle cx="3795.66" cy="1569.08" r="22.03" style="fill:none;stroke:#FF4500;stroke-width:8.64"/>
	<line x1="290.81" y1="2233.63" x2="290.81" y2="100.86" style="stroke:#000000;stroke-width:5.76"/>
	<line x1="290.81" y1="2170.27" x2="250.84" y2="2170.27" style="stroke:#000000;stroke-width:5.76"/>
	<text x="200.73" y="2170.27" style="font-family:'Helvetica';font-size:99.99px;fill:#000000" transform="rotate(-90 200.73,2170.27)" text-anchor="middle">-1</text>
	<line x1="290.81" y1="1769.06" x2="250.84" y2="1769.06" style="stroke:#000000;stroke-width:5.76"/>
	<text x="200.73" y="1769.06" style="font-family:'Helvetica';font-size:99.99px;fill:#000000" transform="rotate(-90 200.73,1769.06)" text-anchor="middle">0</text>
	<line x1="290.81" y1="1367.85" x2="250.84" y2="1367.85" style="stroke:#000000;stroke-width:5.76"/>
	<text x="200.73" y="1367.85" style="font-family:'Helvetica';font-size:99.99px;fill:#000000" transform="rotate(-90 200.73,1367.85)" text-anchor="middle">1</text>
	<line x1="290.81" y1="966.64" x2="250.84" y2="966.64" style="stroke:#000000;stroke-width:5.76"/>
	<text x="200.73" y="966.64" style="font-family:'Helvetica';font-size:99.99px;fill:#000000" transform="rotate(-90 200.73,966.64)" text-anchor="middle">2</text>
	<line x1="290.81" y1="565.43" x2="250.84" y2="565.43" style="stroke:#000000;stroke-width:5.76"/>
	<text x="200.73" y="565.43" style="font-family:'Helvetica';font-size:99.99px;fill:#000000" transform="rotate(-90 200.73,565.43)" text-anchor="middle">3</text>
	<line x1="290.81" y1="164.22" x2="250.84" y2="164.22" style="stroke:#000000;stroke-width:5.76"/>
	<text x="200.73" y="164.22" style="font-family:'Helvetica';font-size:99.99px;fill:#000000" transform="rotate(-90 200.73,164.22)" text-anchor="middle">4</text>
	<line x1="290.81" y1="2233.63" x2="3859.02" y2="2233.63" style="stroke:#000000;stroke-width:5.76"/>
	<line x1="354.17" y1="2233.63" x2="354.17" y2="2273.73" style="stroke:#000000;stroke-width:5.76"/>
	<text x="354.17" y="2363.59" style="font-family:'Helvetica';font-size:99.99px;fill:#000000" text-anchor="middle">-10</text>
	<line x1="1214.48" y1="2233.63" x2="1214.48" y2="2273.73" style="stroke:#000000;stroke-width:5.76"/>
	<text x="1214.48" y="2363.59" style="font-family:'Helvetica';font-size:99.99px;fill:#000000" text-anchor="middle">-5</text>
	<line x1="2074.92" y1="2233.63" x2="2074.92" y2="2273.73" style="stroke:#000000;stroke-width:5.76"/>
	<text x="2074.92" y="2363.59" style="font-family:'Helvetica';font-size:99.99px;fill:#000000" text-anchor="middle">0</text>
	<line x1="2935.35" y1="2233.63" x2="2935.35" y2="2273.73" style="stroke:#000000;stroke-width:5.76"/>
	<text x="2935.35" y="2363.59" style="font-family:'Helvetica';font-size:99.99px;fill:#000000" text-anchor="middle">5</text>
	<line x1="3795.66" y1="2233.63" x2="3795.66" y2="2273.73" style="stroke:#000000;stroke-width:5.76"/>
	<text x="3795.66" y="2363.59" style="font-family:'Helvetica';font-size:99.99px;fill:#000000" text-anchor="middle">10</text>
	<text x="2074.92" y="2473.60" style="font-family:'Helvetica';font-size:99.99px;fill:#000000" text-anchor="middle">x</text>
	<rect x="1601.08" y="2558.24" width="947.68" height="186.37" style="fill:#FFFFFF"/>
	<rect x="1603.96" y="2561.12" width="941.92" height="180.61" style="fill:none;stroke:#000000;stroke-width:5.76"/>
	<circle cx="1666.29" cy="2651.43" r="26.35" style="fill:#006000"/>
	<circle cx="1666.29" cy="2651.43" r="22.03" style="fill:none;stroke:#006000;stroke-width:8.64"/>
	<circle cx="2210.67" cy="2651.43" r="26.35" style="fill:#FF4500"/>
	<circle cx="2210.67" cy="2651.43" r="22.03" style="fill:none;stroke:#FF4500;stroke-width:8.64"/>
	<text x="1748.22" y="2686.46" style="font-family:'Helvetica';font-size:99.99px;fill:#000000">Female</text>
	<text x="2292.72" y="2686.46" style="font-family:'Helvetica';font-size:99.99px;fill:#000000">Male</text>
</svg>
