<?xml version="1.0" encoding="UTF-8" standalone="no"?>
<!-- This is a Stata 16.0 generated SVG file (http://www.stata.com) -->

<svg version="1.1" width="5.50in" height="4.00in" viewBox="0 0 3960 2880" xmlns="http://www.w3.org/2000/svg" xmlns:xlink="http://www.w3.org/1999/xlink">
	<desc>Stata Graph - Graph</desc>
	<rect x="0" y="0" width="3960" height="2880" style="fill:#FFFFFF;stroke:none"/>
	<rect x="0.00" y="0.00" width="3959.88" height="2880.00" style="fill:#FFFFFF"/>
	<rect x="2.88" y="2.88" width="3954.12" height="2874.24" style="fill:none;stroke:#FFFFFF;stroke-width:5.76"/>
	<rect x="293.69" y="103.74" width="3562.45" height="2127.01" style="fill:none;stroke:#000000;stroke-width:5.76"/>
	<defs>
		<path id="path_FVQUlDtE" d="M354.17 1510.54 L354.17 1510.54 L526.18 1606.57 L698.32 1629.59 L870.33 1514.00 L1042.47 1528.11 L1214.48 1529.60 L1386.62 1485.91 L1558.76 1500.76 L1730.77 1519.57 L2074.92 1580.34 L2247.05 1544.94 L2419.07 1528.24 L2591.20 1563.38 L2763.21 1575.02 L2935.35 1664.24 L3107.36 1680.33 L3279.50 1745.55 L3451.51 1693.70 L3623.65 1723.52 L3795.66 1705.33 L3795.66 1135.32 L3623.65 1175.04 L3451.51 1197.57 L3279.50 1343.35 L3107.36 1319.83 L2935.35 1354.49 L2763.21 1304.49 L2591.20 1324.04 L2419.07 1332.09 L2247.05 1368.59 L2074.92 1403.37 L1730.77 1381.71 L1558.76 1287.66 L1386.62 1247.32 L1214.48 1274.79 L1042.47 1245.21 L870.33 1214.03 L698.32 1125.42 L526.18 1118.98 L354.17 1046.34 L354.17 1510.54 Z" stroke-linecap="round"/>
	</defs>
	<defs>
		<clipPath id="clipPath_TsmVnRBF">
			<use xlink:href="#path_FVQUlDtE"/>
		</clipPath>
	</defs>
	<use xlink:href="#path_FVQUlDtE" style="stroke:none;fill:#A65D62;fill-opacity:0.10"/>
	<use xlink:href="#path_FVQUlDtE" style="fill:none;stroke:#FFFFFF;stroke-width:11.52" clip-path="url(#clipPath_TsmVnRBF)"/>
	<line x1="354.17" y1="1510.54" x2="354.17" y2="1510.54" style="stroke:#AC686C;stroke-opacity:0.80;stroke-width:8.64"/>
	<line x1="354.17" y1="1510.54" x2="404.42" y2="1538.63" style="stroke:#AC686C;stroke-opacity:0.80;stroke-width:8.64"/>
	<line x1="429.54" y1="1552.62" x2="479.78" y2="1580.71" style="stroke:#AC686C;stroke-opacity:0.80;stroke-width:8.64"/>
	<line x1="505.02" y1="1594.69" x2="526.18" y2="1606.57" style="stroke:#AC686C;stroke-opacity:0.80;stroke-width:8.64"/>
	<line x1="526.18" y1="1606.57" x2="559.23" y2="1611.03" style="stroke:#AC686C;stroke-opacity:0.80;stroke-width:8.64"/>
	<line x1="587.81" y1="1614.86" x2="644.86" y2="1622.41" style="stroke:#AC686C;stroke-opacity:0.80;stroke-width:8.64"/>
	<line x1="673.45" y1="1626.25" x2="698.32" y2="1629.59" style="stroke:#AC686C;stroke-opacity:0.80;stroke-width:8.64"/>
	<line x1="698.32" y1="1629.59" x2="725.17" y2="1611.52" style="stroke:#AC686C;stroke-opacity:0.80;stroke-width:8.64"/>
	<line x1="749.18" y1="1595.43" x2="796.95" y2="1563.26" style="stroke:#AC686C;stroke-opacity:0.80;stroke-width:8.64"/>
	<line x1="820.83" y1="1547.17" x2="868.73" y2="1515.12" style="stroke:#AC686C;stroke-opacity:0.80;stroke-width:8.64"/>
	<line x1="897.06" y1="1516.23" x2="954.48" y2="1520.94" style="stroke:#AC686C;stroke-opacity:0.80;stroke-width:8.64"/>
	<line x1="983.19" y1="1523.29" x2="1040.61" y2="1527.99" style="stroke:#AC686C;stroke-opacity:0.80;stroke-width:8.64"/>
	<line x1="1069.32" y1="1528.36" x2="1126.99" y2="1528.86" style="stroke:#AC686C;stroke-opacity:0.80;stroke-width:8.64"/>
	<line x1="1155.83" y1="1529.10" x2="1213.37" y2="1529.60" style="stroke:#AC686C;stroke-opacity:0.80;stroke-width:8.64"/>
	<line x1="1241.34" y1="1522.79" x2="1297.15" y2="1508.68" style="stroke:#AC686C;stroke-opacity:0.80;stroke-width:8.64"/>
	<line x1="1324.99" y1="1501.63" x2="1380.80" y2="1487.40" style="stroke:#AC686C;stroke-opacity:0.80;stroke-width:8.64"/>
	<line x1="1409.39" y1="1487.89" x2="1466.81" y2="1492.84" style="stroke:#AC686C;stroke-opacity:0.80;stroke-width:8.64"/>
	<line x1="1495.52" y1="1495.32" x2="1552.82" y2="1500.27" style="stroke:#AC686C;stroke-opacity:0.80;stroke-width:8.64"/>
	<line x1="1581.53" y1="1503.24" x2="1638.70" y2="1509.55" style="stroke:#AC686C;stroke-opacity:0.80;stroke-width:8.64"/>
	<line x1="1667.28" y1="1512.64" x2="1724.58" y2="1518.83" style="stroke:#AC686C;stroke-opacity:0.80;stroke-width:8.64"/>
	<line x1="1753.04" y1="1523.53" x2="1809.72" y2="1533.56" style="stroke:#AC686C;stroke-opacity:0.80;stroke-width:8.64"/>
	<line x1="1838.06" y1="1538.51" x2="1894.86" y2="1548.53" style="stroke:#AC686C;stroke-opacity:0.80;stroke-width:8.64"/>
	<line x1="1923.20" y1="1553.48" x2="1979.88" y2="1563.51" style="stroke:#AC686C;stroke-opacity:0.80;stroke-width:8.64"/>
	<line x1="2008.21" y1="1568.58" x2="2065.02" y2="1578.60" style="stroke:#AC686C;stroke-opacity:0.80;stroke-width:8.64"/>
	<line x1="2093.23" y1="1576.62" x2="2149.66" y2="1564.99" style="stroke:#AC686C;stroke-opacity:0.80;stroke-width:8.64"/>
	<line x1="2177.88" y1="1559.17" x2="2234.18" y2="1547.54" style="stroke:#AC686C;stroke-opacity:0.80;stroke-width:8.64"/>
	<line x1="2262.77" y1="1543.46" x2="2320.07" y2="1537.89" style="stroke:#AC686C;stroke-opacity:0.80;stroke-width:8.64"/>
	<line x1="2348.78" y1="1535.04" x2="2406.07" y2="1529.60" style="stroke:#AC686C;stroke-opacity:0.80;stroke-width:8.64"/>
	<line x1="2434.53" y1="1531.45" x2="2490.96" y2="1542.96" style="stroke:#AC686C;stroke-opacity:0.80;stroke-width:8.64"/>
	<line x1="2519.18" y1="1548.78" x2="2575.61" y2="1560.29" style="stroke:#AC686C;stroke-opacity:0.80;stroke-width:8.64"/>
	<line x1="2604.07" y1="1564.25" x2="2661.49" y2="1568.21" style="stroke:#AC686C;stroke-opacity:0.80;stroke-width:8.64"/>
	<line x1="2690.32" y1="1570.07" x2="2747.74" y2="1573.90" style="stroke:#AC686C;stroke-opacity:0.80;stroke-width:8.64"/>
	<line x1="2775.09" y1="1581.08" x2="2826.20" y2="1607.56" style="stroke:#AC686C;stroke-opacity:0.80;stroke-width:8.64"/>
	<line x1="2851.70" y1="1620.80" x2="2902.80" y2="1647.41" style="stroke:#AC686C;stroke-opacity:0.80;stroke-width:8.64"/>
	<line x1="2928.42" y1="1660.65" x2="2935.35" y2="1664.24" style="stroke:#AC686C;stroke-opacity:0.80;stroke-width:8.64"/>
	<line x1="2935.35" y1="1664.24" x2="2984.97" y2="1668.82" style="stroke:#AC686C;stroke-opacity:0.80;stroke-width:8.64"/>
	<line x1="3013.56" y1="1671.54" x2="3070.98" y2="1676.86" style="stroke:#AC686C;stroke-opacity:0.80;stroke-width:8.64"/>
	<line x1="3099.69" y1="1679.59" x2="3107.36" y2="1680.33" style="stroke:#AC686C;stroke-opacity:0.80;stroke-width:8.64"/>
	<line x1="3107.36" y1="1680.33" x2="3153.89" y2="1698.03" style="stroke:#AC686C;stroke-opacity:0.80;stroke-width:8.64"/>
	<line x1="3180.87" y1="1708.17" x2="3234.70" y2="1728.59" style="stroke:#AC686C;stroke-opacity:0.80;stroke-width:8.64"/>
	<line x1="3261.68" y1="1738.87" x2="3279.50" y2="1745.55" style="stroke:#AC686C;stroke-opacity:0.80;stroke-width:8.64"/>
	<line x1="3279.50" y1="1745.55" x2="3316.38" y2="1734.41" style="stroke:#AC686C;stroke-opacity:0.80;stroke-width:8.64"/>
	<line x1="3343.97" y1="1726.12" x2="3399.04" y2="1709.41" style="stroke:#AC686C;stroke-opacity:0.80;stroke-width:8.64"/>
	<line x1="3426.64" y1="1701.12" x2="3451.51" y2="1693.70" style="stroke:#AC686C;stroke-opacity:0.80;stroke-width:8.64"/>
	<line x1="3451.51" y1="1693.70" x2="3482.70" y2="1699.14" style="stroke:#AC686C;stroke-opacity:0.80;stroke-width:8.64"/>
	<line x1="3511.03" y1="1703.97" x2="3567.84" y2="1713.87" style="stroke:#AC686C;stroke-opacity:0.80;stroke-width:8.64"/>
	<line x1="3596.18" y1="1718.82" x2="3623.65" y2="1723.52" style="stroke:#AC686C;stroke-opacity:0.80;stroke-width:8.64"/>
	<line x1="3623.65" y1="1723.52" x2="3653.10" y2="1720.43" style="stroke:#AC686C;stroke-opacity:0.80;stroke-width:8.64"/>
	<line x1="3681.81" y1="1717.33" x2="3738.98" y2="1711.27" style="stroke:#AC686C;stroke-opacity:0.80;stroke-width:8.64"/>
	<line x1="3767.69" y1="1708.17" x2="3795.66" y2="1705.33" style="stroke:#AC686C;stroke-opacity:0.80;stroke-width:8.64"/>
	<line x1="3795.66" y1="1705.33" x2="3795.66" y2="1675.87" style="stroke:#AC686C;stroke-opacity:0.80;stroke-width:8.64"/>
	<line x1="3795.66" y1="1647.04" x2="3795.66" y2="1589.49" style="stroke:#AC686C;stroke-opacity:0.80;stroke-width:8.64"/>
	<line x1="3795.66" y1="1560.66" x2="3795.66" y2="1503.11" style="stroke:#AC686C;stroke-opacity:0.80;stroke-width:8.64"/>
	<line x1="3795.66" y1="1474.28" x2="3795.66" y2="1416.73" style="stroke:#AC686C;stroke-opacity:0.80;stroke-width:8.64"/>
	<line x1="3795.66" y1="1387.90" x2="3795.66" y2="1330.35" style="stroke:#AC686C;stroke-opacity:0.80;stroke-width:8.64"/>
	<line x1="3795.66" y1="1301.52" x2="3795.66" y2="1243.97" style="stroke:#AC686C;stroke-opacity:0.80;stroke-width:8.64"/>
	<line x1="3795.66" y1="1215.14" x2="3795.66" y2="1157.47" style="stroke:#AC686C;stroke-opacity:0.80;stroke-width:8.64"/>
	<line x1="3789.35" y1="1136.80" x2="3733.17" y2="1149.67" style="stroke:#AC686C;stroke-opacity:0.80;stroke-width:8.64"/>
	<line x1="3705.07" y1="1156.23" x2="3649.02" y2="1169.23" style="stroke:#AC686C;stroke-opacity:0.80;stroke-width:8.64"/>
	<line x1="3620.80" y1="1175.41" x2="3563.75" y2="1182.84" style="stroke:#AC686C;stroke-opacity:0.80;stroke-width:8.64"/>
	<line x1="3535.17" y1="1186.55" x2="3478.12" y2="1194.10" style="stroke:#AC686C;stroke-opacity:0.80;stroke-width:8.64"/>
	<line x1="3450.03" y1="1198.80" x2="3406.09" y2="1236.05" style="stroke:#AC686C;stroke-opacity:0.80;stroke-width:8.64"/>
	<line x1="3384.07" y1="1254.74" x2="3340.14" y2="1291.99" style="stroke:#AC686C;stroke-opacity:0.80;stroke-width:8.64"/>
	<line x1="3318.23" y1="1310.55" x2="3279.50" y2="1343.35" style="stroke:#AC686C;stroke-opacity:0.80;stroke-width:8.64"/>
	<line x1="3279.50" y1="1343.35" x2="3272.69" y2="1342.48" style="stroke:#AC686C;stroke-opacity:0.80;stroke-width:8.64"/>
	<line x1="3244.11" y1="1338.52" x2="3187.06" y2="1330.73" style="stroke:#AC686C;stroke-opacity:0.80;stroke-width:8.64"/>
	<line x1="3158.47" y1="1326.89" x2="3107.36" y2="1319.83" style="stroke:#AC686C;stroke-opacity:0.80;stroke-width:8.64"/>
	<line x1="3107.36" y1="1319.83" x2="3101.55" y2="1320.95" style="stroke:#AC686C;stroke-opacity:0.80;stroke-width:8.64"/>
	<line x1="3073.21" y1="1326.64" x2="3016.90" y2="1338.03" style="stroke:#AC686C;stroke-opacity:0.80;stroke-width:8.64"/>
	<line x1="2988.56" y1="1343.72" x2="2935.35" y2="1354.49" style="stroke:#AC686C;stroke-opacity:0.80;stroke-width:8.64"/>
	<line x1="2935.35" y1="1354.49" x2="2932.26" y2="1353.62" style="stroke:#AC686C;stroke-opacity:0.80;stroke-width:8.64"/>
	<line x1="2904.54" y1="1345.58" x2="2849.34" y2="1329.49" style="stroke:#AC686C;stroke-opacity:0.80;stroke-width:8.64"/>
	<line x1="2821.62" y1="1321.44" x2="2766.31" y2="1305.36" style="stroke:#AC686C;stroke-opacity:0.80;stroke-width:8.64"/>
	<line x1="2737.84" y1="1307.34" x2="2680.67" y2="1313.89" style="stroke:#AC686C;stroke-opacity:0.80;stroke-width:8.64"/>
	<line x1="2651.96" y1="1317.11" x2="2594.79" y2="1323.67" style="stroke:#AC686C;stroke-opacity:0.80;stroke-width:8.64"/>
	<line x1="2565.96" y1="1325.16" x2="2508.41" y2="1327.88" style="stroke:#AC686C;stroke-opacity:0.80;stroke-width:8.64"/>
	<line x1="2479.70" y1="1329.24" x2="2422.16" y2="1331.96" style="stroke:#AC686C;stroke-opacity:0.80;stroke-width:8.64"/>
	<line x1="2393.94" y1="1337.41" x2="2337.64" y2="1349.41" style="stroke:#AC686C;stroke-opacity:0.80;stroke-width:8.64"/>
	<line x1="2309.42" y1="1355.35" x2="2253.12" y2="1367.23" style="stroke:#AC686C;stroke-opacity:0.80;stroke-width:8.64"/>
	<line x1="2224.90" y1="1373.05" x2="2168.47" y2="1384.43" style="stroke:#AC686C;stroke-opacity:0.80;stroke-width:8.64"/>
	<line x1="2140.13" y1="1390.25" x2="2083.70" y2="1401.64" style="stroke:#AC686C;stroke-opacity:0.80;stroke-width:8.64"/>
	<line x1="2055.24" y1="1402.13" x2="1997.70" y2="1398.54" style="stroke:#AC686C;stroke-opacity:0.80;stroke-width:8.64"/>
	<line x1="1968.99" y1="1396.69" x2="1911.57" y2="1393.10" style="stroke:#AC686C;stroke-opacity:0.80;stroke-width:8.64"/>
	<line x1="1882.73" y1="1391.24" x2="1825.31" y2="1387.65" style="stroke:#AC686C;stroke-opacity:0.80;stroke-width:8.64"/>
	<line x1="1796.60" y1="1385.92" x2="1739.06" y2="1382.33" style="stroke:#AC686C;stroke-opacity:0.80;stroke-width:8.64"/>
	<line x1="1712.82" y1="1371.94" x2="1662.33" y2="1344.34" style="stroke:#AC686C;stroke-opacity:0.80;stroke-width:8.64"/>
	<line x1="1636.96" y1="1330.48" x2="1586.47" y2="1302.88" style="stroke:#AC686C;stroke-opacity:0.80;stroke-width:8.64"/>
	<line x1="1561.23" y1="1289.02" x2="1558.76" y2="1287.66" style="stroke:#AC686C;stroke-opacity:0.80;stroke-width:8.64"/>
	<line x1="1558.76" y1="1287.66" x2="1505.42" y2="1275.16" style="stroke:#AC686C;stroke-opacity:0.80;stroke-width:8.64"/>
	<line x1="1477.45" y1="1268.60" x2="1421.39" y2="1255.48" style="stroke:#AC686C;stroke-opacity:0.80;stroke-width:8.64"/>
	<line x1="1393.42" y1="1248.92" x2="1386.62" y2="1247.32" style="stroke:#AC686C;stroke-opacity:0.80;stroke-width:8.64"/>
	<line x1="1386.62" y1="1247.32" x2="1336.62" y2="1255.36" style="stroke:#AC686C;stroke-opacity:0.80;stroke-width:8.64"/>
	<line x1="1308.16" y1="1259.94" x2="1251.36" y2="1268.97" style="stroke:#AC686C;stroke-opacity:0.80;stroke-width:8.64"/>
	<line x1="1222.90" y1="1273.43" x2="1214.48" y2="1274.79" style="stroke:#AC686C;stroke-opacity:0.80;stroke-width:8.64"/>
	<line x1="1214.48" y1="1274.79" x2="1166.10" y2="1266.50" style="stroke:#AC686C;stroke-opacity:0.80;stroke-width:8.64"/>
	<line x1="1137.76" y1="1261.55" x2="1081.08" y2="1251.89" style="stroke:#AC686C;stroke-opacity:0.80;stroke-width:8.64"/>
	<line x1="1052.62" y1="1246.94" x2="1042.47" y2="1245.21" style="stroke:#AC686C;stroke-opacity:0.80;stroke-width:8.64"/>
	<line x1="1042.47" y1="1245.21" x2="995.94" y2="1236.80" style="stroke:#AC686C;stroke-opacity:0.80;stroke-width:8.64"/>
	<line x1="967.60" y1="1231.72" x2="910.92" y2="1221.33" style="stroke:#AC686C;stroke-opacity:0.80;stroke-width:8.64"/>
	<line x1="882.59" y1="1216.25" x2="870.33" y2="1214.03" style="stroke:#AC686C;stroke-opacity:0.80;stroke-width:8.64"/>
	<line x1="870.33" y1="1214.03" x2="830.24" y2="1193.36" style="stroke:#AC686C;stroke-opacity:0.80;stroke-width:8.64"/>
	<line x1="804.50" y1="1180.12" x2="753.39" y2="1153.76" style="stroke:#AC686C;stroke-opacity:0.80;stroke-width:8.64"/>
	<line x1="727.77" y1="1140.64" x2="698.32" y2="1125.42" style="stroke:#AC686C;stroke-opacity:0.80;stroke-width:8.64"/>
	<line x1="698.32" y1="1125.42" x2="673.82" y2="1124.55" style="stroke:#AC686C;stroke-opacity:0.80;stroke-width:8.64"/>
	<line x1="645.11" y1="1123.44" x2="587.44" y2="1121.33" style="stroke:#AC686C;stroke-opacity:0.80;stroke-width:8.64"/>
	<line x1="558.61" y1="1120.22" x2="526.18" y2="1118.98" style="stroke:#AC686C;stroke-opacity:0.80;stroke-width:8.64"/>
	<line x1="526.18" y1="1118.98" x2="503.04" y2="1109.21" style="stroke:#AC686C;stroke-opacity:0.80;stroke-width:8.64"/>
	<line x1="476.44" y1="1097.94" x2="423.47" y2="1075.54" style="stroke:#AC686C;stroke-opacity:0.80;stroke-width:8.64"/>
	<line x1="396.87" y1="1064.41" x2="354.17" y2="1046.34" style="stroke:#AC686C;stroke-opacity:0.80;stroke-width:8.64"/>
	<line x1="354.17" y1="1046.34" x2="354.17" y2="1057.48" style="stroke:#AC686C;stroke-opacity:0.80;stroke-width:8.64"/>
	<line x1="354.17" y1="1086.31" x2="354.17" y2="1143.86" style="stroke:#AC686C;stroke-opacity:0.80;stroke-width:8.64"/>
	<line x1="354.17" y1="1172.69" x2="354.17" y2="1230.24" style="stroke:#AC686C;stroke-opacity:0.80;stroke-width:8.64"/>
	<line x1="354.17" y1="1259.07" x2="354.17" y2="1316.62" style="stroke:#AC686C;stroke-opacity:0.80;stroke-width:8.64"/>
	<line x1="354.17" y1="1345.45" x2="354.17" y2="1403.00" style="stroke:#AC686C;stroke-opacity:0.80;stroke-width:8.64"/>
	<line x1="354.17" y1="1431.83" x2="354.17" y2="1489.50" style="stroke:#AC686C;stroke-opacity:0.80;stroke-width:8.64"/>
	<path d=" M354.05 1278.50 L526.18 1362.78 L698.20 1377.63 L870.33 1364.02 L1042.35 1386.66 L1214.48 1402.26 L1386.49 1366.74 L1558.63 1394.21 L1730.77 1450.64 L2074.92 1491.85 L2246.93 1456.83 L2419.07 1430.22 L2591.08 1443.71 L2763.21 1439.88 L2935.23 1509.43 L3107.36 1500.14 L3279.38 1544.45 L3451.51 1445.69 L3623.52 1449.41 L3795.66 1420.45" stroke-linejoin="round" style="fill:none;stroke:#90353B;stroke-width:8.64"/>
	<defs>
		<path id="path_IMImRrWY" d="M354.17 2021.27 L354.17 2021.27 L526.18 1889.72 L698.32 1859.53 L870.33 1703.72 L1042.47 1653.97 L1214.48 1506.21 L1386.62 1408.57 L1558.76 1544.82 L1730.77 1556.70 L2074.92 1711.02 L2247.05 1635.04 L2419.07 1584.42 L2591.20 1567.47 L2763.21 1612.64 L2935.35 1711.64 L3107.36 1730.95 L3279.50 1668.57 L3451.51 1545.56 L3623.65 1301.89 L3795.66 1245.34 L3795.66 292.31 L3623.65 406.41 L3451.51 616.42 L3279.50 906.25 L3107.36 1027.78 L2935.35 1046.59 L2763.21 1107.97 L2591.20 1172.69 L2419.07 1207.22 L2247.05 1263.28 L2074.92 1352.01 L1730.77 1265.88 L1558.76 1174.80 L1386.62 965.03 L1214.48 1015.77 L1042.47 1088.42 L870.33 1100.79 L698.32 917.39 L526.18 937.44 L354.17 979.02 L354.17 2021.27 Z" stroke-linecap="round"/>
	</defs>
	<defs>
		<clipPath id="clipPath_jMnVOsic">
			<use xlink:href="#path_IMImRrWY"/>
		</clipPath>
	</defs>
	<use xlink:href="#path_IMImRrWY" style="stroke:none;fill:#486C8C;fill-opacity:0.10"/>
	<use xlink:href="#path_IMImRrWY" style="fill:none;stroke:#FFFFFF;stroke-width:11.52" clip-path="url(#clipPath_jMnVOsic)"/>
	<line x1="354.17" y1="2021.27" x2="354.17" y2="2021.27" style="stroke:#537593;stroke-opacity:0.80;stroke-width:8.64"/>
	<line x1="354.17" y1="2021.27" x2="399.96" y2="1986.25" style="stroke:#537593;stroke-opacity:0.80;stroke-width:8.64"/>
	<line x1="422.85" y1="1968.80" x2="468.52" y2="1933.78" style="stroke:#537593;stroke-opacity:0.80;stroke-width:8.64"/>
	<line x1="491.41" y1="1916.33" x2="526.18" y2="1889.72" style="stroke:#537593;stroke-opacity:0.80;stroke-width:8.64"/>
	<line x1="526.18" y1="1889.72" x2="539.80" y2="1887.37" style="stroke:#537593;stroke-opacity:0.80;stroke-width:8.64"/>
	<line x1="568.26" y1="1882.30" x2="624.94" y2="1872.40" style="stroke:#537593;stroke-opacity:0.80;stroke-width:8.64"/>
	<line x1="653.40" y1="1867.45" x2="698.32" y2="1859.53" style="stroke:#537593;stroke-opacity:0.80;stroke-width:8.64"/>
	<line x1="698.32" y1="1859.53" x2="707.11" y2="1851.48" style="stroke:#537593;stroke-opacity:0.80;stroke-width:8.64"/>
	<line x1="728.52" y1="1832.18" x2="771.21" y2="1793.56" style="stroke:#537593;stroke-opacity:0.80;stroke-width:8.64"/>
	<line x1="792.50" y1="1774.26" x2="835.19" y2="1735.52" style="stroke:#537593;stroke-opacity:0.80;stroke-width:8.64"/>
	<line x1="856.60" y1="1716.22" x2="870.33" y2="1703.72" style="stroke:#537593;stroke-opacity:0.80;stroke-width:8.64"/>
	<line x1="870.33" y1="1703.72" x2="907.83" y2="1692.83" style="stroke:#537593;stroke-opacity:0.80;stroke-width:8.64"/>
	<line x1="935.43" y1="1684.91" x2="990.74" y2="1668.82" style="stroke:#537593;stroke-opacity:0.80;stroke-width:8.64"/>
	<line x1="1018.46" y1="1660.90" x2="1042.47" y2="1653.97" style="stroke:#537593;stroke-opacity:0.80;stroke-width:8.64"/>
	<line x1="1042.47" y1="1653.97" x2="1067.22" y2="1632.68" style="stroke:#537593;stroke-opacity:0.80;stroke-width:8.64"/>
	<line x1="1089.00" y1="1613.87" x2="1132.68" y2="1576.38" style="stroke:#537593;stroke-opacity:0.80;stroke-width:8.64"/>
	<line x1="1154.59" y1="1557.57" x2="1198.27" y2="1520.19" style="stroke:#537593;stroke-opacity:0.80;stroke-width:8.64"/>
	<line x1="1220.92" y1="1502.50" x2="1271.04" y2="1474.16" style="stroke:#537593;stroke-opacity:0.80;stroke-width:8.64"/>
	<line x1="1296.03" y1="1459.92" x2="1346.15" y2="1431.46" style="stroke:#537593;stroke-opacity:0.80;stroke-width:8.64"/>
	<line x1="1371.15" y1="1417.35" x2="1386.62" y2="1408.57" style="stroke:#537593;stroke-opacity:0.80;stroke-width:8.64"/>
	<line x1="1386.62" y1="1408.57" x2="1417.80" y2="1433.32" style="stroke:#537593;stroke-opacity:0.80;stroke-width:8.64"/>
	<line x1="1440.45" y1="1451.14" x2="1485.62" y2="1486.90" style="stroke:#537593;stroke-opacity:0.80;stroke-width:8.64"/>
	<line x1="1508.27" y1="1504.85" x2="1553.31" y2="1540.49" style="stroke:#537593;stroke-opacity:0.80;stroke-width:8.64"/>
	<line x1="1580.54" y1="1546.30" x2="1638.08" y2="1550.26" style="stroke:#537593;stroke-opacity:0.80;stroke-width:8.64"/>
	<line x1="1666.79" y1="1552.37" x2="1724.21" y2="1556.33" style="stroke:#537593;stroke-opacity:0.80;stroke-width:8.64"/>
	<line x1="1751.06" y1="1565.86" x2="1803.66" y2="1589.37" style="stroke:#537593;stroke-opacity:0.80;stroke-width:8.64"/>
	<line x1="1829.89" y1="1601.13" x2="1882.48" y2="1624.76" style="stroke:#537593;stroke-opacity:0.80;stroke-width:8.64"/>
	<line x1="1908.72" y1="1636.52" x2="1961.31" y2="1660.16" style="stroke:#537593;stroke-opacity:0.80;stroke-width:8.64"/>
	<line x1="1987.67" y1="1671.91" x2="2040.14" y2="1695.43" style="stroke:#537593;stroke-opacity:0.80;stroke-width:8.64"/>
	<line x1="2066.38" y1="1707.18" x2="2074.92" y2="1711.02" style="stroke:#537593;stroke-opacity:0.80;stroke-width:8.64"/>
	<line x1="2074.92" y1="1711.02" x2="2118.97" y2="1691.59" style="stroke:#537593;stroke-opacity:0.80;stroke-width:8.64"/>
	<line x1="2145.45" y1="1679.96" x2="2198.05" y2="1656.69" style="stroke:#537593;stroke-opacity:0.80;stroke-width:8.64"/>
	<line x1="2224.41" y1="1645.06" x2="2247.05" y2="1635.04" style="stroke:#537593;stroke-opacity:0.80;stroke-width:8.64"/>
	<line x1="2247.05" y1="1635.04" x2="2278.49" y2="1625.75" style="stroke:#537593;stroke-opacity:0.80;stroke-width:8.64"/>
	<line x1="2306.20" y1="1617.59" x2="2361.40" y2="1601.38" style="stroke:#537593;stroke-opacity:0.80;stroke-width:8.64"/>
	<line x1="2389.12" y1="1593.21" x2="2419.07" y2="1584.42" style="stroke:#537593;stroke-opacity:0.80;stroke-width:8.64"/>
	<line x1="2419.07" y1="1584.42" x2="2445.30" y2="1581.82" style="stroke:#537593;stroke-opacity:0.80;stroke-width:8.64"/>
	<line x1="2474.01" y1="1579.10" x2="2531.31" y2="1573.41" style="stroke:#537593;stroke-opacity:0.80;stroke-width:8.64"/>
	<line x1="2560.02" y1="1570.56" x2="2591.20" y2="1567.47" style="stroke:#537593;stroke-opacity:0.80;stroke-width:8.64"/>
	<line x1="2591.20" y1="1567.47" x2="2616.57" y2="1574.15" style="stroke:#537593;stroke-opacity:0.80;stroke-width:8.64"/>
	<line x1="2644.41" y1="1581.45" x2="2700.10" y2="1596.05" style="stroke:#537593;stroke-opacity:0.80;stroke-width:8.64"/>
	<line x1="2727.95" y1="1603.36" x2="2763.21" y2="1612.64" style="stroke:#537593;stroke-opacity:0.80;stroke-width:8.64"/>
	<line x1="2763.21" y1="1612.64" x2="2781.53" y2="1623.16" style="stroke:#537593;stroke-opacity:0.80;stroke-width:8.64"/>
	<line x1="2806.53" y1="1637.51" x2="2856.40" y2="1666.22" style="stroke:#537593;stroke-opacity:0.80;stroke-width:8.64"/>
	<line x1="2881.39" y1="1680.58" x2="2931.27" y2="1709.29" style="stroke:#537593;stroke-opacity:0.80;stroke-width:8.64"/>
	<line x1="2959.23" y1="1714.36" x2="3016.53" y2="1720.67" style="stroke:#537593;stroke-opacity:0.80;stroke-width:8.64"/>
	<line x1="3045.12" y1="1723.89" x2="3102.29" y2="1730.45" style="stroke:#537593;stroke-opacity:0.80;stroke-width:8.64"/>
	<line x1="3129.76" y1="1722.90" x2="3183.84" y2="1703.22" style="stroke:#537593;stroke-opacity:0.80;stroke-width:8.64"/>
	<line x1="3210.94" y1="1693.45" x2="3265.02" y2="1673.77" style="stroke:#537593;stroke-opacity:0.80;stroke-width:8.64"/>
	<line x1="3290.51" y1="1660.65" x2="3337.29" y2="1627.24" style="stroke:#537593;stroke-opacity:0.80;stroke-width:8.64"/>
	<line x1="3360.80" y1="1610.41" x2="3407.58" y2="1577.00" style="stroke:#537593;stroke-opacity:0.80;stroke-width:8.64"/>
	<line x1="3431.09" y1="1560.17" x2="3451.51" y2="1545.56" style="stroke:#537593;stroke-opacity:0.80;stroke-width:8.64"/>
	<line x1="3451.51" y1="1545.56" x2="3470.20" y2="1519.08" style="stroke:#537593;stroke-opacity:0.80;stroke-width:8.64"/>
	<line x1="3486.90" y1="1495.57" x2="3520.07" y2="1448.54" style="stroke:#537593;stroke-opacity:0.80;stroke-width:8.64"/>
	<line x1="3536.65" y1="1425.03" x2="3569.94" y2="1378.00" style="stroke:#537593;stroke-opacity:0.80;stroke-width:8.64"/>
	<line x1="3586.52" y1="1354.49" x2="3619.69" y2="1307.46" style="stroke:#537593;stroke-opacity:0.80;stroke-width:8.64"/>
	<line x1="3644.56" y1="1294.96" x2="3699.26" y2="1277.02" style="stroke:#537593;stroke-opacity:0.80;stroke-width:8.64"/>
	<line x1="3726.61" y1="1267.98" x2="3781.30" y2="1250.04" style="stroke:#537593;stroke-opacity:0.80;stroke-width:8.64"/>
	<line x1="3795.66" y1="1231.60" x2="3795.66" y2="1174.05" style="stroke:#537593;stroke-opacity:0.80;stroke-width:8.64"/>
	<line x1="3795.66" y1="1145.22" x2="3795.66" y2="1087.67" style="stroke:#537593;stroke-opacity:0.80;stroke-width:8.64"/>
	<line x1="3795.66" y1="1058.84" x2="3795.66" y2="1001.29" style="stroke:#537593;stroke-opacity:0.80;stroke-width:8.64"/>
	<line x1="3795.66" y1="972.46" x2="3795.66" y2="914.91" style="stroke:#537593;stroke-opacity:0.80;stroke-width:8.64"/>
	<line x1="3795.66" y1="886.08" x2="3795.66" y2="828.53" style="stroke:#537593;stroke-opacity:0.80;stroke-width:8.64"/>
	<line x1="3795.66" y1="799.70" x2="3795.66" y2="742.03" style="stroke:#537593;stroke-opacity:0.80;stroke-width:8.64"/>
	<line x1="3795.66" y1="713.32" x2="3795.66" y2="655.65" style="stroke:#537593;stroke-opacity:0.80;stroke-width:8.64"/>
	<line x1="3795.66" y1="626.81" x2="3795.66" y2="569.27" style="stroke:#537593;stroke-opacity:0.80;stroke-width:8.64"/>
	<line x1="3795.66" y1="540.43" x2="3795.66" y2="482.89" style="stroke:#537593;stroke-opacity:0.80;stroke-width:8.64"/>
	<line x1="3795.66" y1="454.05" x2="3795.66" y2="396.51" style="stroke:#537593;stroke-opacity:0.80;stroke-width:8.64"/>
	<line x1="3795.66" y1="367.67" x2="3795.66" y2="310.13" style="stroke:#537593;stroke-opacity:0.80;stroke-width:8.64"/>
	<line x1="3786.50" y1="298.37" x2="3738.49" y2="330.18" style="stroke:#537593;stroke-opacity:0.80;stroke-width:8.64"/>
	<line x1="3714.48" y1="346.14" x2="3666.47" y2="377.94" style="stroke:#537593;stroke-opacity:0.80;stroke-width:8.64"/>
	<line x1="3642.46" y1="393.91" x2="3623.65" y2="406.41" style="stroke:#537593;stroke-opacity:0.80;stroke-width:8.64"/>
	<line x1="3623.65" y1="406.41" x2="3601.50" y2="433.39" style="stroke:#537593;stroke-opacity:0.80;stroke-width:8.64"/>
	<line x1="3583.18" y1="455.79" x2="3546.68" y2="500.21" style="stroke:#537593;stroke-opacity:0.80;stroke-width:8.64"/>
	<line x1="3528.36" y1="522.61" x2="3491.98" y2="567.16" style="stroke:#537593;stroke-opacity:0.80;stroke-width:8.64"/>
	<line x1="3473.66" y1="589.44" x2="3451.51" y2="616.42" style="stroke:#537593;stroke-opacity:0.80;stroke-width:8.64"/>
	<line x1="3451.51" y1="616.42" x2="3440.00" y2="635.85" style="stroke:#537593;stroke-opacity:0.80;stroke-width:8.64"/>
	<line x1="3425.28" y1="660.72" x2="3395.95" y2="710.22" style="stroke:#537593;stroke-opacity:0.80;stroke-width:8.64"/>
	<line x1="3381.22" y1="734.97" x2="3351.77" y2="784.48" style="stroke:#537593;stroke-opacity:0.80;stroke-width:8.64"/>
	<line x1="3337.17" y1="809.23" x2="3307.71" y2="858.73" style="stroke:#537593;stroke-opacity:0.80;stroke-width:8.64"/>
	<line x1="3292.99" y1="883.60" x2="3279.50" y2="906.25" style="stroke:#537593;stroke-opacity:0.80;stroke-width:8.64"/>
	<line x1="3279.50" y1="906.25" x2="3254.13" y2="924.19" style="stroke:#537593;stroke-opacity:0.80;stroke-width:8.64"/>
	<line x1="3230.62" y1="940.90" x2="3183.59" y2="974.07" style="stroke:#537593;stroke-opacity:0.80;stroke-width:8.64"/>
	<line x1="3159.96" y1="990.77" x2="3112.93" y2="1023.82" style="stroke:#537593;stroke-opacity:0.80;stroke-width:8.64"/>
	<line x1="3085.46" y1="1030.13" x2="3028.29" y2="1036.44" style="stroke:#537593;stroke-opacity:0.80;stroke-width:8.64"/>
	<line x1="2999.58" y1="1039.53" x2="2942.28" y2="1045.84" style="stroke:#537593;stroke-opacity:0.80;stroke-width:8.64"/>
	<line x1="2914.81" y1="1053.89" x2="2860.61" y2="1073.32" style="stroke:#537593;stroke-opacity:0.80;stroke-width:8.64"/>
	<line x1="2833.50" y1="1082.97" x2="2779.30" y2="1102.28" style="stroke:#537593;stroke-opacity:0.80;stroke-width:8.64"/>
	<line x1="2752.20" y1="1112.18" x2="2698.37" y2="1132.47" style="stroke:#537593;stroke-opacity:0.80;stroke-width:8.64"/>
	<line x1="2671.39" y1="1142.50" x2="2617.44" y2="1162.79" style="stroke:#537593;stroke-opacity:0.80;stroke-width:8.64"/>
	<line x1="2590.34" y1="1172.94" x2="2533.91" y2="1184.20" style="stroke:#537593;stroke-opacity:0.80;stroke-width:8.64"/>
	<line x1="2505.69" y1="1189.89" x2="2449.14" y2="1201.16" style="stroke:#537593;stroke-opacity:0.80;stroke-width:8.64"/>
	<line x1="2420.92" y1="1206.85" x2="2419.07" y2="1207.22" style="stroke:#537593;stroke-opacity:0.80;stroke-width:8.64"/>
	<line x1="2419.07" y1="1207.22" x2="2366.10" y2="1224.54" style="stroke:#537593;stroke-opacity:0.80;stroke-width:8.64"/>
	<line x1="2338.75" y1="1233.45" x2="2284.05" y2="1251.28" style="stroke:#537593;stroke-opacity:0.80;stroke-width:8.64"/>
	<line x1="2256.58" y1="1260.19" x2="2247.05" y2="1263.28" style="stroke:#537593;stroke-opacity:0.80;stroke-width:8.64"/>
	<line x1="2247.05" y1="1263.28" x2="2204.85" y2="1285.06" style="stroke:#537593;stroke-opacity:0.80;stroke-width:8.64"/>
	<line x1="2179.24" y1="1298.30" x2="2128.01" y2="1324.66" style="stroke:#537593;stroke-opacity:0.80;stroke-width:8.64"/>
	<line x1="2102.51" y1="1337.78" x2="2074.92" y2="1352.01" style="stroke:#537593;stroke-opacity:0.80;stroke-width:8.64"/>
	<line x1="2074.92" y1="1352.01" x2="2049.18" y2="1345.58" style="stroke:#537593;stroke-opacity:0.80;stroke-width:8.64"/>
	<line x1="2021.21" y1="1338.52" x2="1965.27" y2="1324.54" style="stroke:#537593;stroke-opacity:0.80;stroke-width:8.64"/>
	<line x1="1937.31" y1="1317.61" x2="1881.49" y2="1303.62" style="stroke:#537593;stroke-opacity:0.80;stroke-width:8.64"/>
	<line x1="1853.53" y1="1296.57" x2="1797.72" y2="1282.59" style="stroke:#537593;stroke-opacity:0.80;stroke-width:8.64"/>
	<line x1="1769.75" y1="1275.65" x2="1730.77" y2="1265.88" style="stroke:#537593;stroke-opacity:0.80;stroke-width:8.64"/>
	<line x1="1730.77" y1="1265.88" x2="1715.30" y2="1257.71" style="stroke:#537593;stroke-opacity:0.80;stroke-width:8.64"/>
	<line x1="1689.93" y1="1244.22" x2="1639.07" y2="1217.24" style="stroke:#537593;stroke-opacity:0.80;stroke-width:8.64"/>
	<line x1="1613.58" y1="1203.88" x2="1562.71" y2="1176.90" style="stroke:#537593;stroke-opacity:0.80;stroke-width:8.64"/>
	<line x1="1543.29" y1="1155.86" x2="1506.78" y2="1111.43" style="stroke:#537593;stroke-opacity:0.80;stroke-width:8.64"/>
	<line x1="1488.46" y1="1089.16" x2="1451.96" y2="1044.61" style="stroke:#537593;stroke-opacity:0.80;stroke-width:8.64"/>
	<line x1="1433.64" y1="1022.33" x2="1397.14" y2="977.78" style="stroke:#537593;stroke-opacity:0.80;stroke-width:8.64"/>
	<line x1="1374.74" y1="968.50" x2="1319.55" y2="984.71" style="stroke:#537593;stroke-opacity:0.80;stroke-width:8.64"/>
	<line x1="1291.95" y1="992.88" x2="1236.76" y2="1009.21" style="stroke:#537593;stroke-opacity:0.80;stroke-width:8.64"/>
	<line x1="1209.29" y1="1018.00" x2="1156.32" y2="1040.40" style="stroke:#537593;stroke-opacity:0.80;stroke-width:8.64"/>
	<line x1="1129.71" y1="1051.54" x2="1076.75" y2="1074.06" style="stroke:#537593;stroke-opacity:0.80;stroke-width:8.64"/>
	<line x1="1050.14" y1="1085.20" x2="1042.47" y2="1088.42" style="stroke:#537593;stroke-opacity:0.80;stroke-width:8.64"/>
	<line x1="1042.47" y1="1088.42" x2="993.34" y2="1092.00" style="stroke:#537593;stroke-opacity:0.80;stroke-width:8.64"/>
	<line x1="964.63" y1="1093.98" x2="907.09" y2="1098.19" style="stroke:#537593;stroke-opacity:0.80;stroke-width:8.64"/>
	<line x1="878.50" y1="1100.30" x2="870.33" y2="1100.79" style="stroke:#537593;stroke-opacity:0.80;stroke-width:8.64"/>
	<line x1="870.33" y1="1100.79" x2="836.55" y2="1064.78" style="stroke:#537593;stroke-opacity:0.80;stroke-width:8.64"/>
	<line x1="816.75" y1="1043.74" x2="777.40" y2="1001.79" style="stroke:#537593;stroke-opacity:0.80;stroke-width:8.64"/>
	<line x1="757.72" y1="980.75" x2="718.37" y2="938.80" style="stroke:#537593;stroke-opacity:0.80;stroke-width:8.64"/>
	<line x1="698.57" y1="917.76" x2="698.32" y2="917.39" style="stroke:#537593;stroke-opacity:0.80;stroke-width:8.64"/>
	<line x1="698.32" y1="917.39" x2="641.52" y2="923.95" style="stroke:#537593;stroke-opacity:0.80;stroke-width:8.64"/>
	<line x1="612.93" y1="927.29" x2="555.76" y2="933.97" style="stroke:#537593;stroke-opacity:0.80;stroke-width:8.64"/>
	<line x1="527.17" y1="937.31" x2="526.18" y2="937.44" style="stroke:#537593;stroke-opacity:0.80;stroke-width:8.64"/>
	<line x1="526.18" y1="937.44" x2="471.24" y2="950.68" style="stroke:#537593;stroke-opacity:0.80;stroke-width:8.64"/>
	<line x1="443.15" y1="957.48" x2="387.21" y2="971.10" style="stroke:#537593;stroke-opacity:0.80;stroke-width:8.64"/>
	<line x1="359.25" y1="977.78" x2="354.17" y2="979.02" style="stroke:#537593;stroke-opacity:0.80;stroke-width:8.64"/>
	<line x1="354.17" y1="979.02" x2="354.17" y2="1031.36" style="stroke:#537593;stroke-opacity:0.80;stroke-width:8.64"/>
	<line x1="354.17" y1="1060.20" x2="354.17" y2="1117.74" style="stroke:#537593;stroke-opacity:0.80;stroke-width:8.64"/>
	<line x1="354.17" y1="1146.58" x2="354.17" y2="1204.25" style="stroke:#537593;stroke-opacity:0.80;stroke-width:8.64"/>
	<line x1="354.17" y1="1232.96" x2="354.17" y2="1290.63" style="stroke:#537593;stroke-opacity:0.80;stroke-width:8.64"/>
	<line x1="354.17" y1="1319.46" x2="354.17" y2="1377.01" style="stroke:#537593;stroke-opacity:0.80;stroke-width:8.64"/>
	<line x1="354.17" y1="1405.84" x2="354.17" y2="1463.39" style="stroke:#537593;stroke-opacity:0.80;stroke-width:8.64"/>
	<line x1="354.17" y1="1492.22" x2="354.17" y2="1549.77" style="stroke:#537593;stroke-opacity:0.80;stroke-width:8.64"/>
	<line x1="354.17" y1="1578.60" x2="354.17" y2="1636.15" style="stroke:#537593;stroke-opacity:0.80;stroke-width:8.64"/>
	<line x1="354.17" y1="1664.98" x2="354.17" y2="1722.53" style="stroke:#537593;stroke-opacity:0.80;stroke-width:8.64"/>
	<line x1="354.17" y1="1751.36" x2="354.17" y2="1808.91" style="stroke:#537593;stroke-opacity:0.80;stroke-width:8.64"/>
	<line x1="354.17" y1="1837.74" x2="354.17" y2="1895.29" style="stroke:#537593;stroke-opacity:0.80;stroke-width:8.64"/>
	<line x1="354.17" y1="1924.13" x2="354.17" y2="1981.67" style="stroke:#537593;stroke-opacity:0.80;stroke-width:8.64"/>
	<line x1="354.17" y1="2010.51" x2="354.17" y2="2021.27" style="stroke:#537593;stroke-opacity:0.80;stroke-width:8.64"/>
	<path d=" M354.05 1500.14 L526.18 1413.64 L698.20 1388.52 L870.33 1402.26 L1042.35 1371.32 L1214.48 1261.05 L1386.49 1186.92 L1558.63 1359.81 L1730.77 1411.41 L2074.92 1531.58 L2246.93 1449.28 L2419.07 1395.94 L2591.08 1370.08 L2763.21 1360.43 L2935.23 1379.24 L3107.36 1379.48 L3279.38 1287.54 L3451.51 1080.99 L3623.52 854.27 L3795.66 768.88" stroke-linejoin="round" style="fill:none;stroke:#1A476F;stroke-width:8.64"/>
	<line x1="290.81" y1="2233.63" x2="290.81" y2="100.86" style="stroke:#000000;stroke-width:5.76"/>
	<line x1="290.81" y1="2170.27" x2="250.84" y2="2170.27" style="stroke:#000000;stroke-width:5.76"/>
	<text x="200.73" y="2170.27" style="font-family:'Helvetica';font-size:99.99px;fill:#000000" transform="rotate(-90 200.73,2170.27)" text-anchor="middle">-.5</text>
	<line x1="290.81" y1="1501.63" x2="250.84" y2="1501.63" style="stroke:#000000;stroke-width:5.76"/>
	<text x="200.73" y="1501.63" style="font-family:'Helvetica';font-size:99.99px;fill:#000000" transform="rotate(-90 200.73,1501.63)" text-anchor="middle">0</text>
	<line x1="290.81" y1="832.86" x2="250.84" y2="832.86" style="stroke:#000000;stroke-width:5.76"/>
	<text x="200.73" y="832.86" style="font-family:'Helvetica';font-size:99.99px;fill:#000000" transform="rotate(-90 200.73,832.86)" text-anchor="middle">.5</text>
	<line x1="290.81" y1="164.22" x2="250.84" y2="164.22" style="stroke:#000000;stroke-width:5.76"/>
	<text x="200.73" y="164.22" style="font-family:'Helvetica';font-size:99.99px;fill:#000000" transform="rotate(-90 200.73,164.22)" text-anchor="middle">1</text>
	<line x1="290.81" y1="2233.63" x2="3859.02" y2="2233.63" style="stroke:#000000;stroke-width:5.76"/>
	<line x1="354.17" y1="2233.63" x2="354.17" y2="2273.73" style="stroke:#000000;stroke-width:5.76"/>
	<text x="354.17" y="2363.59" style="font-family:'Helvetica';font-size:99.99px;fill:#000000" text-anchor="middle">-10</text>
	<line x1="1214.48" y1="2233.63" x2="1214.48" y2="2273.73" style="stroke:#000000;stroke-width:5.76"/>
	<text x="1214.48" y="2363.59" style="font-family:'Helvetica';font-size:99.99px;fill:#000000" text-anchor="middle">-5</text>
	<line x1="2074.92" y1="2233.63" x2="2074.92" y2="2273.73" style="stroke:#000000;stroke-width:5.76"/>
	<text x="2074.92" y="2363.59" style="font-family:'Helvetica';font-size:99.99px;fill:#000000" text-anchor="middle">0</text>
	<line x1="2935.35" y1="2233.63" x2="2935.35" y2="2273.73" style="stroke:#000000;stroke-width:5.76"/>
	<text x="2935.35" y="2363.59" style="font-family:'Helvetica';font-size:99.99px;fill:#000000" text-anchor="middle">5</text>
	<line x1="3795.66" y1="2233.63" x2="3795.66" y2="2273.73" style="stroke:#000000;stroke-width:5.76"/>
	<text x="3795.66" y="2363.59" style="font-family:'Helvetica';font-size:99.99px;fill:#000000" text-anchor="middle">10</text>
	<text x="2074.92" y="2473.60" style="font-family:'Helvetica';font-size:99.99px;fill:#000000" text-anchor="middle">x</text>
	<rect x="1212.38" y="2558.24" width="1725.08" height="186.37" style="fill:#FFFFFF"/>
	<rect x="1215.26" y="2561.12" width="1719.32" height="180.61" style="fill:none;stroke:#000000;stroke-width:5.76"/>
	<line x1="1255.57" y1="2651.43" x2="1629.91" y2="2651.43" style="stroke:#90353B;stroke-width:8.64"/>
	<line x1="2209.06" y1="2651.43" x2="2583.53" y2="2651.43" style="stroke:#1A476F;stroke-width:8.64"/>
	<text x="1689.93" y="2686.46" style="font-family:'Helvetica';font-size:99.99px;fill:#000000">Female </text>
	<text x="2643.42" y="2686.46" style="font-family:'Helvetica';font-size:99.99px;fill:#000000">Male </text>
</svg>
