<?xml version="1.0" encoding="UTF-8" standalone="no"?>
<!-- This is a Stata 16.0 generated SVG file (http://www.stata.com) -->

<svg version="1.1" width="5.50in" height="4.00in" viewBox="0 0 3960 2880" xmlns="http://www.w3.org/2000/svg" xmlns:xlink="http://www.w3.org/1999/xlink">
	<desc>Stata Graph - Graph</desc>
	<rect x="0" y="0" width="3960" height="2880" style="fill:#FFFFFF;stroke:none"/>
	<rect x="0.00" y="0.00" width="3959.88" height="2880.00" style="fill:#FFFFFF"/>
	<rect x="2.88" y="2.88" width="3954.12" height="2874.24" style="fill:none;stroke:#FFFFFF;stroke-width:5.76"/>
	<rect x="293.69" y="103.74" width="3562.45" height="2127.01" style="fill:none;stroke:#000000;stroke-width:5.76"/>
	<line x1="354.17" y1="1552.62" x2="354.17" y2="999.31" style="stroke:#408840;stroke-opacity:0.80;stroke-width:8.64"/>
	<line x1="332.14" y1="999.31" x2="376.20" y2="999.31" stroke-linecap="round" style="stroke:#408840;stroke-opacity:0.80;stroke-width:8.64"/>
	<line x1="332.14" y1="1552.62" x2="376.20" y2="1552.62" stroke-linecap="round" style="stroke:#408840;stroke-opacity:0.80;stroke-width:8.64"/>
	<line x1="526.18" y1="1490.74" x2="526.18" y2="988.67" style="stroke:#408840;stroke-opacity:0.80;stroke-width:8.64"/>
	<line x1="504.16" y1="988.67" x2="548.21" y2="988.67" stroke-linecap="round" style="stroke:#408840;stroke-opacity:0.80;stroke-width:8.64"/>
	<line x1="504.16" y1="1490.74" x2="548.21" y2="1490.74" stroke-linecap="round" style="stroke:#408840;stroke-opacity:0.80;stroke-width:8.64"/>
	<line x1="698.32" y1="1477.50" x2="698.32" y2="999.81" style="stroke:#408840;stroke-opacity:0.80;stroke-width:8.64"/>
	<line x1="676.29" y1="999.81" x2="720.35" y2="999.81" stroke-linecap="round" style="stroke:#408840;stroke-opacity:0.80;stroke-width:8.64"/>
	<line x1="676.29" y1="1477.50" x2="720.35" y2="1477.50" stroke-linecap="round" style="stroke:#408840;stroke-opacity:0.80;stroke-width:8.64"/>
	<line x1="870.33" y1="1432.70" x2="870.33" y2="979.14" style="stroke:#408840;stroke-opacity:0.80;stroke-width:8.64"/>
	<line x1="848.31" y1="979.14" x2="892.36" y2="979.14" stroke-linecap="round" style="stroke:#408840;stroke-opacity:0.80;stroke-width:8.64"/>
	<line x1="848.31" y1="1432.70" x2="892.36" y2="1432.70" stroke-linecap="round" style="stroke:#408840;stroke-opacity:0.80;stroke-width:8.64"/>
	<line x1="1042.47" y1="1436.41" x2="1042.47" y2="1017.38" style="stroke:#408840;stroke-opacity:0.80;stroke-width:8.64"/>
	<line x1="1020.44" y1="1017.38" x2="1064.50" y2="1017.38" stroke-linecap="round" style="stroke:#408840;stroke-opacity:0.80;stroke-width:8.64"/>
	<line x1="1020.44" y1="1436.41" x2="1064.50" y2="1436.41" stroke-linecap="round" style="stroke:#408840;stroke-opacity:0.80;stroke-width:8.64"/>
	<line x1="1214.48" y1="1425.27" x2="1214.48" y2="1033.22" style="stroke:#408840;stroke-opacity:0.80;stroke-width:8.64"/>
	<line x1="1192.45" y1="1033.22" x2="1236.51" y2="1033.22" stroke-linecap="round" style="stroke:#408840;stroke-opacity:0.80;stroke-width:8.64"/>
	<line x1="1192.45" y1="1425.27" x2="1236.51" y2="1425.27" stroke-linecap="round" style="stroke:#408840;stroke-opacity:0.80;stroke-width:8.64"/>
	<line x1="1386.62" y1="1411.41" x2="1386.62" y2="1071.96" style="stroke:#408840;stroke-opacity:0.80;stroke-width:8.64"/>
	<line x1="1364.59" y1="1071.96" x2="1408.65" y2="1071.96" stroke-linecap="round" style="stroke:#408840;stroke-opacity:0.80;stroke-width:8.64"/>
	<line x1="1364.59" y1="1411.41" x2="1408.65" y2="1411.41" stroke-linecap="round" style="stroke:#408840;stroke-opacity:0.80;stroke-width:8.64"/>
	<line x1="1558.76" y1="1348.92" x2="1558.76" y2="1108.46" style="stroke:#408840;stroke-opacity:0.80;stroke-width:8.64"/>
	<line x1="1536.73" y1="1108.46" x2="1580.78" y2="1108.46" stroke-linecap="round" style="stroke:#408840;stroke-opacity:0.80;stroke-width:8.64"/>
	<line x1="1536.73" y1="1348.92" x2="1580.78" y2="1348.92" stroke-linecap="round" style="stroke:#408840;stroke-opacity:0.80;stroke-width:8.64"/>
	<line x1="1730.77" y1="1310.55" x2="1730.77" y2="1142.00" style="stroke:#408840;stroke-opacity:0.80;stroke-width:8.64"/>
	<line x1="1708.74" y1="1142.00" x2="1752.80" y2="1142.00" stroke-linecap="round" style="stroke:#408840;stroke-opacity:0.80;stroke-width:8.64"/>
	<line x1="1708.74" y1="1310.55" x2="1752.80" y2="1310.55" stroke-linecap="round" style="stroke:#408840;stroke-opacity:0.80;stroke-width:8.64"/>
	<line x1="1902.90" y1="1231.35" x2="1902.90" y2="1231.35" style="stroke:#408840;stroke-opacity:0.80;stroke-width:8.64"/>
	<line x1="1880.88" y1="1231.35" x2="1924.93" y2="1231.35" stroke-linecap="round" style="stroke:#408840;stroke-opacity:0.80;stroke-width:8.64"/>
	<line x1="1880.88" y1="1231.35" x2="1924.93" y2="1231.35" stroke-linecap="round" style="stroke:#408840;stroke-opacity:0.80;stroke-width:8.64"/>
	<line x1="2074.92" y1="1436.66" x2="2074.92" y2="1021.34" style="stroke:#408840;stroke-opacity:0.80;stroke-width:8.64"/>
	<line x1="2052.89" y1="1021.34" x2="2096.94" y2="1021.34" stroke-linecap="round" style="stroke:#408840;stroke-opacity:0.80;stroke-width:8.64"/>
	<line x1="2052.89" y1="1436.66" x2="2096.94" y2="1436.66" stroke-linecap="round" style="stroke:#408840;stroke-opacity:0.80;stroke-width:8.64"/>
	<line x1="2247.05" y1="1411.29" x2="2247.05" y2="1011.19" style="stroke:#408840;stroke-opacity:0.80;stroke-width:8.64"/>
	<line x1="2225.03" y1="1011.19" x2="2269.08" y2="1011.19" stroke-linecap="round" style="stroke:#408840;stroke-opacity:0.80;stroke-width:8.64"/>
	<line x1="2225.03" y1="1411.29" x2="2269.08" y2="1411.29" stroke-linecap="round" style="stroke:#408840;stroke-opacity:0.80;stroke-width:8.64"/>
	<line x1="2419.07" y1="1416.36" x2="2419.07" y2="1023.94" style="stroke:#408840;stroke-opacity:0.80;stroke-width:8.64"/>
	<line x1="2397.04" y1="1023.94" x2="2441.09" y2="1023.94" stroke-linecap="round" style="stroke:#408840;stroke-opacity:0.80;stroke-width:8.64"/>
	<line x1="2397.04" y1="1416.36" x2="2441.09" y2="1416.36" stroke-linecap="round" style="stroke:#408840;stroke-opacity:0.80;stroke-width:8.64"/>
	<line x1="2591.20" y1="1424.28" x2="2591.20" y2="1030.50" style="stroke:#408840;stroke-opacity:0.80;stroke-width:8.64"/>
	<line x1="2569.17" y1="1030.50" x2="2613.23" y2="1030.50" stroke-linecap="round" style="stroke:#408840;stroke-opacity:0.80;stroke-width:8.64"/>
	<line x1="2569.17" y1="1424.28" x2="2613.23" y2="1424.28" stroke-linecap="round" style="stroke:#408840;stroke-opacity:0.80;stroke-width:8.64"/>
	<line x1="2763.21" y1="1375.03" x2="2763.21" y2="986.69" style="stroke:#408840;stroke-opacity:0.80;stroke-width:8.64"/>
	<line x1="2741.19" y1="986.69" x2="2785.24" y2="986.69" stroke-linecap="round" style="stroke:#408840;stroke-opacity:0.80;stroke-width:8.64"/>
	<line x1="2741.19" y1="1375.03" x2="2785.24" y2="1375.03" stroke-linecap="round" style="stroke:#408840;stroke-opacity:0.80;stroke-width:8.64"/>
	<line x1="2935.35" y1="1406.09" x2="2935.35" y2="985.70" style="stroke:#408840;stroke-opacity:0.80;stroke-width:8.64"/>
	<line x1="2913.32" y1="985.70" x2="2957.38" y2="985.70" stroke-linecap="round" style="stroke:#408840;stroke-opacity:0.80;stroke-width:8.64"/>
	<line x1="2913.32" y1="1406.09" x2="2957.38" y2="1406.09" stroke-linecap="round" style="stroke:#408840;stroke-opacity:0.80;stroke-width:8.64"/>
	<line x1="3107.36" y1="1364.51" x2="3107.36" y2="917.51" style="stroke:#408840;stroke-opacity:0.80;stroke-width:8.64"/>
	<line x1="3085.34" y1="917.51" x2="3129.39" y2="917.51" stroke-linecap="round" style="stroke:#408840;stroke-opacity:0.80;stroke-width:8.64"/>
	<line x1="3085.34" y1="1364.51" x2="3129.39" y2="1364.51" stroke-linecap="round" style="stroke:#408840;stroke-opacity:0.80;stroke-width:8.64"/>
	<line x1="3279.50" y1="1432.33" x2="3279.50" y2="963.42" style="stroke:#408840;stroke-opacity:0.80;stroke-width:8.64"/>
	<line x1="3257.47" y1="963.42" x2="3301.53" y2="963.42" stroke-linecap="round" style="stroke:#408840;stroke-opacity:0.80;stroke-width:8.64"/>
	<line x1="3257.47" y1="1432.33" x2="3301.53" y2="1432.33" stroke-linecap="round" style="stroke:#408840;stroke-opacity:0.80;stroke-width:8.64"/>
	<line x1="3451.51" y1="1462.03" x2="3451.51" y2="961.82" style="stroke:#408840;stroke-opacity:0.80;stroke-width:8.64"/>
	<line x1="3429.48" y1="961.82" x2="3473.54" y2="961.82" stroke-linecap="round" style="stroke:#408840;stroke-opacity:0.80;stroke-width:8.64"/>
	<line x1="3429.48" y1="1462.03" x2="3473.54" y2="1462.03" stroke-linecap="round" style="stroke:#408840;stroke-opacity:0.80;stroke-width:8.64"/>
	<line x1="3623.65" y1="1533.68" x2="3623.65" y2="997.95" style="stroke:#408840;stroke-opacity:0.80;stroke-width:8.64"/>
	<line x1="3601.62" y1="997.95" x2="3645.68" y2="997.95" stroke-linecap="round" style="stroke:#408840;stroke-opacity:0.80;stroke-width:8.64"/>
	<line x1="3601.62" y1="1533.68" x2="3645.68" y2="1533.68" stroke-linecap="round" style="stroke:#408840;stroke-opacity:0.80;stroke-width:8.64"/>
	<line x1="3795.66" y1="1601.62" x2="3795.66" y2="1031.36" style="stroke:#408840;stroke-opacity:0.80;stroke-width:8.64"/>
	<line x1="3773.63" y1="1031.36" x2="3817.69" y2="1031.36" stroke-linecap="round" style="stroke:#408840;stroke-opacity:0.80;stroke-width:8.64"/>
	<line x1="3773.63" y1="1601.62" x2="3817.69" y2="1601.62" stroke-linecap="round" style="stroke:#408840;stroke-opacity:0.80;stroke-width:8.64"/>
	<circle cx="354.05" cy="1276.03" r="26.35" style="fill:#006000"/>
	<circle cx="354.05" cy="1276.03" r="22.03" style="fill:none;stroke:#006000;stroke-width:8.64"/>
	<circle cx="526.18" cy="1239.77" r="26.35" style="fill:#006000"/>
	<circle cx="526.18" cy="1239.77" r="22.03" style="fill:none;stroke:#006000;stroke-width:8.64"/>
	<circle cx="698.20" cy="1238.78" r="26.35" style="fill:#006000"/>
	<circle cx="698.20" cy="1238.78" r="22.03" style="fill:none;stroke:#006000;stroke-width:8.64"/>
	<circle cx="870.33" cy="1205.98" r="26.35" style="fill:#006000"/>
	<circle cx="870.33" cy="1205.98" r="22.03" style="fill:none;stroke:#006000;stroke-width:8.64"/>
	<circle cx="1042.35" cy="1227.02" r="26.35" style="fill:#006000"/>
	<circle cx="1042.35" cy="1227.02" r="22.03" style="fill:none;stroke:#006000;stroke-width:8.64"/>
	<circle cx="1214.48" cy="1229.37" r="26.35" style="fill:#006000"/>
	<circle cx="1214.48" cy="1229.37" r="22.03" style="fill:none;stroke:#006000;stroke-width:8.64"/>
	<circle cx="1386.49" cy="1241.75" r="26.35" style="fill:#006000"/>
	<circle cx="1386.49" cy="1241.75" r="22.03" style="fill:none;stroke:#006000;stroke-width:8.64"/>
	<circle cx="1558.63" cy="1228.75" r="26.35" style="fill:#006000"/>
	<circle cx="1558.63" cy="1228.75" r="22.03" style="fill:none;stroke:#006000;stroke-width:8.64"/>
	<circle cx="1730.77" cy="1226.40" r="26.35" style="fill:#006000"/>
	<circle cx="1730.77" cy="1226.40" r="22.03" style="fill:none;stroke:#006000;stroke-width:8.64"/>
	<circle cx="1902.78" cy="1231.47" r="26.35" style="fill:#006000"/>
	<circle cx="1902.78" cy="1231.47" r="22.03" style="fill:none;stroke:#006000;stroke-width:8.64"/>
	<circle cx="2074.92" cy="1229.12" r="26.35" style="fill:#006000"/>
	<circle cx="2074.92" cy="1229.12" r="22.03" style="fill:none;stroke:#006000;stroke-width:8.64"/>
	<circle cx="2246.93" cy="1211.30" r="26.35" style="fill:#006000"/>
	<circle cx="2246.93" cy="1211.30" r="22.03" style="fill:none;stroke:#006000;stroke-width:8.64"/>
	<circle cx="2419.07" cy="1220.21" r="26.35" style="fill:#006000"/>
	<circle cx="2419.07" cy="1220.21" r="22.03" style="fill:none;stroke:#006000;stroke-width:8.64"/>
	<circle cx="2591.08" cy="1227.51" r="26.35" style="fill:#006000"/>
	<circle cx="2591.08" cy="1227.51" r="22.03" style="fill:none;stroke:#006000;stroke-width:8.64"/>
	<circle cx="2763.21" cy="1180.86" r="26.35" style="fill:#006000"/>
	<circle cx="2763.21" cy="1180.86" r="22.03" style="fill:none;stroke:#006000;stroke-width:8.64"/>
	<circle cx="2935.23" cy="1195.96" r="26.35" style="fill:#006000"/>
	<circle cx="2935.23" cy="1195.96" r="22.03" style="fill:none;stroke:#006000;stroke-width:8.64"/>
	<circle cx="3107.36" cy="1141.13" r="26.35" style="fill:#006000"/>
	<circle cx="3107.36" cy="1141.13" r="22.03" style="fill:none;stroke:#006000;stroke-width:8.64"/>
	<circle cx="3279.38" cy="1197.94" r="26.35" style="fill:#006000"/>
	<circle cx="3279.38" cy="1197.94" r="22.03" style="fill:none;stroke:#006000;stroke-width:8.64"/>
	<circle cx="3451.51" cy="1212.05" r="26.35" style="fill:#006000"/>
	<circle cx="3451.51" cy="1212.05" r="22.03" style="fill:none;stroke:#006000;stroke-width:8.64"/>
	<circle cx="3623.52" cy="1265.88" r="26.35" style="fill:#006000"/>
	<circle cx="3623.52" cy="1265.88" r="22.03" style="fill:none;stroke:#006000;stroke-width:8.64"/>
	<circle cx="3795.66" cy="1316.62" r="26.35" style="fill:#006000"/>
	<circle cx="3795.66" cy="1316.62" r="22.03" style="fill:none;stroke:#006000;stroke-width:8.64"/>
	<line x1="354.17" y1="1993.18" x2="354.17" y2="893.63" style="stroke:#FF7440;stroke-opacity:0.80;stroke-width:8.64"/>
	<line x1="332.14" y1="893.63" x2="376.20" y2="893.63" stroke-linecap="round" style="stroke:#FF7440;stroke-opacity:0.80;stroke-width:8.64"/>
	<line x1="332.14" y1="1993.18" x2="376.20" y2="1993.18" stroke-linecap="round" style="stroke:#FF7440;stroke-opacity:0.80;stroke-width:8.64"/>
	<line x1="526.18" y1="1806.44" x2="526.18" y2="831.75" style="stroke:#FF7440;stroke-opacity:0.80;stroke-width:8.64"/>
	<line x1="504.16" y1="831.75" x2="548.21" y2="831.75" stroke-linecap="round" style="stroke:#FF7440;stroke-opacity:0.80;stroke-width:8.64"/>
	<line x1="504.16" y1="1806.44" x2="548.21" y2="1806.44" stroke-linecap="round" style="stroke:#FF7440;stroke-opacity:0.80;stroke-width:8.64"/>
	<line x1="698.32" y1="1796.78" x2="698.32" y2="855.14" style="stroke:#FF7440;stroke-opacity:0.80;stroke-width:8.64"/>
	<line x1="676.29" y1="855.14" x2="720.35" y2="855.14" stroke-linecap="round" style="stroke:#FF7440;stroke-opacity:0.80;stroke-width:8.64"/>
	<line x1="676.29" y1="1796.78" x2="720.35" y2="1796.78" stroke-linecap="round" style="stroke:#FF7440;stroke-opacity:0.80;stroke-width:8.64"/>
	<line x1="870.33" y1="1679.83" x2="870.33" y2="802.05" style="stroke:#FF7440;stroke-opacity:0.80;stroke-width:8.64"/>
	<line x1="848.31" y1="802.05" x2="892.36" y2="802.05" stroke-linecap="round" style="stroke:#FF7440;stroke-opacity:0.80;stroke-width:8.64"/>
	<line x1="848.31" y1="1679.83" x2="892.36" y2="1679.83" stroke-linecap="round" style="stroke:#FF7440;stroke-opacity:0.80;stroke-width:8.64"/>
	<line x1="1042.47" y1="1617.09" x2="1042.47" y2="843.38" style="stroke:#FF7440;stroke-opacity:0.80;stroke-width:8.64"/>
	<line x1="1020.44" y1="843.38" x2="1064.50" y2="843.38" stroke-linecap="round" style="stroke:#FF7440;stroke-opacity:0.80;stroke-width:8.64"/>
	<line x1="1020.44" y1="1617.09" x2="1064.50" y2="1617.09" stroke-linecap="round" style="stroke:#FF7440;stroke-opacity:0.80;stroke-width:8.64"/>
	<line x1="1214.48" y1="1532.82" x2="1214.48" y2="839.42" style="stroke:#FF7440;stroke-opacity:0.80;stroke-width:8.64"/>
	<line x1="1192.45" y1="839.42" x2="1236.51" y2="839.42" stroke-linecap="round" style="stroke:#FF7440;stroke-opacity:0.80;stroke-width:8.64"/>
	<line x1="1192.45" y1="1532.82" x2="1236.51" y2="1532.82" stroke-linecap="round" style="stroke:#FF7440;stroke-opacity:0.80;stroke-width:8.64"/>
	<line x1="1386.62" y1="1505.09" x2="1386.62" y2="877.29" style="stroke:#FF7440;stroke-opacity:0.80;stroke-width:8.64"/>
	<line x1="1364.59" y1="877.29" x2="1408.65" y2="877.29" stroke-linecap="round" style="stroke:#FF7440;stroke-opacity:0.80;stroke-width:8.64"/>
	<line x1="1364.59" y1="1505.09" x2="1408.65" y2="1505.09" stroke-linecap="round" style="stroke:#FF7440;stroke-opacity:0.80;stroke-width:8.64"/>
	<line x1="1558.76" y1="1477.25" x2="1558.76" y2="910.21" style="stroke:#FF7440;stroke-opacity:0.80;stroke-width:8.64"/>
	<line x1="1536.73" y1="910.21" x2="1580.78" y2="910.21" stroke-linecap="round" style="stroke:#FF7440;stroke-opacity:0.80;stroke-width:8.64"/>
	<line x1="1536.73" y1="1477.25" x2="1580.78" y2="1477.25" stroke-linecap="round" style="stroke:#FF7440;stroke-opacity:0.80;stroke-width:8.64"/>
	<line x1="1730.77" y1="1455.96" x2="1730.77" y2="1002.16" style="stroke:#FF7440;stroke-opacity:0.80;stroke-width:8.64"/>
	<line x1="1708.74" y1="1002.16" x2="1752.80" y2="1002.16" stroke-linecap="round" style="stroke:#FF7440;stroke-opacity:0.80;stroke-width:8.64"/>
	<line x1="1708.74" y1="1455.96" x2="1752.80" y2="1455.96" stroke-linecap="round" style="stroke:#FF7440;stroke-opacity:0.80;stroke-width:8.64"/>
	<line x1="1902.90" y1="1231.35" x2="1902.90" y2="1231.35" style="stroke:#FF7440;stroke-opacity:0.80;stroke-width:8.64"/>
	<line x1="1880.88" y1="1231.35" x2="1924.93" y2="1231.35" stroke-linecap="round" style="stroke:#FF7440;stroke-opacity:0.80;stroke-width:8.64"/>
	<line x1="1880.88" y1="1231.35" x2="1924.93" y2="1231.35" stroke-linecap="round" style="stroke:#FF7440;stroke-opacity:0.80;stroke-width:8.64"/>
	<line x1="2074.92" y1="1617.71" x2="2074.92" y2="844.62" style="stroke:#FF7440;stroke-opacity:0.80;stroke-width:8.64"/>
	<line x1="2052.89" y1="844.62" x2="2096.94" y2="844.62" stroke-linecap="round" style="stroke:#FF7440;stroke-opacity:0.80;stroke-width:8.64"/>
	<line x1="2052.89" y1="1617.71" x2="2096.94" y2="1617.71" stroke-linecap="round" style="stroke:#FF7440;stroke-opacity:0.80;stroke-width:8.64"/>
	<line x1="2247.05" y1="1569.08" x2="2247.05" y2="811.83" style="stroke:#FF7440;stroke-opacity:0.80;stroke-width:8.64"/>
	<line x1="2225.03" y1="811.83" x2="2269.08" y2="811.83" stroke-linecap="round" style="stroke:#FF7440;stroke-opacity:0.80;stroke-width:8.64"/>
	<line x1="2225.03" y1="1569.08" x2="2269.08" y2="1569.08" stroke-linecap="round" style="stroke:#FF7440;stroke-opacity:0.80;stroke-width:8.64"/>
	<line x1="2419.07" y1="1565.36" x2="2419.07" y2="777.42" style="stroke:#FF7440;stroke-opacity:0.80;stroke-width:8.64"/>
	<line x1="2397.04" y1="777.42" x2="2441.09" y2="777.42" stroke-linecap="round" style="stroke:#FF7440;stroke-opacity:0.80;stroke-width:8.64"/>
	<line x1="2397.04" y1="1565.36" x2="2441.09" y2="1565.36" stroke-linecap="round" style="stroke:#FF7440;stroke-opacity:0.80;stroke-width:8.64"/>
	<line x1="2591.20" y1="1515.98" x2="2591.20" y2="736.34" style="stroke:#FF7440;stroke-opacity:0.80;stroke-width:8.64"/>
	<line x1="2569.17" y1="736.34" x2="2613.23" y2="736.34" stroke-linecap="round" style="stroke:#FF7440;stroke-opacity:0.80;stroke-width:8.64"/>
	<line x1="2569.17" y1="1515.98" x2="2613.23" y2="1515.98" stroke-linecap="round" style="stroke:#FF7440;stroke-opacity:0.80;stroke-width:8.64"/>
	<line x1="2763.21" y1="1474.53" x2="2763.21" y2="673.47" style="stroke:#FF7440;stroke-opacity:0.80;stroke-width:8.64"/>
	<line x1="2741.19" y1="673.47" x2="2785.24" y2="673.47" stroke-linecap="round" style="stroke:#FF7440;stroke-opacity:0.80;stroke-width:8.64"/>
	<line x1="2741.19" y1="1474.53" x2="2785.24" y2="1474.53" stroke-linecap="round" style="stroke:#FF7440;stroke-opacity:0.80;stroke-width:8.64"/>
	<line x1="2935.35" y1="1448.42" x2="2935.35" y2="667.16" style="stroke:#FF7440;stroke-opacity:0.80;stroke-width:8.64"/>
	<line x1="2913.32" y1="667.16" x2="2957.38" y2="667.16" stroke-linecap="round" style="stroke:#FF7440;stroke-opacity:0.80;stroke-width:8.64"/>
	<line x1="2913.32" y1="1448.42" x2="2957.38" y2="1448.42" stroke-linecap="round" style="stroke:#FF7440;stroke-opacity:0.80;stroke-width:8.64"/>
	<line x1="3107.36" y1="1435.79" x2="3107.36" y2="581.89" style="stroke:#FF7440;stroke-opacity:0.80;stroke-width:8.64"/>
	<line x1="3085.34" y1="581.89" x2="3129.39" y2="581.89" stroke-linecap="round" style="stroke:#FF7440;stroke-opacity:0.80;stroke-width:8.64"/>
	<line x1="3085.34" y1="1435.79" x2="3129.39" y2="1435.79" stroke-linecap="round" style="stroke:#FF7440;stroke-opacity:0.80;stroke-width:8.64"/>
	<line x1="3279.50" y1="1403.99" x2="3279.50" y2="559.61" style="stroke:#FF7440;stroke-opacity:0.80;stroke-width:8.64"/>
	<line x1="3257.47" y1="559.61" x2="3301.53" y2="559.61" stroke-linecap="round" style="stroke:#FF7440;stroke-opacity:0.80;stroke-width:8.64"/>
	<line x1="3257.47" y1="1403.99" x2="3301.53" y2="1403.99" stroke-linecap="round" style="stroke:#FF7440;stroke-opacity:0.80;stroke-width:8.64"/>
	<line x1="3451.51" y1="1364.26" x2="3451.51" y2="468.28" style="stroke:#FF7440;stroke-opacity:0.80;stroke-width:8.64"/>
	<line x1="3429.48" y1="468.28" x2="3473.54" y2="468.28" stroke-linecap="round" style="stroke:#FF7440;stroke-opacity:0.80;stroke-width:8.64"/>
	<line x1="3429.48" y1="1364.26" x2="3473.54" y2="1364.26" stroke-linecap="round" style="stroke:#FF7440;stroke-opacity:0.80;stroke-width:8.64"/>
	<line x1="3623.65" y1="1291.00" x2="3623.65" y2="318.29" style="stroke:#FF7440;stroke-opacity:0.80;stroke-width:8.64"/>
	<line x1="3601.62" y1="318.29" x2="3645.68" y2="318.29" stroke-linecap="round" style="stroke:#FF7440;stroke-opacity:0.80;stroke-width:8.64"/>
	<line x1="3601.62" y1="1291.00" x2="3645.68" y2="1291.00" stroke-linecap="round" style="stroke:#FF7440;stroke-opacity:0.80;stroke-width:8.64"/>
	<line x1="3795.66" y1="1232.34" x2="3795.66" y2="164.22" style="stroke:#FF7440;stroke-opacity:0.80;stroke-width:8.64"/>
	<line x1="3773.63" y1="164.22" x2="3817.69" y2="164.22" stroke-linecap="round" style="stroke:#FF7440;stroke-opacity:0.80;stroke-width:8.64"/>
	<line x1="3773.63" y1="1232.34" x2="3817.69" y2="1232.34" stroke-linecap="round" style="stroke:#FF7440;stroke-opacity:0.80;stroke-width:8.64"/>
	<circle cx="354.05" cy="1443.47" r="26.35" style="fill:#FF4500"/>
	<circle cx="354.05" cy="1443.47" r="22.03" style="fill:none;stroke:#FF4500;stroke-width:8.64"/>
	<circle cx="526.18" cy="1319.09" r="26.35" style="fill:#FF4500"/>
	<circle cx="526.18" cy="1319.09" r="22.03" style="fill:none;stroke:#FF4500;stroke-width:8.64"/>
	<circle cx="698.20" cy="1326.02" r="26.35" style="fill:#FF4500"/>
	<circle cx="698.20" cy="1326.02" r="22.03" style="fill:none;stroke:#FF4500;stroke-width:8.64"/>
	<circle cx="870.33" cy="1241.00" r="26.35" style="fill:#FF4500"/>
	<circle cx="870.33" cy="1241.00" r="22.03" style="fill:none;stroke:#FF4500;stroke-width:8.64"/>
	<circle cx="1042.35" cy="1230.36" r="26.35" style="fill:#FF4500"/>
	<circle cx="1042.35" cy="1230.36" r="22.03" style="fill:none;stroke:#FF4500;stroke-width:8.64"/>
	<circle cx="1214.48" cy="1186.18" r="26.35" style="fill:#FF4500"/>
	<circle cx="1214.48" cy="1186.18" r="22.03" style="fill:none;stroke:#FF4500;stroke-width:8.64"/>
	<circle cx="1386.49" cy="1191.25" r="26.35" style="fill:#FF4500"/>
	<circle cx="1386.49" cy="1191.25" r="22.03" style="fill:none;stroke:#FF4500;stroke-width:8.64"/>
	<circle cx="1558.63" cy="1193.85" r="26.35" style="fill:#FF4500"/>
	<circle cx="1558.63" cy="1193.85" r="22.03" style="fill:none;stroke:#FF4500;stroke-width:8.64"/>
	<circle cx="1730.77" cy="1229.12" r="26.35" style="fill:#FF4500"/>
	<circle cx="1730.77" cy="1229.12" r="22.03" style="fill:none;stroke:#FF4500;stroke-width:8.64"/>
	<circle cx="1902.78" cy="1231.47" r="26.35" style="fill:#FF4500"/>
	<circle cx="1902.78" cy="1231.47" r="22.03" style="fill:none;stroke:#FF4500;stroke-width:8.64"/>
	<circle cx="2074.92" cy="1231.23" r="26.35" style="fill:#FF4500"/>
	<circle cx="2074.92" cy="1231.23" r="22.03" style="fill:none;stroke:#FF4500;stroke-width:8.64"/>
	<circle cx="2246.93" cy="1190.51" r="26.35" style="fill:#FF4500"/>
	<circle cx="2246.93" cy="1190.51" r="22.03" style="fill:none;stroke:#FF4500;stroke-width:8.64"/>
	<circle cx="2419.07" cy="1171.45" r="26.35" style="fill:#FF4500"/>
	<circle cx="2419.07" cy="1171.45" r="22.03" style="fill:none;stroke:#FF4500;stroke-width:8.64"/>
	<circle cx="2591.08" cy="1126.28" r="26.35" style="fill:#FF4500"/>
	<circle cx="2591.08" cy="1126.28" r="22.03" style="fill:none;stroke:#FF4500;stroke-width:8.64"/>
	<circle cx="2763.21" cy="1074.06" r="26.35" style="fill:#FF4500"/>
	<circle cx="2763.21" cy="1074.06" r="22.03" style="fill:none;stroke:#FF4500;stroke-width:8.64"/>
	<circle cx="2935.23" cy="1057.85" r="26.35" style="fill:#FF4500"/>
	<circle cx="2935.23" cy="1057.85" r="22.03" style="fill:none;stroke:#FF4500;stroke-width:8.64"/>
	<circle cx="3107.36" cy="1008.84" r="26.35" style="fill:#FF4500"/>
	<circle cx="3107.36" cy="1008.84" r="22.03" style="fill:none;stroke:#FF4500;stroke-width:8.64"/>
	<circle cx="3279.38" cy="981.86" r="26.35" style="fill:#FF4500"/>
	<circle cx="3279.38" cy="981.86" r="22.03" style="fill:none;stroke:#FF4500;stroke-width:8.64"/>
	<circle cx="3451.51" cy="916.40" r="26.35" style="fill:#FF4500"/>
	<circle cx="3451.51" cy="916.40" r="22.03" style="fill:none;stroke:#FF4500;stroke-width:8.64"/>
	<circle cx="3623.52" cy="804.77" r="26.35" style="fill:#FF4500"/>
	<circle cx="3623.52" cy="804.77" r="22.03" style="fill:none;stroke:#FF4500;stroke-width:8.64"/>
	<circle cx="3795.66" cy="698.34" r="26.35" style="fill:#FF4500"/>
	<circle cx="3795.66" cy="698.34" r="22.03" style="fill:none;stroke:#FF4500;stroke-width:8.64"/>
	<line x1="290.81" y1="2233.63" x2="290.81" y2="100.86" style="stroke:#000000;stroke-width:5.76"/>
	<line x1="290.81" y1="2170.27" x2="250.84" y2="2170.27" style="stroke:#000000;stroke-width:5.76"/>
	<text x="200.73" y="2170.27" style="font-family:'Helvetica';font-size:99.99px;fill:#000000" transform="rotate(-90 200.73,2170.27)" text-anchor="middle">-2</text>
	<line x1="290.81" y1="1700.87" x2="250.84" y2="1700.87" style="stroke:#000000;stroke-width:5.76"/>
	<text x="200.73" y="1700.87" style="font-family:'Helvetica';font-size:99.99px;fill:#000000" transform="rotate(-90 200.73,1700.87)" text-anchor="middle">-1</text>
	<line x1="290.81" y1="1231.35" x2="250.84" y2="1231.35" style="stroke:#000000;stroke-width:5.76"/>
	<text x="200.73" y="1231.35" style="font-family:'Helvetica';font-size:99.99px;fill:#000000" transform="rotate(-90 200.73,1231.35)" text-anchor="middle">0</text>
	<line x1="290.81" y1="761.95" x2="250.84" y2="761.95" style="stroke:#000000;stroke-width:5.76"/>
	<text x="200.73" y="761.95" style="font-family:'Helvetica';font-size:99.99px;fill:#000000" transform="rotate(-90 200.73,761.95)" text-anchor="middle">1</text>
	<line x1="290.81" y1="292.43" x2="250.84" y2="292.43" style="stroke:#000000;stroke-width:5.76"/>
	<text x="200.73" y="292.43" style="font-family:'Helvetica';font-size:99.99px;fill:#000000" transform="rotate(-90 200.73,292.43)" text-anchor="middle">2</text>
	<line x1="290.81" y1="2233.63" x2="3859.02" y2="2233.63" style="stroke:#000000;stroke-width:5.76"/>
	<line x1="354.17" y1="2233.63" x2="354.17" y2="2273.73" style="stroke:#000000;stroke-width:5.76"/>
	<text x="354.17" y="2363.59" style="font-family:'Helvetica';font-size:99.99px;fill:#000000" text-anchor="middle">-10</text>
	<line x1="1214.48" y1="2233.63" x2="1214.48" y2="2273.73" style="stroke:#000000;stroke-width:5.76"/>
	<text x="1214.48" y="2363.59" style="font-family:'Helvetica';font-size:99.99px;fill:#000000" text-anchor="middle">-5</text>
	<line x1="2074.92" y1="2233.63" x2="2074.92" y2="2273.73" style="stroke:#000000;stroke-width:5.76"/>
	<text x="2074.92" y="2363.59" style="font-family:'Helvetica';font-size:99.99px;fill:#000000" text-anchor="middle">0</text>
	<line x1="2935.35" y1="2233.63" x2="2935.35" y2="2273.73" style="stroke:#000000;stroke-width:5.76"/>
	<text x="2935.35" y="2363.59" style="font-family:'Helvetica';font-size:99.99px;fill:#000000" text-anchor="middle">5</text>
	<line x1="3795.66" y1="2233.63" x2="3795.66" y2="2273.73" style="stroke:#000000;stroke-width:5.76"/>
	<text x="3795.66" y="2363.59" style="font-family:'Helvetica';font-size:99.99px;fill:#000000" text-anchor="middle">10</text>
	<text x="2074.92" y="2473.60" style="font-family:'Helvetica';font-size:99.99px;fill:#000000" text-anchor="middle">x</text>
	<rect x="1542.79" y="2558.24" width="1064.37" height="186.37" style="fill:#FFFFFF"/>
	<rect x="1545.67" y="2561.12" width="1058.61" height="180.61" style="fill:none;stroke:#000000;stroke-width:5.76"/>
	<circle cx="1608.01" cy="2651.43" r="26.35" style="fill:#006000"/>
	<circle cx="1608.01" cy="2651.43" r="22.03" style="fill:none;stroke:#006000;stroke-width:8.64"/>
	<circle cx="2231.09" cy="2651.43" r="26.35" style="fill:#FF4500"/>
	<circle cx="2231.09" cy="2651.43" r="22.03" style="fill:none;stroke:#FF4500;stroke-width:8.64"/>
	<text x="1689.93" y="2686.46" style="font-family:'Helvetica';font-size:99.99px;fill:#000000">Female </text>
	<text x="2313.14" y="2686.46" style="font-family:'Helvetica';font-size:99.99px;fill:#000000">Male </text>
</svg>
