<?xml version="1.0" encoding="UTF-8" standalone="no"?>
<!-- This is a Stata 16.0 generated SVG file (http://www.stata.com) -->

<svg version="1.1" width="5.50in" height="4.00in" viewBox="0 0 3960 2880" xmlns="http://www.w3.org/2000/svg" xmlns:xlink="http://www.w3.org/1999/xlink">
	<desc>Stata Graph - Graph</desc>
	<rect x="0" y="0" width="3960" height="2880" style="fill:#FFFFFF;stroke:none"/>
	<rect x="0.00" y="0.00" width="3959.88" height="2880.00" style="fill:#FFFFFF"/>
	<rect x="2.88" y="2.88" width="3954.12" height="2874.24" style="fill:none;stroke:#FFFFFF;stroke-width:5.76"/>
	<rect x="293.69" y="103.74" width="3562.45" height="2127.01" style="fill:none;stroke:#000000;stroke-width:5.76"/>
	<line x1="354.17" y1="1556.45" x2="354.17" y2="1006.49" style="stroke:#408840;stroke-opacity:0.80;stroke-width:8.64"/>
	<line x1="332.14" y1="1006.49" x2="376.20" y2="1006.49" stroke-linecap="round" style="stroke:#408840;stroke-opacity:0.80;stroke-width:8.64"/>
	<line x1="332.14" y1="1556.45" x2="376.20" y2="1556.45" stroke-linecap="round" style="stroke:#408840;stroke-opacity:0.80;stroke-width:8.64"/>
	<line x1="526.18" y1="1494.95" x2="526.18" y2="995.85" style="stroke:#408840;stroke-opacity:0.80;stroke-width:8.64"/>
	<line x1="504.16" y1="995.85" x2="548.21" y2="995.85" stroke-linecap="round" style="stroke:#408840;stroke-opacity:0.80;stroke-width:8.64"/>
	<line x1="504.16" y1="1494.95" x2="548.21" y2="1494.95" stroke-linecap="round" style="stroke:#408840;stroke-opacity:0.80;stroke-width:8.64"/>
	<line x1="698.32" y1="1481.83" x2="698.32" y2="1006.99" style="stroke:#408840;stroke-opacity:0.80;stroke-width:8.64"/>
	<line x1="676.29" y1="1006.99" x2="720.35" y2="1006.99" stroke-linecap="round" style="stroke:#408840;stroke-opacity:0.80;stroke-width:8.64"/>
	<line x1="676.29" y1="1481.83" x2="720.35" y2="1481.83" stroke-linecap="round" style="stroke:#408840;stroke-opacity:0.80;stroke-width:8.64"/>
	<line x1="870.33" y1="1437.28" x2="870.33" y2="986.32" style="stroke:#408840;stroke-opacity:0.80;stroke-width:8.64"/>
	<line x1="848.31" y1="986.32" x2="892.36" y2="986.32" stroke-linecap="round" style="stroke:#408840;stroke-opacity:0.80;stroke-width:8.64"/>
	<line x1="848.31" y1="1437.28" x2="892.36" y2="1437.28" stroke-linecap="round" style="stroke:#408840;stroke-opacity:0.80;stroke-width:8.64"/>
	<line x1="1042.47" y1="1440.99" x2="1042.47" y2="1024.56" style="stroke:#408840;stroke-opacity:0.80;stroke-width:8.64"/>
	<line x1="1020.44" y1="1024.56" x2="1064.50" y2="1024.56" stroke-linecap="round" style="stroke:#408840;stroke-opacity:0.80;stroke-width:8.64"/>
	<line x1="1020.44" y1="1440.99" x2="1064.50" y2="1440.99" stroke-linecap="round" style="stroke:#408840;stroke-opacity:0.80;stroke-width:8.64"/>
	<line x1="1214.48" y1="1430.10" x2="1214.48" y2="1040.28" style="stroke:#408840;stroke-opacity:0.80;stroke-width:8.64"/>
	<line x1="1192.45" y1="1040.28" x2="1236.51" y2="1040.28" stroke-linecap="round" style="stroke:#408840;stroke-opacity:0.80;stroke-width:8.64"/>
	<line x1="1192.45" y1="1430.10" x2="1236.51" y2="1430.10" stroke-linecap="round" style="stroke:#408840;stroke-opacity:0.80;stroke-width:8.64"/>
	<line x1="1386.62" y1="1416.24" x2="1386.62" y2="1078.64" style="stroke:#408840;stroke-opacity:0.80;stroke-width:8.64"/>
	<line x1="1364.59" y1="1078.64" x2="1408.65" y2="1078.64" stroke-linecap="round" style="stroke:#408840;stroke-opacity:0.80;stroke-width:8.64"/>
	<line x1="1364.59" y1="1416.24" x2="1408.65" y2="1416.24" stroke-linecap="round" style="stroke:#408840;stroke-opacity:0.80;stroke-width:8.64"/>
	<line x1="1558.76" y1="1353.99" x2="1558.76" y2="1114.90" style="stroke:#408840;stroke-opacity:0.80;stroke-width:8.64"/>
	<line x1="1536.73" y1="1114.90" x2="1580.78" y2="1114.90" stroke-linecap="round" style="stroke:#408840;stroke-opacity:0.80;stroke-width:8.64"/>
	<line x1="1536.73" y1="1353.99" x2="1580.78" y2="1353.99" stroke-linecap="round" style="stroke:#408840;stroke-opacity:0.80;stroke-width:8.64"/>
	<line x1="1730.77" y1="1315.75" x2="1730.77" y2="1148.19" style="stroke:#408840;stroke-opacity:0.80;stroke-width:8.64"/>
	<line x1="1708.74" y1="1148.19" x2="1752.80" y2="1148.19" stroke-linecap="round" style="stroke:#408840;stroke-opacity:0.80;stroke-width:8.64"/>
	<line x1="1708.74" y1="1315.75" x2="1752.80" y2="1315.75" stroke-linecap="round" style="stroke:#408840;stroke-opacity:0.80;stroke-width:8.64"/>
	<line x1="1902.90" y1="1237.04" x2="1902.90" y2="1237.04" style="stroke:#408840;stroke-opacity:0.80;stroke-width:8.64"/>
	<line x1="1880.88" y1="1237.04" x2="1924.93" y2="1237.04" stroke-linecap="round" style="stroke:#408840;stroke-opacity:0.80;stroke-width:8.64"/>
	<line x1="1880.88" y1="1237.04" x2="1924.93" y2="1237.04" stroke-linecap="round" style="stroke:#408840;stroke-opacity:0.80;stroke-width:8.64"/>
	<line x1="2074.92" y1="1441.49" x2="2074.92" y2="1028.52" style="stroke:#408840;stroke-opacity:0.80;stroke-width:8.64"/>
	<line x1="2052.89" y1="1028.52" x2="2096.94" y2="1028.52" stroke-linecap="round" style="stroke:#408840;stroke-opacity:0.80;stroke-width:8.64"/>
	<line x1="2052.89" y1="1441.49" x2="2096.94" y2="1441.49" stroke-linecap="round" style="stroke:#408840;stroke-opacity:0.80;stroke-width:8.64"/>
	<line x1="2247.05" y1="1417.85" x2="2247.05" y2="1019.11" style="stroke:#408840;stroke-opacity:0.80;stroke-width:8.64"/>
	<line x1="2225.03" y1="1019.11" x2="2269.08" y2="1019.11" stroke-linecap="round" style="stroke:#408840;stroke-opacity:0.80;stroke-width:8.64"/>
	<line x1="2225.03" y1="1417.85" x2="2269.08" y2="1417.85" stroke-linecap="round" style="stroke:#408840;stroke-opacity:0.80;stroke-width:8.64"/>
	<line x1="2419.07" y1="1422.80" x2="2419.07" y2="1031.74" style="stroke:#408840;stroke-opacity:0.80;stroke-width:8.64"/>
	<line x1="2397.04" y1="1031.74" x2="2441.09" y2="1031.74" stroke-linecap="round" style="stroke:#408840;stroke-opacity:0.80;stroke-width:8.64"/>
	<line x1="2397.04" y1="1422.80" x2="2441.09" y2="1422.80" stroke-linecap="round" style="stroke:#408840;stroke-opacity:0.80;stroke-width:8.64"/>
	<line x1="2591.20" y1="1426.39" x2="2591.20" y2="1034.83" style="stroke:#408840;stroke-opacity:0.80;stroke-width:8.64"/>
	<line x1="2569.17" y1="1034.83" x2="2613.23" y2="1034.83" stroke-linecap="round" style="stroke:#408840;stroke-opacity:0.80;stroke-width:8.64"/>
	<line x1="2569.17" y1="1426.39" x2="2613.23" y2="1426.39" stroke-linecap="round" style="stroke:#408840;stroke-opacity:0.80;stroke-width:8.64"/>
	<line x1="2763.21" y1="1379.98" x2="2763.21" y2="991.76" style="stroke:#408840;stroke-opacity:0.80;stroke-width:8.64"/>
	<line x1="2741.19" y1="991.76" x2="2785.24" y2="991.76" stroke-linecap="round" style="stroke:#408840;stroke-opacity:0.80;stroke-width:8.64"/>
	<line x1="2741.19" y1="1379.98" x2="2785.24" y2="1379.98" stroke-linecap="round" style="stroke:#408840;stroke-opacity:0.80;stroke-width:8.64"/>
	<line x1="2935.35" y1="1413.39" x2="2935.35" y2="993.50" style="stroke:#408840;stroke-opacity:0.80;stroke-width:8.64"/>
	<line x1="2913.32" y1="993.50" x2="2957.38" y2="993.50" stroke-linecap="round" style="stroke:#408840;stroke-opacity:0.80;stroke-width:8.64"/>
	<line x1="2913.32" y1="1413.39" x2="2957.38" y2="1413.39" stroke-linecap="round" style="stroke:#408840;stroke-opacity:0.80;stroke-width:8.64"/>
	<line x1="3107.36" y1="1369.21" x2="3107.36" y2="924.19" style="stroke:#408840;stroke-opacity:0.80;stroke-width:8.64"/>
	<line x1="3085.34" y1="924.19" x2="3129.39" y2="924.19" stroke-linecap="round" style="stroke:#408840;stroke-opacity:0.80;stroke-width:8.64"/>
	<line x1="3085.34" y1="1369.21" x2="3129.39" y2="1369.21" stroke-linecap="round" style="stroke:#408840;stroke-opacity:0.80;stroke-width:8.64"/>
	<line x1="3279.50" y1="1439.13" x2="3279.50" y2="969.24" style="stroke:#408840;stroke-opacity:0.80;stroke-width:8.64"/>
	<line x1="3257.47" y1="969.24" x2="3301.53" y2="969.24" stroke-linecap="round" style="stroke:#408840;stroke-opacity:0.80;stroke-width:8.64"/>
	<line x1="3257.47" y1="1439.13" x2="3301.53" y2="1439.13" stroke-linecap="round" style="stroke:#408840;stroke-opacity:0.80;stroke-width:8.64"/>
	<line x1="3451.51" y1="1467.23" x2="3451.51" y2="968.25" style="stroke:#408840;stroke-opacity:0.80;stroke-width:8.64"/>
	<line x1="3429.48" y1="968.25" x2="3473.54" y2="968.25" stroke-linecap="round" style="stroke:#408840;stroke-opacity:0.80;stroke-width:8.64"/>
	<line x1="3429.48" y1="1467.23" x2="3473.54" y2="1467.23" stroke-linecap="round" style="stroke:#408840;stroke-opacity:0.80;stroke-width:8.64"/>
	<line x1="3623.65" y1="1540.36" x2="3623.65" y2="1005.25" style="stroke:#408840;stroke-opacity:0.80;stroke-width:8.64"/>
	<line x1="3601.62" y1="1005.25" x2="3645.68" y2="1005.25" stroke-linecap="round" style="stroke:#408840;stroke-opacity:0.80;stroke-width:8.64"/>
	<line x1="3601.62" y1="1540.36" x2="3645.68" y2="1540.36" stroke-linecap="round" style="stroke:#408840;stroke-opacity:0.80;stroke-width:8.64"/>
	<line x1="3795.66" y1="1611.15" x2="3795.66" y2="1041.88" style="stroke:#408840;stroke-opacity:0.80;stroke-width:8.64"/>
	<line x1="3773.63" y1="1041.88" x2="3817.69" y2="1041.88" stroke-linecap="round" style="stroke:#408840;stroke-opacity:0.80;stroke-width:8.64"/>
	<line x1="3773.63" y1="1611.15" x2="3817.69" y2="1611.15" stroke-linecap="round" style="stroke:#408840;stroke-opacity:0.80;stroke-width:8.64"/>
	<circle cx="354.05" cy="1281.47" r="26.35" style="fill:#006000"/>
	<circle cx="354.05" cy="1281.47" r="22.03" style="fill:none;stroke:#006000;stroke-width:8.64"/>
	<circle cx="526.18" cy="1245.46" r="26.35" style="fill:#006000"/>
	<circle cx="526.18" cy="1245.46" r="22.03" style="fill:none;stroke:#006000;stroke-width:8.64"/>
	<circle cx="698.20" cy="1244.47" r="26.35" style="fill:#006000"/>
	<circle cx="698.20" cy="1244.47" r="22.03" style="fill:none;stroke:#006000;stroke-width:8.64"/>
	<circle cx="870.33" cy="1211.80" r="26.35" style="fill:#006000"/>
	<circle cx="870.33" cy="1211.80" r="22.03" style="fill:none;stroke:#006000;stroke-width:8.64"/>
	<circle cx="1042.35" cy="1232.84" r="26.35" style="fill:#006000"/>
	<circle cx="1042.35" cy="1232.84" r="22.03" style="fill:none;stroke:#006000;stroke-width:8.64"/>
	<circle cx="1214.48" cy="1235.19" r="26.35" style="fill:#006000"/>
	<circle cx="1214.48" cy="1235.19" r="22.03" style="fill:none;stroke:#006000;stroke-width:8.64"/>
	<circle cx="1386.49" cy="1247.44" r="26.35" style="fill:#006000"/>
	<circle cx="1386.49" cy="1247.44" r="22.03" style="fill:none;stroke:#006000;stroke-width:8.64"/>
	<circle cx="1558.63" cy="1234.44" r="26.35" style="fill:#006000"/>
	<circle cx="1558.63" cy="1234.44" r="22.03" style="fill:none;stroke:#006000;stroke-width:8.64"/>
	<circle cx="1730.77" cy="1232.09" r="26.35" style="fill:#006000"/>
	<circle cx="1730.77" cy="1232.09" r="22.03" style="fill:none;stroke:#006000;stroke-width:8.64"/>
	<circle cx="1902.78" cy="1237.17" r="26.35" style="fill:#006000"/>
	<circle cx="1902.78" cy="1237.17" r="22.03" style="fill:none;stroke:#006000;stroke-width:8.64"/>
	<circle cx="2074.92" cy="1235.06" r="26.35" style="fill:#006000"/>
	<circle cx="2074.92" cy="1235.06" r="22.03" style="fill:none;stroke:#006000;stroke-width:8.64"/>
	<circle cx="2246.93" cy="1218.48" r="26.35" style="fill:#006000"/>
	<circle cx="2246.93" cy="1218.48" r="22.03" style="fill:none;stroke:#006000;stroke-width:8.64"/>
	<circle cx="2419.07" cy="1227.27" r="26.35" style="fill:#006000"/>
	<circle cx="2419.07" cy="1227.27" r="22.03" style="fill:none;stroke:#006000;stroke-width:8.64"/>
	<circle cx="2591.08" cy="1230.73" r="26.35" style="fill:#006000"/>
	<circle cx="2591.08" cy="1230.73" r="22.03" style="fill:none;stroke:#006000;stroke-width:8.64"/>
	<circle cx="2763.21" cy="1185.93" r="26.35" style="fill:#006000"/>
	<circle cx="2763.21" cy="1185.93" r="22.03" style="fill:none;stroke:#006000;stroke-width:8.64"/>
	<circle cx="2935.23" cy="1203.51" r="26.35" style="fill:#006000"/>
	<circle cx="2935.23" cy="1203.51" r="22.03" style="fill:none;stroke:#006000;stroke-width:8.64"/>
	<circle cx="3107.36" cy="1146.70" r="26.35" style="fill:#006000"/>
	<circle cx="3107.36" cy="1146.70" r="22.03" style="fill:none;stroke:#006000;stroke-width:8.64"/>
	<circle cx="3279.38" cy="1204.25" r="26.35" style="fill:#006000"/>
	<circle cx="3279.38" cy="1204.25" r="22.03" style="fill:none;stroke:#006000;stroke-width:8.64"/>
	<circle cx="3451.51" cy="1217.74" r="26.35" style="fill:#006000"/>
	<circle cx="3451.51" cy="1217.74" r="22.03" style="fill:none;stroke:#006000;stroke-width:8.64"/>
	<circle cx="3623.52" cy="1272.81" r="26.35" style="fill:#006000"/>
	<circle cx="3623.52" cy="1272.81" r="22.03" style="fill:none;stroke:#006000;stroke-width:8.64"/>
	<circle cx="3795.66" cy="1326.52" r="26.35" style="fill:#006000"/>
	<circle cx="3795.66" cy="1326.52" r="22.03" style="fill:none;stroke:#006000;stroke-width:8.64"/>
	<line x1="354.17" y1="1993.67" x2="354.17" y2="900.68" style="stroke:#FF7440;stroke-opacity:0.80;stroke-width:8.64"/>
	<line x1="332.14" y1="900.68" x2="376.20" y2="900.68" stroke-linecap="round" style="stroke:#FF7440;stroke-opacity:0.80;stroke-width:8.64"/>
	<line x1="332.14" y1="1993.67" x2="376.20" y2="1993.67" stroke-linecap="round" style="stroke:#FF7440;stroke-opacity:0.80;stroke-width:8.64"/>
	<line x1="526.18" y1="1808.29" x2="526.18" y2="839.17" style="stroke:#FF7440;stroke-opacity:0.80;stroke-width:8.64"/>
	<line x1="504.16" y1="839.17" x2="548.21" y2="839.17" stroke-linecap="round" style="stroke:#FF7440;stroke-opacity:0.80;stroke-width:8.64"/>
	<line x1="504.16" y1="1808.29" x2="548.21" y2="1808.29" stroke-linecap="round" style="stroke:#FF7440;stroke-opacity:0.80;stroke-width:8.64"/>
	<line x1="698.32" y1="1798.02" x2="698.32" y2="862.19" style="stroke:#FF7440;stroke-opacity:0.80;stroke-width:8.64"/>
	<line x1="676.29" y1="862.19" x2="720.35" y2="862.19" stroke-linecap="round" style="stroke:#FF7440;stroke-opacity:0.80;stroke-width:8.64"/>
	<line x1="676.29" y1="1798.02" x2="720.35" y2="1798.02" stroke-linecap="round" style="stroke:#FF7440;stroke-opacity:0.80;stroke-width:8.64"/>
	<line x1="870.33" y1="1682.19" x2="870.33" y2="809.72" style="stroke:#FF7440;stroke-opacity:0.80;stroke-width:8.64"/>
	<line x1="848.31" y1="809.72" x2="892.36" y2="809.72" stroke-linecap="round" style="stroke:#FF7440;stroke-opacity:0.80;stroke-width:8.64"/>
	<line x1="848.31" y1="1682.19" x2="892.36" y2="1682.19" stroke-linecap="round" style="stroke:#FF7440;stroke-opacity:0.80;stroke-width:8.64"/>
	<line x1="1042.47" y1="1621.05" x2="1042.47" y2="851.92" style="stroke:#FF7440;stroke-opacity:0.80;stroke-width:8.64"/>
	<line x1="1020.44" y1="851.92" x2="1064.50" y2="851.92" stroke-linecap="round" style="stroke:#FF7440;stroke-opacity:0.80;stroke-width:8.64"/>
	<line x1="1020.44" y1="1621.05" x2="1064.50" y2="1621.05" stroke-linecap="round" style="stroke:#FF7440;stroke-opacity:0.80;stroke-width:8.64"/>
	<line x1="1214.48" y1="1536.65" x2="1214.48" y2="847.22" style="stroke:#FF7440;stroke-opacity:0.80;stroke-width:8.64"/>
	<line x1="1192.45" y1="847.22" x2="1236.51" y2="847.22" stroke-linecap="round" style="stroke:#FF7440;stroke-opacity:0.80;stroke-width:8.64"/>
	<line x1="1192.45" y1="1536.65" x2="1236.51" y2="1536.65" stroke-linecap="round" style="stroke:#FF7440;stroke-opacity:0.80;stroke-width:8.64"/>
	<line x1="1386.62" y1="1508.93" x2="1386.62" y2="884.35" style="stroke:#FF7440;stroke-opacity:0.80;stroke-width:8.64"/>
	<line x1="1364.59" y1="884.35" x2="1408.65" y2="884.35" stroke-linecap="round" style="stroke:#FF7440;stroke-opacity:0.80;stroke-width:8.64"/>
	<line x1="1364.59" y1="1508.93" x2="1408.65" y2="1508.93" stroke-linecap="round" style="stroke:#FF7440;stroke-opacity:0.80;stroke-width:8.64"/>
	<line x1="1558.76" y1="1481.46" x2="1558.76" y2="917.76" style="stroke:#FF7440;stroke-opacity:0.80;stroke-width:8.64"/>
	<line x1="1536.73" y1="917.76" x2="1580.78" y2="917.76" stroke-linecap="round" style="stroke:#FF7440;stroke-opacity:0.80;stroke-width:8.64"/>
	<line x1="1536.73" y1="1481.46" x2="1580.78" y2="1481.46" stroke-linecap="round" style="stroke:#FF7440;stroke-opacity:0.80;stroke-width:8.64"/>
	<line x1="1730.77" y1="1459.80" x2="1730.77" y2="1008.97" style="stroke:#FF7440;stroke-opacity:0.80;stroke-width:8.64"/>
	<line x1="1708.74" y1="1008.97" x2="1752.80" y2="1008.97" stroke-linecap="round" style="stroke:#FF7440;stroke-opacity:0.80;stroke-width:8.64"/>
	<line x1="1708.74" y1="1459.80" x2="1752.80" y2="1459.80" stroke-linecap="round" style="stroke:#FF7440;stroke-opacity:0.80;stroke-width:8.64"/>
	<line x1="1902.90" y1="1237.04" x2="1902.90" y2="1237.04" style="stroke:#FF7440;stroke-opacity:0.80;stroke-width:8.64"/>
	<line x1="1880.88" y1="1237.04" x2="1924.93" y2="1237.04" stroke-linecap="round" style="stroke:#FF7440;stroke-opacity:0.80;stroke-width:8.64"/>
	<line x1="1880.88" y1="1237.04" x2="1924.93" y2="1237.04" stroke-linecap="round" style="stroke:#FF7440;stroke-opacity:0.80;stroke-width:8.64"/>
	<line x1="2074.92" y1="1620.56" x2="2074.92" y2="852.05" style="stroke:#FF7440;stroke-opacity:0.80;stroke-width:8.64"/>
	<line x1="2052.89" y1="852.05" x2="2096.94" y2="852.05" stroke-linecap="round" style="stroke:#FF7440;stroke-opacity:0.80;stroke-width:8.64"/>
	<line x1="2052.89" y1="1620.56" x2="2096.94" y2="1620.56" stroke-linecap="round" style="stroke:#FF7440;stroke-opacity:0.80;stroke-width:8.64"/>
	<line x1="2247.05" y1="1578.98" x2="2247.05" y2="821.97" style="stroke:#FF7440;stroke-opacity:0.80;stroke-width:8.64"/>
	<line x1="2225.03" y1="821.97" x2="2269.08" y2="821.97" stroke-linecap="round" style="stroke:#FF7440;stroke-opacity:0.80;stroke-width:8.64"/>
	<line x1="2225.03" y1="1578.98" x2="2269.08" y2="1578.98" stroke-linecap="round" style="stroke:#FF7440;stroke-opacity:0.80;stroke-width:8.64"/>
	<line x1="2419.07" y1="1564.25" x2="2419.07" y2="780.52" style="stroke:#FF7440;stroke-opacity:0.80;stroke-width:8.64"/>
	<line x1="2397.04" y1="780.52" x2="2441.09" y2="780.52" stroke-linecap="round" style="stroke:#FF7440;stroke-opacity:0.80;stroke-width:8.64"/>
	<line x1="2397.04" y1="1564.25" x2="2441.09" y2="1564.25" stroke-linecap="round" style="stroke:#FF7440;stroke-opacity:0.80;stroke-width:8.64"/>
	<line x1="2591.20" y1="1516.23" x2="2591.20" y2="738.69" style="stroke:#FF7440;stroke-opacity:0.80;stroke-width:8.64"/>
	<line x1="2569.17" y1="738.69" x2="2613.23" y2="738.69" stroke-linecap="round" style="stroke:#FF7440;stroke-opacity:0.80;stroke-width:8.64"/>
	<line x1="2569.17" y1="1516.23" x2="2613.23" y2="1516.23" stroke-linecap="round" style="stroke:#FF7440;stroke-opacity:0.80;stroke-width:8.64"/>
	<line x1="2763.21" y1="1475.64" x2="2763.21" y2="675.57" style="stroke:#FF7440;stroke-opacity:0.80;stroke-width:8.64"/>
	<line x1="2741.19" y1="675.57" x2="2785.24" y2="675.57" stroke-linecap="round" style="stroke:#FF7440;stroke-opacity:0.80;stroke-width:8.64"/>
	<line x1="2741.19" y1="1475.64" x2="2785.24" y2="1475.64" stroke-linecap="round" style="stroke:#FF7440;stroke-opacity:0.80;stroke-width:8.64"/>
	<line x1="2935.35" y1="1440.37" x2="2935.35" y2="656.27" style="stroke:#FF7440;stroke-opacity:0.80;stroke-width:8.64"/>
	<line x1="2913.32" y1="656.27" x2="2957.38" y2="656.27" stroke-linecap="round" style="stroke:#FF7440;stroke-opacity:0.80;stroke-width:8.64"/>
	<line x1="2913.32" y1="1440.37" x2="2957.38" y2="1440.37" stroke-linecap="round" style="stroke:#FF7440;stroke-opacity:0.80;stroke-width:8.64"/>
	<line x1="3107.36" y1="1435.17" x2="3107.36" y2="582.63" style="stroke:#FF7440;stroke-opacity:0.80;stroke-width:8.64"/>
	<line x1="3085.34" y1="582.63" x2="3129.39" y2="582.63" stroke-linecap="round" style="stroke:#FF7440;stroke-opacity:0.80;stroke-width:8.64"/>
	<line x1="3085.34" y1="1435.17" x2="3129.39" y2="1435.17" stroke-linecap="round" style="stroke:#FF7440;stroke-opacity:0.80;stroke-width:8.64"/>
	<line x1="3279.50" y1="1394.58" x2="3279.50" y2="553.55" style="stroke:#FF7440;stroke-opacity:0.80;stroke-width:8.64"/>
	<line x1="3257.47" y1="553.55" x2="3301.53" y2="553.55" stroke-linecap="round" style="stroke:#FF7440;stroke-opacity:0.80;stroke-width:8.64"/>
	<line x1="3257.47" y1="1394.58" x2="3301.53" y2="1394.58" stroke-linecap="round" style="stroke:#FF7440;stroke-opacity:0.80;stroke-width:8.64"/>
	<line x1="3451.51" y1="1375.77" x2="3451.51" y2="483.75" style="stroke:#FF7440;stroke-opacity:0.80;stroke-width:8.64"/>
	<line x1="3429.48" y1="483.75" x2="3473.54" y2="483.75" stroke-linecap="round" style="stroke:#FF7440;stroke-opacity:0.80;stroke-width:8.64"/>
	<line x1="3429.48" y1="1375.77" x2="3473.54" y2="1375.77" stroke-linecap="round" style="stroke:#FF7440;stroke-opacity:0.80;stroke-width:8.64"/>
	<line x1="3623.65" y1="1287.16" x2="3623.65" y2="313.34" style="stroke:#FF7440;stroke-opacity:0.80;stroke-width:8.64"/>
	<line x1="3601.62" y1="313.34" x2="3645.68" y2="313.34" stroke-linecap="round" style="stroke:#FF7440;stroke-opacity:0.80;stroke-width:8.64"/>
	<line x1="3601.62" y1="1287.16" x2="3645.68" y2="1287.16" stroke-linecap="round" style="stroke:#FF7440;stroke-opacity:0.80;stroke-width:8.64"/>
	<line x1="3795.66" y1="1212.79" x2="3795.66" y2="164.22" style="stroke:#FF7440;stroke-opacity:0.80;stroke-width:8.64"/>
	<line x1="3773.63" y1="164.22" x2="3817.69" y2="164.22" stroke-linecap="round" style="stroke:#FF7440;stroke-opacity:0.80;stroke-width:8.64"/>
	<line x1="3773.63" y1="1212.79" x2="3817.69" y2="1212.79" stroke-linecap="round" style="stroke:#FF7440;stroke-opacity:0.80;stroke-width:8.64"/>
	<circle cx="354.05" cy="1447.18" r="26.35" style="fill:#FF4500"/>
	<circle cx="354.05" cy="1447.18" r="22.03" style="fill:none;stroke:#FF4500;stroke-width:8.64"/>
	<circle cx="526.18" cy="1323.80" r="26.35" style="fill:#FF4500"/>
	<circle cx="526.18" cy="1323.80" r="22.03" style="fill:none;stroke:#FF4500;stroke-width:8.64"/>
	<circle cx="698.20" cy="1330.11" r="26.35" style="fill:#FF4500"/>
	<circle cx="698.20" cy="1330.11" r="22.03" style="fill:none;stroke:#FF4500;stroke-width:8.64"/>
	<circle cx="870.33" cy="1245.95" r="26.35" style="fill:#FF4500"/>
	<circle cx="870.33" cy="1245.95" r="22.03" style="fill:none;stroke:#FF4500;stroke-width:8.64"/>
	<circle cx="1042.35" cy="1236.55" r="26.35" style="fill:#FF4500"/>
	<circle cx="1042.35" cy="1236.55" r="22.03" style="fill:none;stroke:#FF4500;stroke-width:8.64"/>
	<circle cx="1214.48" cy="1192.00" r="26.35" style="fill:#FF4500"/>
	<circle cx="1214.48" cy="1192.00" r="22.03" style="fill:none;stroke:#FF4500;stroke-width:8.64"/>
	<circle cx="1386.49" cy="1196.70" r="26.35" style="fill:#FF4500"/>
	<circle cx="1386.49" cy="1196.70" r="22.03" style="fill:none;stroke:#FF4500;stroke-width:8.64"/>
	<circle cx="1558.63" cy="1199.67" r="26.35" style="fill:#FF4500"/>
	<circle cx="1558.63" cy="1199.67" r="22.03" style="fill:none;stroke:#FF4500;stroke-width:8.64"/>
	<circle cx="1730.77" cy="1234.44" r="26.35" style="fill:#FF4500"/>
	<circle cx="1730.77" cy="1234.44" r="22.03" style="fill:none;stroke:#FF4500;stroke-width:8.64"/>
	<circle cx="1902.78" cy="1237.17" r="26.35" style="fill:#FF4500"/>
	<circle cx="1902.78" cy="1237.17" r="22.03" style="fill:none;stroke:#FF4500;stroke-width:8.64"/>
	<circle cx="2074.92" cy="1236.42" r="26.35" style="fill:#FF4500"/>
	<circle cx="2074.92" cy="1236.42" r="22.03" style="fill:none;stroke:#FF4500;stroke-width:8.64"/>
	<circle cx="2246.93" cy="1200.54" r="26.35" style="fill:#FF4500"/>
	<circle cx="2246.93" cy="1200.54" r="22.03" style="fill:none;stroke:#FF4500;stroke-width:8.64"/>
	<circle cx="2419.07" cy="1172.44" r="26.35" style="fill:#FF4500"/>
	<circle cx="2419.07" cy="1172.44" r="22.03" style="fill:none;stroke:#FF4500;stroke-width:8.64"/>
	<circle cx="2591.08" cy="1127.52" r="26.35" style="fill:#FF4500"/>
	<circle cx="2591.08" cy="1127.52" r="22.03" style="fill:none;stroke:#FF4500;stroke-width:8.64"/>
	<circle cx="2763.21" cy="1075.67" r="26.35" style="fill:#FF4500"/>
	<circle cx="2763.21" cy="1075.67" r="22.03" style="fill:none;stroke:#FF4500;stroke-width:8.64"/>
	<circle cx="2935.23" cy="1048.32" r="26.35" style="fill:#FF4500"/>
	<circle cx="2935.23" cy="1048.32" r="22.03" style="fill:none;stroke:#FF4500;stroke-width:8.64"/>
	<circle cx="3107.36" cy="1008.97" r="26.35" style="fill:#FF4500"/>
	<circle cx="3107.36" cy="1008.97" r="22.03" style="fill:none;stroke:#FF4500;stroke-width:8.64"/>
	<circle cx="3279.38" cy="974.19" r="26.35" style="fill:#FF4500"/>
	<circle cx="3279.38" cy="974.19" r="22.03" style="fill:none;stroke:#FF4500;stroke-width:8.64"/>
	<circle cx="3451.51" cy="929.89" r="26.35" style="fill:#FF4500"/>
	<circle cx="3451.51" cy="929.89" r="22.03" style="fill:none;stroke:#FF4500;stroke-width:8.64"/>
	<circle cx="3623.52" cy="800.32" r="26.35" style="fill:#FF4500"/>
	<circle cx="3623.52" cy="800.32" r="22.03" style="fill:none;stroke:#FF4500;stroke-width:8.64"/>
	<circle cx="3795.66" cy="688.57" r="26.35" style="fill:#FF4500"/>
	<circle cx="3795.66" cy="688.57" r="22.03" style="fill:none;stroke:#FF4500;stroke-width:8.64"/>
	<line x1="290.81" y1="2233.63" x2="290.81" y2="100.86" style="stroke:#000000;stroke-width:5.76"/>
	<line x1="290.81" y1="2170.27" x2="250.84" y2="2170.27" style="stroke:#000000;stroke-width:5.76"/>
	<text x="200.73" y="2170.27" style="font-family:'Helvetica';font-size:99.99px;fill:#000000" transform="rotate(-90 200.73,2170.27)" text-anchor="middle">-2</text>
	<line x1="290.81" y1="1703.72" x2="250.84" y2="1703.72" style="stroke:#000000;stroke-width:5.76"/>
	<text x="200.73" y="1703.72" style="font-family:'Helvetica';font-size:99.99px;fill:#000000" transform="rotate(-90 200.73,1703.72)" text-anchor="middle">-1</text>
	<line x1="290.81" y1="1237.04" x2="250.84" y2="1237.04" style="stroke:#000000;stroke-width:5.76"/>
	<text x="200.73" y="1237.04" style="font-family:'Helvetica';font-size:99.99px;fill:#000000" transform="rotate(-90 200.73,1237.04)" text-anchor="middle">0</text>
	<line x1="290.81" y1="770.37" x2="250.84" y2="770.37" style="stroke:#000000;stroke-width:5.76"/>
	<text x="200.73" y="770.37" style="font-family:'Helvetica';font-size:99.99px;fill:#000000" transform="rotate(-90 200.73,770.37)" text-anchor="middle">1</text>
	<line x1="290.81" y1="303.82" x2="250.84" y2="303.82" style="stroke:#000000;stroke-width:5.76"/>
	<text x="200.73" y="303.82" style="font-family:'Helvetica';font-size:99.99px;fill:#000000" transform="rotate(-90 200.73,303.82)" text-anchor="middle">2</text>
	<line x1="290.81" y1="2233.63" x2="3859.02" y2="2233.63" style="stroke:#000000;stroke-width:5.76"/>
	<line x1="354.17" y1="2233.63" x2="354.17" y2="2273.73" style="stroke:#000000;stroke-width:5.76"/>
	<text x="354.17" y="2363.59" style="font-family:'Helvetica';font-size:99.99px;fill:#000000" text-anchor="middle">-10</text>
	<line x1="1214.48" y1="2233.63" x2="1214.48" y2="2273.73" style="stroke:#000000;stroke-width:5.76"/>
	<text x="1214.48" y="2363.59" style="font-family:'Helvetica';font-size:99.99px;fill:#000000" text-anchor="middle">-5</text>
	<line x1="2074.92" y1="2233.63" x2="2074.92" y2="2273.73" style="stroke:#000000;stroke-width:5.76"/>
	<text x="2074.92" y="2363.59" style="font-family:'Helvetica';font-size:99.99px;fill:#000000" text-anchor="middle">0</text>
	<line x1="2935.35" y1="2233.63" x2="2935.35" y2="2273.73" style="stroke:#000000;stroke-width:5.76"/>
	<text x="2935.35" y="2363.59" style="font-family:'Helvetica';font-size:99.99px;fill:#000000" text-anchor="middle">5</text>
	<line x1="3795.66" y1="2233.63" x2="3795.66" y2="2273.73" style="stroke:#000000;stroke-width:5.76"/>
	<text x="3795.66" y="2363.59" style="font-family:'Helvetica';font-size:99.99px;fill:#000000" text-anchor="middle">10</text>
	<text x="2074.92" y="2473.60" style="font-family:'Helvetica';font-size:99.99px;fill:#000000" text-anchor="middle">x</text>
	<rect x="1542.79" y="2558.24" width="1064.37" height="186.37" style="fill:#FFFFFF"/>
	<rect x="1545.67" y="2561.12" width="1058.61" height="180.61" style="fill:none;stroke:#000000;stroke-width:5.76"/>
	<circle cx="1608.01" cy="2651.43" r="26.35" style="fill:#006000"/>
	<circle cx="1608.01" cy="2651.43" r="22.03" style="fill:none;stroke:#006000;stroke-width:8.64"/>
	<circle cx="2231.09" cy="2651.43" r="26.35" style="fill:#FF4500"/>
	<circle cx="2231.09" cy="2651.43" r="22.03" style="fill:none;stroke:#FF4500;stroke-width:8.64"/>
	<text x="1689.93" y="2686.46" style="font-family:'Helvetica';font-size:99.99px;fill:#000000">Female </text>
	<text x="2313.14" y="2686.46" style="font-family:'Helvetica';font-size:99.99px;fill:#000000">Male </text>
</svg>
