<?xml version="1.0" encoding="UTF-8" standalone="no"?>
<!-- This is a Stata 16.0 generated SVG file (http://www.stata.com) -->

<svg version="1.1" width="5.50in" height="4.00in" viewBox="0 0 3960 2880" xmlns="http://www.w3.org/2000/svg" xmlns:xlink="http://www.w3.org/1999/xlink">
	<desc>Stata Graph - Graph</desc>
	<rect x="0" y="0" width="3960" height="2880" style="fill:#FFFFFF;stroke:none"/>
	<rect x="0.00" y="0.00" width="3959.88" height="2880.00" style="fill:#FFFFFF"/>
	<rect x="2.88" y="2.88" width="3954.12" height="2874.24" style="fill:none;stroke:#FFFFFF;stroke-width:5.76"/>
	<rect x="293.69" y="103.74" width="3562.45" height="2127.01" style="fill:none;stroke:#000000;stroke-width:5.76"/>
	<line x1="354.17" y1="1516.48" x2="354.17" y2="1082.60" style="stroke:#408840;stroke-opacity:0.80;stroke-width:8.64"/>
	<line x1="332.14" y1="1082.60" x2="376.20" y2="1082.60" stroke-linecap="round" style="stroke:#408840;stroke-opacity:0.80;stroke-width:8.64"/>
	<line x1="332.14" y1="1516.48" x2="376.20" y2="1516.48" stroke-linecap="round" style="stroke:#408840;stroke-opacity:0.80;stroke-width:8.64"/>
	<line x1="526.18" y1="1584.17" x2="526.18" y2="1189.15" style="stroke:#408840;stroke-opacity:0.80;stroke-width:8.64"/>
	<line x1="504.16" y1="1189.15" x2="548.21" y2="1189.15" stroke-linecap="round" style="stroke:#408840;stroke-opacity:0.80;stroke-width:8.64"/>
	<line x1="504.16" y1="1584.17" x2="548.21" y2="1584.17" stroke-linecap="round" style="stroke:#408840;stroke-opacity:0.80;stroke-width:8.64"/>
	<line x1="698.32" y1="1576.62" x2="698.32" y2="1224.42" style="stroke:#408840;stroke-opacity:0.80;stroke-width:8.64"/>
	<line x1="676.29" y1="1224.42" x2="720.35" y2="1224.42" stroke-linecap="round" style="stroke:#408840;stroke-opacity:0.80;stroke-width:8.64"/>
	<line x1="676.29" y1="1576.62" x2="720.35" y2="1576.62" stroke-linecap="round" style="stroke:#408840;stroke-opacity:0.80;stroke-width:8.64"/>
	<line x1="870.33" y1="1541.97" x2="870.33" y2="1222.81" style="stroke:#408840;stroke-opacity:0.80;stroke-width:8.64"/>
	<line x1="848.31" y1="1222.81" x2="892.36" y2="1222.81" stroke-linecap="round" style="stroke:#408840;stroke-opacity:0.80;stroke-width:8.64"/>
	<line x1="848.31" y1="1541.97" x2="892.36" y2="1541.97" stroke-linecap="round" style="stroke:#408840;stroke-opacity:0.80;stroke-width:8.64"/>
	<line x1="1042.47" y1="1544.20" x2="1042.47" y2="1262.54" style="stroke:#408840;stroke-opacity:0.80;stroke-width:8.64"/>
	<line x1="1020.44" y1="1262.54" x2="1064.50" y2="1262.54" stroke-linecap="round" style="stroke:#408840;stroke-opacity:0.80;stroke-width:8.64"/>
	<line x1="1020.44" y1="1544.20" x2="1064.50" y2="1544.20" stroke-linecap="round" style="stroke:#408840;stroke-opacity:0.80;stroke-width:8.64"/>
	<line x1="1214.48" y1="1544.82" x2="1214.48" y2="1290.63" style="stroke:#408840;stroke-opacity:0.80;stroke-width:8.64"/>
	<line x1="1192.45" y1="1290.63" x2="1236.51" y2="1290.63" stroke-linecap="round" style="stroke:#408840;stroke-opacity:0.80;stroke-width:8.64"/>
	<line x1="1192.45" y1="1544.82" x2="1236.51" y2="1544.82" stroke-linecap="round" style="stroke:#408840;stroke-opacity:0.80;stroke-width:8.64"/>
	<line x1="1386.62" y1="1504.10" x2="1386.62" y2="1266.13" style="stroke:#408840;stroke-opacity:0.80;stroke-width:8.64"/>
	<line x1="1364.59" y1="1266.13" x2="1408.65" y2="1266.13" stroke-linecap="round" style="stroke:#408840;stroke-opacity:0.80;stroke-width:8.64"/>
	<line x1="1364.59" y1="1504.10" x2="1408.65" y2="1504.10" stroke-linecap="round" style="stroke:#408840;stroke-opacity:0.80;stroke-width:8.64"/>
	<line x1="1558.76" y1="1515.86" x2="1558.76" y2="1305.48" style="stroke:#408840;stroke-opacity:0.80;stroke-width:8.64"/>
	<line x1="1536.73" y1="1305.48" x2="1580.78" y2="1305.48" stroke-linecap="round" style="stroke:#408840;stroke-opacity:0.80;stroke-width:8.64"/>
	<line x1="1536.73" y1="1515.86" x2="1580.78" y2="1515.86" stroke-linecap="round" style="stroke:#408840;stroke-opacity:0.80;stroke-width:8.64"/>
	<line x1="1730.77" y1="1530.84" x2="1730.77" y2="1398.29" style="stroke:#408840;stroke-opacity:0.80;stroke-width:8.64"/>
	<line x1="1708.74" y1="1398.29" x2="1752.80" y2="1398.29" stroke-linecap="round" style="stroke:#408840;stroke-opacity:0.80;stroke-width:8.64"/>
	<line x1="1708.74" y1="1530.84" x2="1752.80" y2="1530.84" stroke-linecap="round" style="stroke:#408840;stroke-opacity:0.80;stroke-width:8.64"/>
	<line x1="1902.90" y1="1501.63" x2="1902.90" y2="1501.63" style="stroke:#408840;stroke-opacity:0.80;stroke-width:8.64"/>
	<line x1="1880.88" y1="1501.63" x2="1924.93" y2="1501.63" stroke-linecap="round" style="stroke:#408840;stroke-opacity:0.80;stroke-width:8.64"/>
	<line x1="1880.88" y1="1501.63" x2="1924.93" y2="1501.63" stroke-linecap="round" style="stroke:#408840;stroke-opacity:0.80;stroke-width:8.64"/>
	<line x1="2074.92" y1="1592.71" x2="2074.92" y2="1411.29" style="stroke:#408840;stroke-opacity:0.80;stroke-width:8.64"/>
	<line x1="2052.89" y1="1411.29" x2="2096.94" y2="1411.29" stroke-linecap="round" style="stroke:#408840;stroke-opacity:0.80;stroke-width:8.64"/>
	<line x1="2052.89" y1="1592.71" x2="2096.94" y2="1592.71" stroke-linecap="round" style="stroke:#408840;stroke-opacity:0.80;stroke-width:8.64"/>
	<line x1="2247.05" y1="1552.62" x2="2247.05" y2="1380.85" style="stroke:#408840;stroke-opacity:0.80;stroke-width:8.64"/>
	<line x1="2225.03" y1="1380.85" x2="2269.08" y2="1380.85" stroke-linecap="round" style="stroke:#408840;stroke-opacity:0.80;stroke-width:8.64"/>
	<line x1="2225.03" y1="1552.62" x2="2269.08" y2="1552.62" stroke-linecap="round" style="stroke:#408840;stroke-opacity:0.80;stroke-width:8.64"/>
	<line x1="2419.07" y1="1540.61" x2="2419.07" y2="1344.71" style="stroke:#408840;stroke-opacity:0.80;stroke-width:8.64"/>
	<line x1="2397.04" y1="1344.71" x2="2441.09" y2="1344.71" stroke-linecap="round" style="stroke:#408840;stroke-opacity:0.80;stroke-width:8.64"/>
	<line x1="2397.04" y1="1540.61" x2="2441.09" y2="1540.61" stroke-linecap="round" style="stroke:#408840;stroke-opacity:0.80;stroke-width:8.64"/>
	<line x1="2591.20" y1="1578.73" x2="2591.20" y2="1336.79" style="stroke:#408840;stroke-opacity:0.80;stroke-width:8.64"/>
	<line x1="2569.17" y1="1336.79" x2="2613.23" y2="1336.79" stroke-linecap="round" style="stroke:#408840;stroke-opacity:0.80;stroke-width:8.64"/>
	<line x1="2569.17" y1="1578.73" x2="2613.23" y2="1578.73" stroke-linecap="round" style="stroke:#408840;stroke-opacity:0.80;stroke-width:8.64"/>
	<line x1="2763.21" y1="1589.37" x2="2763.21" y2="1314.51" style="stroke:#408840;stroke-opacity:0.80;stroke-width:8.64"/>
	<line x1="2741.19" y1="1314.51" x2="2785.24" y2="1314.51" stroke-linecap="round" style="stroke:#408840;stroke-opacity:0.80;stroke-width:8.64"/>
	<line x1="2741.19" y1="1589.37" x2="2785.24" y2="1589.37" stroke-linecap="round" style="stroke:#408840;stroke-opacity:0.80;stroke-width:8.64"/>
	<line x1="2935.35" y1="1676.74" x2="2935.35" y2="1360.67" style="stroke:#408840;stroke-opacity:0.80;stroke-width:8.64"/>
	<line x1="2913.32" y1="1360.67" x2="2957.38" y2="1360.67" stroke-linecap="round" style="stroke:#408840;stroke-opacity:0.80;stroke-width:8.64"/>
	<line x1="2913.32" y1="1676.74" x2="2957.38" y2="1676.74" stroke-linecap="round" style="stroke:#408840;stroke-opacity:0.80;stroke-width:8.64"/>
	<line x1="3107.36" y1="1699.64" x2="3107.36" y2="1331.34" style="stroke:#408840;stroke-opacity:0.80;stroke-width:8.64"/>
	<line x1="3085.34" y1="1331.34" x2="3129.39" y2="1331.34" stroke-linecap="round" style="stroke:#408840;stroke-opacity:0.80;stroke-width:8.64"/>
	<line x1="3085.34" y1="1699.64" x2="3129.39" y2="1699.64" stroke-linecap="round" style="stroke:#408840;stroke-opacity:0.80;stroke-width:8.64"/>
	<line x1="3279.50" y1="1756.81" x2="3279.50" y2="1344.83" style="stroke:#408840;stroke-opacity:0.80;stroke-width:8.64"/>
	<line x1="3257.47" y1="1344.83" x2="3301.53" y2="1344.83" stroke-linecap="round" style="stroke:#408840;stroke-opacity:0.80;stroke-width:8.64"/>
	<line x1="3257.47" y1="1756.81" x2="3301.53" y2="1756.81" stroke-linecap="round" style="stroke:#408840;stroke-opacity:0.80;stroke-width:8.64"/>
	<line x1="3451.51" y1="1714.61" x2="3451.51" y2="1212.66" style="stroke:#408840;stroke-opacity:0.80;stroke-width:8.64"/>
	<line x1="3429.48" y1="1212.66" x2="3473.54" y2="1212.66" stroke-linecap="round" style="stroke:#408840;stroke-opacity:0.80;stroke-width:8.64"/>
	<line x1="3429.48" y1="1714.61" x2="3473.54" y2="1714.61" stroke-linecap="round" style="stroke:#408840;stroke-opacity:0.80;stroke-width:8.64"/>
	<line x1="3623.65" y1="1739.61" x2="3623.65" y2="1175.41" style="stroke:#408840;stroke-opacity:0.80;stroke-width:8.64"/>
	<line x1="3601.62" y1="1175.41" x2="3645.68" y2="1175.41" stroke-linecap="round" style="stroke:#408840;stroke-opacity:0.80;stroke-width:8.64"/>
	<line x1="3601.62" y1="1739.61" x2="3645.68" y2="1739.61" stroke-linecap="round" style="stroke:#408840;stroke-opacity:0.80;stroke-width:8.64"/>
	<line x1="3795.66" y1="1729.34" x2="3795.66" y2="1148.44" style="stroke:#408840;stroke-opacity:0.80;stroke-width:8.64"/>
	<line x1="3773.63" y1="1148.44" x2="3817.69" y2="1148.44" stroke-linecap="round" style="stroke:#408840;stroke-opacity:0.80;stroke-width:8.64"/>
	<line x1="3773.63" y1="1729.34" x2="3817.69" y2="1729.34" stroke-linecap="round" style="stroke:#408840;stroke-opacity:0.80;stroke-width:8.64"/>
	<circle cx="354.05" cy="1299.66" r="26.35" style="fill:#006000"/>
	<circle cx="354.05" cy="1299.66" r="22.03" style="fill:none;stroke:#006000;stroke-width:8.64"/>
	<circle cx="526.18" cy="1386.66" r="26.35" style="fill:#006000"/>
	<circle cx="526.18" cy="1386.66" r="22.03" style="fill:none;stroke:#006000;stroke-width:8.64"/>
	<circle cx="698.20" cy="1400.52" r="26.35" style="fill:#006000"/>
	<circle cx="698.20" cy="1400.52" r="22.03" style="fill:none;stroke:#006000;stroke-width:8.64"/>
	<circle cx="870.33" cy="1382.45" r="26.35" style="fill:#006000"/>
	<circle cx="870.33" cy="1382.45" r="22.03" style="fill:none;stroke:#006000;stroke-width:8.64"/>
	<circle cx="1042.35" cy="1403.49" r="26.35" style="fill:#006000"/>
	<circle cx="1042.35" cy="1403.49" r="22.03" style="fill:none;stroke:#006000;stroke-width:8.64"/>
	<circle cx="1214.48" cy="1417.85" r="26.35" style="fill:#006000"/>
	<circle cx="1214.48" cy="1417.85" r="22.03" style="fill:none;stroke:#006000;stroke-width:8.64"/>
	<circle cx="1386.49" cy="1385.18" r="26.35" style="fill:#006000"/>
	<circle cx="1386.49" cy="1385.18" r="22.03" style="fill:none;stroke:#006000;stroke-width:8.64"/>
	<circle cx="1558.63" cy="1410.79" r="26.35" style="fill:#006000"/>
	<circle cx="1558.63" cy="1410.79" r="22.03" style="fill:none;stroke:#006000;stroke-width:8.64"/>
	<circle cx="1730.77" cy="1464.63" r="26.35" style="fill:#006000"/>
	<circle cx="1730.77" cy="1464.63" r="22.03" style="fill:none;stroke:#006000;stroke-width:8.64"/>
	<circle cx="1902.78" cy="1501.63" r="26.35" style="fill:#006000"/>
	<circle cx="1902.78" cy="1501.63" r="22.03" style="fill:none;stroke:#006000;stroke-width:8.64"/>
	<circle cx="2074.92" cy="1502.12" r="26.35" style="fill:#006000"/>
	<circle cx="2074.92" cy="1502.12" r="22.03" style="fill:none;stroke:#006000;stroke-width:8.64"/>
	<circle cx="2246.93" cy="1466.73" r="26.35" style="fill:#006000"/>
	<circle cx="2246.93" cy="1466.73" r="22.03" style="fill:none;stroke:#006000;stroke-width:8.64"/>
	<circle cx="2419.07" cy="1442.72" r="26.35" style="fill:#006000"/>
	<circle cx="2419.07" cy="1442.72" r="22.03" style="fill:none;stroke:#006000;stroke-width:8.64"/>
	<circle cx="2591.08" cy="1457.82" r="26.35" style="fill:#006000"/>
	<circle cx="2591.08" cy="1457.82" r="22.03" style="fill:none;stroke:#006000;stroke-width:8.64"/>
	<circle cx="2763.21" cy="1452.00" r="26.35" style="fill:#006000"/>
	<circle cx="2763.21" cy="1452.00" r="22.03" style="fill:none;stroke:#006000;stroke-width:8.64"/>
	<circle cx="2935.23" cy="1518.83" r="26.35" style="fill:#006000"/>
	<circle cx="2935.23" cy="1518.83" r="22.03" style="fill:none;stroke:#006000;stroke-width:8.64"/>
	<circle cx="3107.36" cy="1515.49" r="26.35" style="fill:#006000"/>
	<circle cx="3107.36" cy="1515.49" r="22.03" style="fill:none;stroke:#006000;stroke-width:8.64"/>
	<circle cx="3279.38" cy="1550.88" r="26.35" style="fill:#006000"/>
	<circle cx="3279.38" cy="1550.88" r="22.03" style="fill:none;stroke:#006000;stroke-width:8.64"/>
	<circle cx="3451.51" cy="1463.76" r="26.35" style="fill:#006000"/>
	<circle cx="3451.51" cy="1463.76" r="22.03" style="fill:none;stroke:#006000;stroke-width:8.64"/>
	<circle cx="3623.52" cy="1457.57" r="26.35" style="fill:#006000"/>
	<circle cx="3623.52" cy="1457.57" r="22.03" style="fill:none;stroke:#006000;stroke-width:8.64"/>
	<circle cx="3795.66" cy="1439.01" r="26.35" style="fill:#006000"/>
	<circle cx="3795.66" cy="1439.01" r="22.03" style="fill:none;stroke:#006000;stroke-width:8.64"/>
	<line x1="354.17" y1="1921.03" x2="354.17" y2="971.34" style="stroke:#FF7440;stroke-opacity:0.80;stroke-width:8.64"/>
	<line x1="332.14" y1="971.34" x2="376.20" y2="971.34" stroke-linecap="round" style="stroke:#FF7440;stroke-opacity:0.80;stroke-width:8.64"/>
	<line x1="332.14" y1="1921.03" x2="376.20" y2="1921.03" stroke-linecap="round" style="stroke:#FF7440;stroke-opacity:0.80;stroke-width:8.64"/>
	<line x1="526.18" y1="1772.03" x2="526.18" y2="950.06" style="stroke:#FF7440;stroke-opacity:0.80;stroke-width:8.64"/>
	<line x1="504.16" y1="950.06" x2="548.21" y2="950.06" stroke-linecap="round" style="stroke:#FF7440;stroke-opacity:0.80;stroke-width:8.64"/>
	<line x1="504.16" y1="1772.03" x2="548.21" y2="1772.03" stroke-linecap="round" style="stroke:#FF7440;stroke-opacity:0.80;stroke-width:8.64"/>
	<line x1="698.32" y1="1713.37" x2="698.32" y2="959.46" style="stroke:#FF7440;stroke-opacity:0.80;stroke-width:8.64"/>
	<line x1="676.29" y1="959.46" x2="720.35" y2="959.46" stroke-linecap="round" style="stroke:#FF7440;stroke-opacity:0.80;stroke-width:8.64"/>
	<line x1="676.29" y1="1713.37" x2="720.35" y2="1713.37" stroke-linecap="round" style="stroke:#FF7440;stroke-opacity:0.80;stroke-width:8.64"/>
	<line x1="870.33" y1="1705.95" x2="870.33" y2="1056.86" style="stroke:#FF7440;stroke-opacity:0.80;stroke-width:8.64"/>
	<line x1="848.31" y1="1056.86" x2="892.36" y2="1056.86" stroke-linecap="round" style="stroke:#FF7440;stroke-opacity:0.80;stroke-width:8.64"/>
	<line x1="848.31" y1="1705.95" x2="892.36" y2="1705.95" stroke-linecap="round" style="stroke:#FF7440;stroke-opacity:0.80;stroke-width:8.64"/>
	<line x1="1042.47" y1="1647.29" x2="1042.47" y2="1086.56" style="stroke:#FF7440;stroke-opacity:0.80;stroke-width:8.64"/>
	<line x1="1020.44" y1="1086.56" x2="1064.50" y2="1086.56" stroke-linecap="round" style="stroke:#FF7440;stroke-opacity:0.80;stroke-width:8.64"/>
	<line x1="1020.44" y1="1647.29" x2="1064.50" y2="1647.29" stroke-linecap="round" style="stroke:#FF7440;stroke-opacity:0.80;stroke-width:8.64"/>
	<line x1="1214.48" y1="1499.53" x2="1214.48" y2="1010.95" style="stroke:#FF7440;stroke-opacity:0.80;stroke-width:8.64"/>
	<line x1="1192.45" y1="1010.95" x2="1236.51" y2="1010.95" stroke-linecap="round" style="stroke:#FF7440;stroke-opacity:0.80;stroke-width:8.64"/>
	<line x1="1192.45" y1="1499.53" x2="1236.51" y2="1499.53" stroke-linecap="round" style="stroke:#FF7440;stroke-opacity:0.80;stroke-width:8.64"/>
	<line x1="1386.62" y1="1402.13" x2="1386.62" y2="959.34" style="stroke:#FF7440;stroke-opacity:0.80;stroke-width:8.64"/>
	<line x1="1364.59" y1="959.34" x2="1408.65" y2="959.34" stroke-linecap="round" style="stroke:#FF7440;stroke-opacity:0.80;stroke-width:8.64"/>
	<line x1="1364.59" y1="1402.13" x2="1408.65" y2="1402.13" stroke-linecap="round" style="stroke:#FF7440;stroke-opacity:0.80;stroke-width:8.64"/>
	<line x1="1558.76" y1="1534.18" x2="1558.76" y2="1167.87" style="stroke:#FF7440;stroke-opacity:0.80;stroke-width:8.64"/>
	<line x1="1536.73" y1="1167.87" x2="1580.78" y2="1167.87" stroke-linecap="round" style="stroke:#FF7440;stroke-opacity:0.80;stroke-width:8.64"/>
	<line x1="1536.73" y1="1534.18" x2="1580.78" y2="1534.18" stroke-linecap="round" style="stroke:#FF7440;stroke-opacity:0.80;stroke-width:8.64"/>
	<line x1="1730.77" y1="1542.47" x2="1730.77" y2="1266.37" style="stroke:#FF7440;stroke-opacity:0.80;stroke-width:8.64"/>
	<line x1="1708.74" y1="1266.37" x2="1752.80" y2="1266.37" stroke-linecap="round" style="stroke:#FF7440;stroke-opacity:0.80;stroke-width:8.64"/>
	<line x1="1708.74" y1="1542.47" x2="1752.80" y2="1542.47" stroke-linecap="round" style="stroke:#FF7440;stroke-opacity:0.80;stroke-width:8.64"/>
	<line x1="1902.90" y1="1501.63" x2="1902.90" y2="1501.63" style="stroke:#FF7440;stroke-opacity:0.80;stroke-width:8.64"/>
	<line x1="1880.88" y1="1501.63" x2="1924.93" y2="1501.63" stroke-linecap="round" style="stroke:#FF7440;stroke-opacity:0.80;stroke-width:8.64"/>
	<line x1="1880.88" y1="1501.63" x2="1924.93" y2="1501.63" stroke-linecap="round" style="stroke:#FF7440;stroke-opacity:0.80;stroke-width:8.64"/>
	<line x1="2074.92" y1="1688.50" x2="2074.92" y2="1326.64" style="stroke:#FF7440;stroke-opacity:0.80;stroke-width:8.64"/>
	<line x1="2052.89" y1="1326.64" x2="2096.94" y2="1326.64" stroke-linecap="round" style="stroke:#FF7440;stroke-opacity:0.80;stroke-width:8.64"/>
	<line x1="2052.89" y1="1688.50" x2="2096.94" y2="1688.50" stroke-linecap="round" style="stroke:#FF7440;stroke-opacity:0.80;stroke-width:8.64"/>
	<line x1="2247.05" y1="1623.65" x2="2247.05" y2="1256.84" style="stroke:#FF7440;stroke-opacity:0.80;stroke-width:8.64"/>
	<line x1="2225.03" y1="1256.84" x2="2269.08" y2="1256.84" stroke-linecap="round" style="stroke:#FF7440;stroke-opacity:0.80;stroke-width:8.64"/>
	<line x1="2225.03" y1="1623.65" x2="2269.08" y2="1623.65" stroke-linecap="round" style="stroke:#FF7440;stroke-opacity:0.80;stroke-width:8.64"/>
	<line x1="2419.07" y1="1572.42" x2="2419.07" y2="1198.06" style="stroke:#FF7440;stroke-opacity:0.80;stroke-width:8.64"/>
	<line x1="2397.04" y1="1198.06" x2="2441.09" y2="1198.06" stroke-linecap="round" style="stroke:#FF7440;stroke-opacity:0.80;stroke-width:8.64"/>
	<line x1="2397.04" y1="1572.42" x2="2441.09" y2="1572.42" stroke-linecap="round" style="stroke:#FF7440;stroke-opacity:0.80;stroke-width:8.64"/>
	<line x1="2591.20" y1="1551.63" x2="2591.20" y2="1159.70" style="stroke:#FF7440;stroke-opacity:0.80;stroke-width:8.64"/>
	<line x1="2569.17" y1="1159.70" x2="2613.23" y2="1159.70" stroke-linecap="round" style="stroke:#FF7440;stroke-opacity:0.80;stroke-width:8.64"/>
	<line x1="2569.17" y1="1551.63" x2="2613.23" y2="1551.63" stroke-linecap="round" style="stroke:#FF7440;stroke-opacity:0.80;stroke-width:8.64"/>
	<line x1="2763.21" y1="1598.16" x2="2763.21" y2="1097.94" style="stroke:#FF7440;stroke-opacity:0.80;stroke-width:8.64"/>
	<line x1="2741.19" y1="1097.94" x2="2785.24" y2="1097.94" stroke-linecap="round" style="stroke:#FF7440;stroke-opacity:0.80;stroke-width:8.64"/>
	<line x1="2741.19" y1="1598.16" x2="2785.24" y2="1598.16" stroke-linecap="round" style="stroke:#FF7440;stroke-opacity:0.80;stroke-width:8.64"/>
	<line x1="2935.35" y1="1698.03" x2="2935.35" y2="1041.02" style="stroke:#FF7440;stroke-opacity:0.80;stroke-width:8.64"/>
	<line x1="2913.32" y1="1041.02" x2="2957.38" y2="1041.02" stroke-linecap="round" style="stroke:#FF7440;stroke-opacity:0.80;stroke-width:8.64"/>
	<line x1="2913.32" y1="1698.03" x2="2957.38" y2="1698.03" stroke-linecap="round" style="stroke:#FF7440;stroke-opacity:0.80;stroke-width:8.64"/>
	<line x1="3107.36" y1="1711.52" x2="3107.36" y2="1014.41" style="stroke:#FF7440;stroke-opacity:0.80;stroke-width:8.64"/>
	<line x1="3085.34" y1="1014.41" x2="3129.39" y2="1014.41" stroke-linecap="round" style="stroke:#FF7440;stroke-opacity:0.80;stroke-width:8.64"/>
	<line x1="3085.34" y1="1711.52" x2="3129.39" y2="1711.52" stroke-linecap="round" style="stroke:#FF7440;stroke-opacity:0.80;stroke-width:8.64"/>
	<line x1="3279.50" y1="1677.73" x2="3279.50" y2="914.91" style="stroke:#FF7440;stroke-opacity:0.80;stroke-width:8.64"/>
	<line x1="3257.47" y1="914.91" x2="3301.53" y2="914.91" stroke-linecap="round" style="stroke:#FF7440;stroke-opacity:0.80;stroke-width:8.64"/>
	<line x1="3257.47" y1="1677.73" x2="3301.53" y2="1677.73" stroke-linecap="round" style="stroke:#FF7440;stroke-opacity:0.80;stroke-width:8.64"/>
	<line x1="3451.51" y1="1541.73" x2="3451.51" y2="613.70" style="stroke:#FF7440;stroke-opacity:0.80;stroke-width:8.64"/>
	<line x1="3429.48" y1="613.70" x2="3473.54" y2="613.70" stroke-linecap="round" style="stroke:#FF7440;stroke-opacity:0.80;stroke-width:8.64"/>
	<line x1="3429.48" y1="1541.73" x2="3473.54" y2="1541.73" stroke-linecap="round" style="stroke:#FF7440;stroke-opacity:0.80;stroke-width:8.64"/>
	<line x1="3623.65" y1="1293.60" x2="3623.65" y2="395.02" style="stroke:#FF7440;stroke-opacity:0.80;stroke-width:8.64"/>
	<line x1="3601.62" y1="395.02" x2="3645.68" y2="395.02" stroke-linecap="round" style="stroke:#FF7440;stroke-opacity:0.80;stroke-width:8.64"/>
	<line x1="3601.62" y1="1293.60" x2="3645.68" y2="1293.60" stroke-linecap="round" style="stroke:#FF7440;stroke-opacity:0.80;stroke-width:8.64"/>
	<line x1="3795.66" y1="1252.64" x2="3795.66" y2="303.57" style="stroke:#FF7440;stroke-opacity:0.80;stroke-width:8.64"/>
	<line x1="3773.63" y1="303.57" x2="3817.69" y2="303.57" stroke-linecap="round" style="stroke:#FF7440;stroke-opacity:0.80;stroke-width:8.64"/>
	<line x1="3773.63" y1="1252.64" x2="3817.69" y2="1252.64" stroke-linecap="round" style="stroke:#FF7440;stroke-opacity:0.80;stroke-width:8.64"/>
	<circle cx="354.05" cy="1446.31" r="26.35" style="fill:#FF4500"/>
	<circle cx="354.05" cy="1446.31" r="22.03" style="fill:none;stroke:#FF4500;stroke-width:8.64"/>
	<circle cx="526.18" cy="1361.17" r="26.35" style="fill:#FF4500"/>
	<circle cx="526.18" cy="1361.17" r="22.03" style="fill:none;stroke:#FF4500;stroke-width:8.64"/>
	<circle cx="698.20" cy="1336.54" r="26.35" style="fill:#FF4500"/>
	<circle cx="698.20" cy="1336.54" r="22.03" style="fill:none;stroke:#FF4500;stroke-width:8.64"/>
	<circle cx="870.33" cy="1381.46" r="26.35" style="fill:#FF4500"/>
	<circle cx="870.33" cy="1381.46" r="22.03" style="fill:none;stroke:#FF4500;stroke-width:8.64"/>
	<circle cx="1042.35" cy="1366.99" r="26.35" style="fill:#FF4500"/>
	<circle cx="1042.35" cy="1366.99" r="22.03" style="fill:none;stroke:#FF4500;stroke-width:8.64"/>
	<circle cx="1214.48" cy="1255.24" r="26.35" style="fill:#FF4500"/>
	<circle cx="1214.48" cy="1255.24" r="22.03" style="fill:none;stroke:#FF4500;stroke-width:8.64"/>
	<circle cx="1386.49" cy="1180.74" r="26.35" style="fill:#FF4500"/>
	<circle cx="1386.49" cy="1180.74" r="22.03" style="fill:none;stroke:#FF4500;stroke-width:8.64"/>
	<circle cx="1558.63" cy="1351.14" r="26.35" style="fill:#FF4500"/>
	<circle cx="1558.63" cy="1351.14" r="22.03" style="fill:none;stroke:#FF4500;stroke-width:8.64"/>
	<circle cx="1730.77" cy="1404.48" r="26.35" style="fill:#FF4500"/>
	<circle cx="1730.77" cy="1404.48" r="22.03" style="fill:none;stroke:#FF4500;stroke-width:8.64"/>
	<circle cx="1902.78" cy="1501.63" r="26.35" style="fill:#FF4500"/>
	<circle cx="1902.78" cy="1501.63" r="22.03" style="fill:none;stroke:#FF4500;stroke-width:8.64"/>
	<circle cx="2074.92" cy="1507.69" r="26.35" style="fill:#FF4500"/>
	<circle cx="2074.92" cy="1507.69" r="22.03" style="fill:none;stroke:#FF4500;stroke-width:8.64"/>
	<circle cx="2246.93" cy="1440.37" r="26.35" style="fill:#FF4500"/>
	<circle cx="2246.93" cy="1440.37" r="22.03" style="fill:none;stroke:#FF4500;stroke-width:8.64"/>
	<circle cx="2419.07" cy="1385.30" r="26.35" style="fill:#FF4500"/>
	<circle cx="2419.07" cy="1385.30" r="22.03" style="fill:none;stroke:#FF4500;stroke-width:8.64"/>
	<circle cx="2591.08" cy="1355.72" r="26.35" style="fill:#FF4500"/>
	<circle cx="2591.08" cy="1355.72" r="22.03" style="fill:none;stroke:#FF4500;stroke-width:8.64"/>
	<circle cx="2763.21" cy="1348.05" r="26.35" style="fill:#FF4500"/>
	<circle cx="2763.21" cy="1348.05" r="22.03" style="fill:none;stroke:#FF4500;stroke-width:8.64"/>
	<circle cx="2935.23" cy="1369.58" r="26.35" style="fill:#FF4500"/>
	<circle cx="2935.23" cy="1369.58" r="22.03" style="fill:none;stroke:#FF4500;stroke-width:8.64"/>
	<circle cx="3107.36" cy="1363.03" r="26.35" style="fill:#FF4500"/>
	<circle cx="3107.36" cy="1363.03" r="22.03" style="fill:none;stroke:#FF4500;stroke-width:8.64"/>
	<circle cx="3279.38" cy="1296.45" r="26.35" style="fill:#FF4500"/>
	<circle cx="3279.38" cy="1296.45" r="22.03" style="fill:none;stroke:#FF4500;stroke-width:8.64"/>
	<circle cx="3451.51" cy="1077.77" r="26.35" style="fill:#FF4500"/>
	<circle cx="3451.51" cy="1077.77" r="22.03" style="fill:none;stroke:#FF4500;stroke-width:8.64"/>
	<circle cx="3623.52" cy="844.37" r="26.35" style="fill:#FF4500"/>
	<circle cx="3623.52" cy="844.37" r="22.03" style="fill:none;stroke:#FF4500;stroke-width:8.64"/>
	<circle cx="3795.66" cy="778.16" r="26.35" style="fill:#FF4500"/>
	<circle cx="3795.66" cy="778.16" r="22.03" style="fill:none;stroke:#FF4500;stroke-width:8.64"/>
	<line x1="290.81" y1="2233.63" x2="290.81" y2="100.86" style="stroke:#000000;stroke-width:5.76"/>
	<line x1="290.81" y1="2170.27" x2="250.84" y2="2170.27" style="stroke:#000000;stroke-width:5.76"/>
	<text x="200.73" y="2170.27" style="font-family:'Helvetica';font-size:99.99px;fill:#000000" transform="rotate(-90 200.73,2170.27)" text-anchor="middle">-.5</text>
	<line x1="290.81" y1="1501.63" x2="250.84" y2="1501.63" style="stroke:#000000;stroke-width:5.76"/>
	<text x="200.73" y="1501.63" style="font-family:'Helvetica';font-size:99.99px;fill:#000000" transform="rotate(-90 200.73,1501.63)" text-anchor="middle">0</text>
	<line x1="290.81" y1="832.86" x2="250.84" y2="832.86" style="stroke:#000000;stroke-width:5.76"/>
	<text x="200.73" y="832.86" style="font-family:'Helvetica';font-size:99.99px;fill:#000000" transform="rotate(-90 200.73,832.86)" text-anchor="middle">.5</text>
	<line x1="290.81" y1="164.22" x2="250.84" y2="164.22" style="stroke:#000000;stroke-width:5.76"/>
	<text x="200.73" y="164.22" style="font-family:'Helvetica';font-size:99.99px;fill:#000000" transform="rotate(-90 200.73,164.22)" text-anchor="middle">1</text>
	<line x1="290.81" y1="2233.63" x2="3859.02" y2="2233.63" style="stroke:#000000;stroke-width:5.76"/>
	<line x1="354.17" y1="2233.63" x2="354.17" y2="2273.73" style="stroke:#000000;stroke-width:5.76"/>
	<text x="354.17" y="2363.59" style="font-family:'Helvetica';font-size:99.99px;fill:#000000" text-anchor="middle">-10</text>
	<line x1="1214.48" y1="2233.63" x2="1214.48" y2="2273.73" style="stroke:#000000;stroke-width:5.76"/>
	<text x="1214.48" y="2363.59" style="font-family:'Helvetica';font-size:99.99px;fill:#000000" text-anchor="middle">-5</text>
	<line x1="2074.92" y1="2233.63" x2="2074.92" y2="2273.73" style="stroke:#000000;stroke-width:5.76"/>
	<text x="2074.92" y="2363.59" style="font-family:'Helvetica';font-size:99.99px;fill:#000000" text-anchor="middle">0</text>
	<line x1="2935.35" y1="2233.63" x2="2935.35" y2="2273.73" style="stroke:#000000;stroke-width:5.76"/>
	<text x="2935.35" y="2363.59" style="font-family:'Helvetica';font-size:99.99px;fill:#000000" text-anchor="middle">5</text>
	<line x1="3795.66" y1="2233.63" x2="3795.66" y2="2273.73" style="stroke:#000000;stroke-width:5.76"/>
	<text x="3795.66" y="2363.59" style="font-family:'Helvetica';font-size:99.99px;fill:#000000" text-anchor="middle">10</text>
	<text x="2074.92" y="2473.60" style="font-family:'Helvetica';font-size:99.99px;fill:#000000" text-anchor="middle">x</text>
	<rect x="1542.79" y="2558.24" width="1064.37" height="186.37" style="fill:#FFFFFF"/>
	<rect x="1545.67" y="2561.12" width="1058.61" height="180.61" style="fill:none;stroke:#000000;stroke-width:5.76"/>
	<circle cx="1608.01" cy="2651.43" r="26.35" style="fill:#006000"/>
	<circle cx="1608.01" cy="2651.43" r="22.03" style="fill:none;stroke:#006000;stroke-width:8.64"/>
	<circle cx="2231.09" cy="2651.43" r="26.35" style="fill:#FF4500"/>
	<circle cx="2231.09" cy="2651.43" r="22.03" style="fill:none;stroke:#FF4500;stroke-width:8.64"/>
	<text x="1689.93" y="2686.46" style="font-family:'Helvetica';font-size:99.99px;fill:#000000">Female </text>
	<text x="2313.14" y="2686.46" style="font-family:'Helvetica';font-size:99.99px;fill:#000000">Male </text>
</svg>
