<?xml version="1.0" encoding="UTF-8" standalone="no"?>
<!-- This is a Stata 16.0 generated SVG file (http://www.stata.com) -->

<svg version="1.1" width="5.50in" height="4.00in" viewBox="0 0 3960 2880" xmlns="http://www.w3.org/2000/svg" xmlns:xlink="http://www.w3.org/1999/xlink">
	<desc>Stata Graph - Graph</desc>
	<rect x="0" y="0" width="3960" height="2880" style="fill:#FFFFFF;stroke:none"/>
	<rect x="0.00" y="0.00" width="3959.88" height="2880.00" style="fill:#FFFFFF"/>
	<rect x="2.88" y="2.88" width="3954.12" height="2874.24" style="fill:none;stroke:#FFFFFF;stroke-width:5.76"/>
	<rect x="293.69" y="103.74" width="3562.45" height="2127.01" style="fill:none;stroke:#000000;stroke-width:5.76"/>
	<line x1="354.17" y1="1510.54" x2="354.17" y2="1046.34" style="stroke:#408840;stroke-opacity:0.80;stroke-width:8.64"/>
	<line x1="332.14" y1="1046.34" x2="376.20" y2="1046.34" stroke-linecap="round" style="stroke:#408840;stroke-opacity:0.80;stroke-width:8.64"/>
	<line x1="332.14" y1="1510.54" x2="376.20" y2="1510.54" stroke-linecap="round" style="stroke:#408840;stroke-opacity:0.80;stroke-width:8.64"/>
	<line x1="526.18" y1="1606.57" x2="526.18" y2="1118.98" style="stroke:#408840;stroke-opacity:0.80;stroke-width:8.64"/>
	<line x1="504.16" y1="1118.98" x2="548.21" y2="1118.98" stroke-linecap="round" style="stroke:#408840;stroke-opacity:0.80;stroke-width:8.64"/>
	<line x1="504.16" y1="1606.57" x2="548.21" y2="1606.57" stroke-linecap="round" style="stroke:#408840;stroke-opacity:0.80;stroke-width:8.64"/>
	<line x1="698.32" y1="1629.59" x2="698.32" y2="1125.42" style="stroke:#408840;stroke-opacity:0.80;stroke-width:8.64"/>
	<line x1="676.29" y1="1125.42" x2="720.35" y2="1125.42" stroke-linecap="round" style="stroke:#408840;stroke-opacity:0.80;stroke-width:8.64"/>
	<line x1="676.29" y1="1629.59" x2="720.35" y2="1629.59" stroke-linecap="round" style="stroke:#408840;stroke-opacity:0.80;stroke-width:8.64"/>
	<line x1="870.33" y1="1514.00" x2="870.33" y2="1214.03" style="stroke:#408840;stroke-opacity:0.80;stroke-width:8.64"/>
	<line x1="848.31" y1="1214.03" x2="892.36" y2="1214.03" stroke-linecap="round" style="stroke:#408840;stroke-opacity:0.80;stroke-width:8.64"/>
	<line x1="848.31" y1="1514.00" x2="892.36" y2="1514.00" stroke-linecap="round" style="stroke:#408840;stroke-opacity:0.80;stroke-width:8.64"/>
	<line x1="1042.47" y1="1528.11" x2="1042.47" y2="1245.21" style="stroke:#408840;stroke-opacity:0.80;stroke-width:8.64"/>
	<line x1="1020.44" y1="1245.21" x2="1064.50" y2="1245.21" stroke-linecap="round" style="stroke:#408840;stroke-opacity:0.80;stroke-width:8.64"/>
	<line x1="1020.44" y1="1528.11" x2="1064.50" y2="1528.11" stroke-linecap="round" style="stroke:#408840;stroke-opacity:0.80;stroke-width:8.64"/>
	<line x1="1214.48" y1="1529.60" x2="1214.48" y2="1274.79" style="stroke:#408840;stroke-opacity:0.80;stroke-width:8.64"/>
	<line x1="1192.45" y1="1274.79" x2="1236.51" y2="1274.79" stroke-linecap="round" style="stroke:#408840;stroke-opacity:0.80;stroke-width:8.64"/>
	<line x1="1192.45" y1="1529.60" x2="1236.51" y2="1529.60" stroke-linecap="round" style="stroke:#408840;stroke-opacity:0.80;stroke-width:8.64"/>
	<line x1="1386.62" y1="1485.91" x2="1386.62" y2="1247.32" style="stroke:#408840;stroke-opacity:0.80;stroke-width:8.64"/>
	<line x1="1364.59" y1="1247.32" x2="1408.65" y2="1247.32" stroke-linecap="round" style="stroke:#408840;stroke-opacity:0.80;stroke-width:8.64"/>
	<line x1="1364.59" y1="1485.91" x2="1408.65" y2="1485.91" stroke-linecap="round" style="stroke:#408840;stroke-opacity:0.80;stroke-width:8.64"/>
	<line x1="1558.76" y1="1500.76" x2="1558.76" y2="1287.66" style="stroke:#408840;stroke-opacity:0.80;stroke-width:8.64"/>
	<line x1="1536.73" y1="1287.66" x2="1580.78" y2="1287.66" stroke-linecap="round" style="stroke:#408840;stroke-opacity:0.80;stroke-width:8.64"/>
	<line x1="1536.73" y1="1500.76" x2="1580.78" y2="1500.76" stroke-linecap="round" style="stroke:#408840;stroke-opacity:0.80;stroke-width:8.64"/>
	<line x1="1730.77" y1="1519.57" x2="1730.77" y2="1381.71" style="stroke:#408840;stroke-opacity:0.80;stroke-width:8.64"/>
	<line x1="1708.74" y1="1381.71" x2="1752.80" y2="1381.71" stroke-linecap="round" style="stroke:#408840;stroke-opacity:0.80;stroke-width:8.64"/>
	<line x1="1708.74" y1="1519.57" x2="1752.80" y2="1519.57" stroke-linecap="round" style="stroke:#408840;stroke-opacity:0.80;stroke-width:8.64"/>
	<line x1="1902.90" y1="1501.63" x2="1902.90" y2="1501.63" style="stroke:#408840;stroke-opacity:0.80;stroke-width:8.64"/>
	<line x1="1880.88" y1="1501.63" x2="1924.93" y2="1501.63" stroke-linecap="round" style="stroke:#408840;stroke-opacity:0.80;stroke-width:8.64"/>
	<line x1="1880.88" y1="1501.63" x2="1924.93" y2="1501.63" stroke-linecap="round" style="stroke:#408840;stroke-opacity:0.80;stroke-width:8.64"/>
	<line x1="2074.92" y1="1580.34" x2="2074.92" y2="1403.37" style="stroke:#408840;stroke-opacity:0.80;stroke-width:8.64"/>
	<line x1="2052.89" y1="1403.37" x2="2096.94" y2="1403.37" stroke-linecap="round" style="stroke:#408840;stroke-opacity:0.80;stroke-width:8.64"/>
	<line x1="2052.89" y1="1580.34" x2="2096.94" y2="1580.34" stroke-linecap="round" style="stroke:#408840;stroke-opacity:0.80;stroke-width:8.64"/>
	<line x1="2247.05" y1="1544.94" x2="2247.05" y2="1368.59" style="stroke:#408840;stroke-opacity:0.80;stroke-width:8.64"/>
	<line x1="2225.03" y1="1368.59" x2="2269.08" y2="1368.59" stroke-linecap="round" style="stroke:#408840;stroke-opacity:0.80;stroke-width:8.64"/>
	<line x1="2225.03" y1="1544.94" x2="2269.08" y2="1544.94" stroke-linecap="round" style="stroke:#408840;stroke-opacity:0.80;stroke-width:8.64"/>
	<line x1="2419.07" y1="1528.24" x2="2419.07" y2="1332.09" style="stroke:#408840;stroke-opacity:0.80;stroke-width:8.64"/>
	<line x1="2397.04" y1="1332.09" x2="2441.09" y2="1332.09" stroke-linecap="round" style="stroke:#408840;stroke-opacity:0.80;stroke-width:8.64"/>
	<line x1="2397.04" y1="1528.24" x2="2441.09" y2="1528.24" stroke-linecap="round" style="stroke:#408840;stroke-opacity:0.80;stroke-width:8.64"/>
	<line x1="2591.20" y1="1563.38" x2="2591.20" y2="1324.04" style="stroke:#408840;stroke-opacity:0.80;stroke-width:8.64"/>
	<line x1="2569.17" y1="1324.04" x2="2613.23" y2="1324.04" stroke-linecap="round" style="stroke:#408840;stroke-opacity:0.80;stroke-width:8.64"/>
	<line x1="2569.17" y1="1563.38" x2="2613.23" y2="1563.38" stroke-linecap="round" style="stroke:#408840;stroke-opacity:0.80;stroke-width:8.64"/>
	<line x1="2763.21" y1="1575.02" x2="2763.21" y2="1304.49" style="stroke:#408840;stroke-opacity:0.80;stroke-width:8.64"/>
	<line x1="2741.19" y1="1304.49" x2="2785.24" y2="1304.49" stroke-linecap="round" style="stroke:#408840;stroke-opacity:0.80;stroke-width:8.64"/>
	<line x1="2741.19" y1="1575.02" x2="2785.24" y2="1575.02" stroke-linecap="round" style="stroke:#408840;stroke-opacity:0.80;stroke-width:8.64"/>
	<line x1="2935.35" y1="1664.24" x2="2935.35" y2="1354.49" style="stroke:#408840;stroke-opacity:0.80;stroke-width:8.64"/>
	<line x1="2913.32" y1="1354.49" x2="2957.38" y2="1354.49" stroke-linecap="round" style="stroke:#408840;stroke-opacity:0.80;stroke-width:8.64"/>
	<line x1="2913.32" y1="1664.24" x2="2957.38" y2="1664.24" stroke-linecap="round" style="stroke:#408840;stroke-opacity:0.80;stroke-width:8.64"/>
	<line x1="3107.36" y1="1680.33" x2="3107.36" y2="1319.83" style="stroke:#408840;stroke-opacity:0.80;stroke-width:8.64"/>
	<line x1="3085.34" y1="1319.83" x2="3129.39" y2="1319.83" stroke-linecap="round" style="stroke:#408840;stroke-opacity:0.80;stroke-width:8.64"/>
	<line x1="3085.34" y1="1680.33" x2="3129.39" y2="1680.33" stroke-linecap="round" style="stroke:#408840;stroke-opacity:0.80;stroke-width:8.64"/>
	<line x1="3279.50" y1="1745.55" x2="3279.50" y2="1343.35" style="stroke:#408840;stroke-opacity:0.80;stroke-width:8.64"/>
	<line x1="3257.47" y1="1343.35" x2="3301.53" y2="1343.35" stroke-linecap="round" style="stroke:#408840;stroke-opacity:0.80;stroke-width:8.64"/>
	<line x1="3257.47" y1="1745.55" x2="3301.53" y2="1745.55" stroke-linecap="round" style="stroke:#408840;stroke-opacity:0.80;stroke-width:8.64"/>
	<line x1="3451.51" y1="1693.70" x2="3451.51" y2="1197.57" style="stroke:#408840;stroke-opacity:0.80;stroke-width:8.64"/>
	<line x1="3429.48" y1="1197.57" x2="3473.54" y2="1197.57" stroke-linecap="round" style="stroke:#408840;stroke-opacity:0.80;stroke-width:8.64"/>
	<line x1="3429.48" y1="1693.70" x2="3473.54" y2="1693.70" stroke-linecap="round" style="stroke:#408840;stroke-opacity:0.80;stroke-width:8.64"/>
	<line x1="3623.65" y1="1723.52" x2="3623.65" y2="1175.04" style="stroke:#408840;stroke-opacity:0.80;stroke-width:8.64"/>
	<line x1="3601.62" y1="1175.04" x2="3645.68" y2="1175.04" stroke-linecap="round" style="stroke:#408840;stroke-opacity:0.80;stroke-width:8.64"/>
	<line x1="3601.62" y1="1723.52" x2="3645.68" y2="1723.52" stroke-linecap="round" style="stroke:#408840;stroke-opacity:0.80;stroke-width:8.64"/>
	<line x1="3795.66" y1="1705.33" x2="3795.66" y2="1135.32" style="stroke:#408840;stroke-opacity:0.80;stroke-width:8.64"/>
	<line x1="3773.63" y1="1135.32" x2="3817.69" y2="1135.32" stroke-linecap="round" style="stroke:#408840;stroke-opacity:0.80;stroke-width:8.64"/>
	<line x1="3773.63" y1="1705.33" x2="3817.69" y2="1705.33" stroke-linecap="round" style="stroke:#408840;stroke-opacity:0.80;stroke-width:8.64"/>
	<circle cx="354.05" cy="1278.50" r="26.35" style="fill:#006000"/>
	<circle cx="354.05" cy="1278.50" r="22.03" style="fill:none;stroke:#006000;stroke-width:8.64"/>
	<circle cx="526.18" cy="1362.78" r="26.35" style="fill:#006000"/>
	<circle cx="526.18" cy="1362.78" r="22.03" style="fill:none;stroke:#006000;stroke-width:8.64"/>
	<circle cx="698.20" cy="1377.63" r="26.35" style="fill:#006000"/>
	<circle cx="698.20" cy="1377.63" r="22.03" style="fill:none;stroke:#006000;stroke-width:8.64"/>
	<circle cx="870.33" cy="1364.02" r="26.35" style="fill:#006000"/>
	<circle cx="870.33" cy="1364.02" r="22.03" style="fill:none;stroke:#006000;stroke-width:8.64"/>
	<circle cx="1042.35" cy="1386.66" r="26.35" style="fill:#006000"/>
	<circle cx="1042.35" cy="1386.66" r="22.03" style="fill:none;stroke:#006000;stroke-width:8.64"/>
	<circle cx="1214.48" cy="1402.26" r="26.35" style="fill:#006000"/>
	<circle cx="1214.48" cy="1402.26" r="22.03" style="fill:none;stroke:#006000;stroke-width:8.64"/>
	<circle cx="1386.49" cy="1366.74" r="26.35" style="fill:#006000"/>
	<circle cx="1386.49" cy="1366.74" r="22.03" style="fill:none;stroke:#006000;stroke-width:8.64"/>
	<circle cx="1558.63" cy="1394.21" r="26.35" style="fill:#006000"/>
	<circle cx="1558.63" cy="1394.21" r="22.03" style="fill:none;stroke:#006000;stroke-width:8.64"/>
	<circle cx="1730.77" cy="1450.64" r="26.35" style="fill:#006000"/>
	<circle cx="1730.77" cy="1450.64" r="22.03" style="fill:none;stroke:#006000;stroke-width:8.64"/>
	<circle cx="1902.78" cy="1501.63" r="26.35" style="fill:#006000"/>
	<circle cx="1902.78" cy="1501.63" r="22.03" style="fill:none;stroke:#006000;stroke-width:8.64"/>
	<circle cx="2074.92" cy="1491.85" r="26.35" style="fill:#006000"/>
	<circle cx="2074.92" cy="1491.85" r="22.03" style="fill:none;stroke:#006000;stroke-width:8.64"/>
	<circle cx="2246.93" cy="1456.83" r="26.35" style="fill:#006000"/>
	<circle cx="2246.93" cy="1456.83" r="22.03" style="fill:none;stroke:#006000;stroke-width:8.64"/>
	<circle cx="2419.07" cy="1430.22" r="26.35" style="fill:#006000"/>
	<circle cx="2419.07" cy="1430.22" r="22.03" style="fill:none;stroke:#006000;stroke-width:8.64"/>
	<circle cx="2591.08" cy="1443.71" r="26.35" style="fill:#006000"/>
	<circle cx="2591.08" cy="1443.71" r="22.03" style="fill:none;stroke:#006000;stroke-width:8.64"/>
	<circle cx="2763.21" cy="1439.88" r="26.35" style="fill:#006000"/>
	<circle cx="2763.21" cy="1439.88" r="22.03" style="fill:none;stroke:#006000;stroke-width:8.64"/>
	<circle cx="2935.23" cy="1509.43" r="26.35" style="fill:#006000"/>
	<circle cx="2935.23" cy="1509.43" r="22.03" style="fill:none;stroke:#006000;stroke-width:8.64"/>
	<circle cx="3107.36" cy="1500.14" r="26.35" style="fill:#006000"/>
	<circle cx="3107.36" cy="1500.14" r="22.03" style="fill:none;stroke:#006000;stroke-width:8.64"/>
	<circle cx="3279.38" cy="1544.45" r="26.35" style="fill:#006000"/>
	<circle cx="3279.38" cy="1544.45" r="22.03" style="fill:none;stroke:#006000;stroke-width:8.64"/>
	<circle cx="3451.51" cy="1445.69" r="26.35" style="fill:#006000"/>
	<circle cx="3451.51" cy="1445.69" r="22.03" style="fill:none;stroke:#006000;stroke-width:8.64"/>
	<circle cx="3623.52" cy="1449.41" r="26.35" style="fill:#006000"/>
	<circle cx="3623.52" cy="1449.41" r="22.03" style="fill:none;stroke:#006000;stroke-width:8.64"/>
	<circle cx="3795.66" cy="1420.45" r="26.35" style="fill:#006000"/>
	<circle cx="3795.66" cy="1420.45" r="22.03" style="fill:none;stroke:#006000;stroke-width:8.64"/>
	<line x1="354.17" y1="2021.27" x2="354.17" y2="979.02" style="stroke:#FF7440;stroke-opacity:0.80;stroke-width:8.64"/>
	<line x1="332.14" y1="979.02" x2="376.20" y2="979.02" stroke-linecap="round" style="stroke:#FF7440;stroke-opacity:0.80;stroke-width:8.64"/>
	<line x1="332.14" y1="2021.27" x2="376.20" y2="2021.27" stroke-linecap="round" style="stroke:#FF7440;stroke-opacity:0.80;stroke-width:8.64"/>
	<line x1="526.18" y1="1889.72" x2="526.18" y2="937.44" style="stroke:#FF7440;stroke-opacity:0.80;stroke-width:8.64"/>
	<line x1="504.16" y1="937.44" x2="548.21" y2="937.44" stroke-linecap="round" style="stroke:#FF7440;stroke-opacity:0.80;stroke-width:8.64"/>
	<line x1="504.16" y1="1889.72" x2="548.21" y2="1889.72" stroke-linecap="round" style="stroke:#FF7440;stroke-opacity:0.80;stroke-width:8.64"/>
	<line x1="698.32" y1="1859.53" x2="698.32" y2="917.39" style="stroke:#FF7440;stroke-opacity:0.80;stroke-width:8.64"/>
	<line x1="676.29" y1="917.39" x2="720.35" y2="917.39" stroke-linecap="round" style="stroke:#FF7440;stroke-opacity:0.80;stroke-width:8.64"/>
	<line x1="676.29" y1="1859.53" x2="720.35" y2="1859.53" stroke-linecap="round" style="stroke:#FF7440;stroke-opacity:0.80;stroke-width:8.64"/>
	<line x1="870.33" y1="1703.72" x2="870.33" y2="1100.79" style="stroke:#FF7440;stroke-opacity:0.80;stroke-width:8.64"/>
	<line x1="848.31" y1="1100.79" x2="892.36" y2="1100.79" stroke-linecap="round" style="stroke:#FF7440;stroke-opacity:0.80;stroke-width:8.64"/>
	<line x1="848.31" y1="1703.72" x2="892.36" y2="1703.72" stroke-linecap="round" style="stroke:#FF7440;stroke-opacity:0.80;stroke-width:8.64"/>
	<line x1="1042.47" y1="1653.97" x2="1042.47" y2="1088.42" style="stroke:#FF7440;stroke-opacity:0.80;stroke-width:8.64"/>
	<line x1="1020.44" y1="1088.42" x2="1064.50" y2="1088.42" stroke-linecap="round" style="stroke:#FF7440;stroke-opacity:0.80;stroke-width:8.64"/>
	<line x1="1020.44" y1="1653.97" x2="1064.50" y2="1653.97" stroke-linecap="round" style="stroke:#FF7440;stroke-opacity:0.80;stroke-width:8.64"/>
	<line x1="1214.48" y1="1506.21" x2="1214.48" y2="1015.77" style="stroke:#FF7440;stroke-opacity:0.80;stroke-width:8.64"/>
	<line x1="1192.45" y1="1015.77" x2="1236.51" y2="1015.77" stroke-linecap="round" style="stroke:#FF7440;stroke-opacity:0.80;stroke-width:8.64"/>
	<line x1="1192.45" y1="1506.21" x2="1236.51" y2="1506.21" stroke-linecap="round" style="stroke:#FF7440;stroke-opacity:0.80;stroke-width:8.64"/>
	<line x1="1386.62" y1="1408.57" x2="1386.62" y2="965.03" style="stroke:#FF7440;stroke-opacity:0.80;stroke-width:8.64"/>
	<line x1="1364.59" y1="965.03" x2="1408.65" y2="965.03" stroke-linecap="round" style="stroke:#FF7440;stroke-opacity:0.80;stroke-width:8.64"/>
	<line x1="1364.59" y1="1408.57" x2="1408.65" y2="1408.57" stroke-linecap="round" style="stroke:#FF7440;stroke-opacity:0.80;stroke-width:8.64"/>
	<line x1="1558.76" y1="1544.82" x2="1558.76" y2="1174.80" style="stroke:#FF7440;stroke-opacity:0.80;stroke-width:8.64"/>
	<line x1="1536.73" y1="1174.80" x2="1580.78" y2="1174.80" stroke-linecap="round" style="stroke:#FF7440;stroke-opacity:0.80;stroke-width:8.64"/>
	<line x1="1536.73" y1="1544.82" x2="1580.78" y2="1544.82" stroke-linecap="round" style="stroke:#FF7440;stroke-opacity:0.80;stroke-width:8.64"/>
	<line x1="1730.77" y1="1556.70" x2="1730.77" y2="1265.88" style="stroke:#FF7440;stroke-opacity:0.80;stroke-width:8.64"/>
	<line x1="1708.74" y1="1265.88" x2="1752.80" y2="1265.88" stroke-linecap="round" style="stroke:#FF7440;stroke-opacity:0.80;stroke-width:8.64"/>
	<line x1="1708.74" y1="1556.70" x2="1752.80" y2="1556.70" stroke-linecap="round" style="stroke:#FF7440;stroke-opacity:0.80;stroke-width:8.64"/>
	<line x1="1902.90" y1="1501.63" x2="1902.90" y2="1501.63" style="stroke:#FF7440;stroke-opacity:0.80;stroke-width:8.64"/>
	<line x1="1880.88" y1="1501.63" x2="1924.93" y2="1501.63" stroke-linecap="round" style="stroke:#FF7440;stroke-opacity:0.80;stroke-width:8.64"/>
	<line x1="1880.88" y1="1501.63" x2="1924.93" y2="1501.63" stroke-linecap="round" style="stroke:#FF7440;stroke-opacity:0.80;stroke-width:8.64"/>
	<line x1="2074.92" y1="1711.02" x2="2074.92" y2="1352.01" style="stroke:#FF7440;stroke-opacity:0.80;stroke-width:8.64"/>
	<line x1="2052.89" y1="1352.01" x2="2096.94" y2="1352.01" stroke-linecap="round" style="stroke:#FF7440;stroke-opacity:0.80;stroke-width:8.64"/>
	<line x1="2052.89" y1="1711.02" x2="2096.94" y2="1711.02" stroke-linecap="round" style="stroke:#FF7440;stroke-opacity:0.80;stroke-width:8.64"/>
	<line x1="2247.05" y1="1635.04" x2="2247.05" y2="1263.28" style="stroke:#FF7440;stroke-opacity:0.80;stroke-width:8.64"/>
	<line x1="2225.03" y1="1263.28" x2="2269.08" y2="1263.28" stroke-linecap="round" style="stroke:#FF7440;stroke-opacity:0.80;stroke-width:8.64"/>
	<line x1="2225.03" y1="1635.04" x2="2269.08" y2="1635.04" stroke-linecap="round" style="stroke:#FF7440;stroke-opacity:0.80;stroke-width:8.64"/>
	<line x1="2419.07" y1="1584.42" x2="2419.07" y2="1207.22" style="stroke:#FF7440;stroke-opacity:0.80;stroke-width:8.64"/>
	<line x1="2397.04" y1="1207.22" x2="2441.09" y2="1207.22" stroke-linecap="round" style="stroke:#FF7440;stroke-opacity:0.80;stroke-width:8.64"/>
	<line x1="2397.04" y1="1584.42" x2="2441.09" y2="1584.42" stroke-linecap="round" style="stroke:#FF7440;stroke-opacity:0.80;stroke-width:8.64"/>
	<line x1="2591.20" y1="1567.47" x2="2591.20" y2="1172.69" style="stroke:#FF7440;stroke-opacity:0.80;stroke-width:8.64"/>
	<line x1="2569.17" y1="1172.69" x2="2613.23" y2="1172.69" stroke-linecap="round" style="stroke:#FF7440;stroke-opacity:0.80;stroke-width:8.64"/>
	<line x1="2569.17" y1="1567.47" x2="2613.23" y2="1567.47" stroke-linecap="round" style="stroke:#FF7440;stroke-opacity:0.80;stroke-width:8.64"/>
	<line x1="2763.21" y1="1612.64" x2="2763.21" y2="1107.97" style="stroke:#FF7440;stroke-opacity:0.80;stroke-width:8.64"/>
	<line x1="2741.19" y1="1107.97" x2="2785.24" y2="1107.97" stroke-linecap="round" style="stroke:#FF7440;stroke-opacity:0.80;stroke-width:8.64"/>
	<line x1="2741.19" y1="1612.64" x2="2785.24" y2="1612.64" stroke-linecap="round" style="stroke:#FF7440;stroke-opacity:0.80;stroke-width:8.64"/>
	<line x1="2935.35" y1="1711.64" x2="2935.35" y2="1046.59" style="stroke:#FF7440;stroke-opacity:0.80;stroke-width:8.64"/>
	<line x1="2913.32" y1="1046.59" x2="2957.38" y2="1046.59" stroke-linecap="round" style="stroke:#FF7440;stroke-opacity:0.80;stroke-width:8.64"/>
	<line x1="2913.32" y1="1711.64" x2="2957.38" y2="1711.64" stroke-linecap="round" style="stroke:#FF7440;stroke-opacity:0.80;stroke-width:8.64"/>
	<line x1="3107.36" y1="1730.95" x2="3107.36" y2="1027.78" style="stroke:#FF7440;stroke-opacity:0.80;stroke-width:8.64"/>
	<line x1="3085.34" y1="1027.78" x2="3129.39" y2="1027.78" stroke-linecap="round" style="stroke:#FF7440;stroke-opacity:0.80;stroke-width:8.64"/>
	<line x1="3085.34" y1="1730.95" x2="3129.39" y2="1730.95" stroke-linecap="round" style="stroke:#FF7440;stroke-opacity:0.80;stroke-width:8.64"/>
	<line x1="3279.50" y1="1668.57" x2="3279.50" y2="906.25" style="stroke:#FF7440;stroke-opacity:0.80;stroke-width:8.64"/>
	<line x1="3257.47" y1="906.25" x2="3301.53" y2="906.25" stroke-linecap="round" style="stroke:#FF7440;stroke-opacity:0.80;stroke-width:8.64"/>
	<line x1="3257.47" y1="1668.57" x2="3301.53" y2="1668.57" stroke-linecap="round" style="stroke:#FF7440;stroke-opacity:0.80;stroke-width:8.64"/>
	<line x1="3451.51" y1="1545.56" x2="3451.51" y2="616.42" style="stroke:#FF7440;stroke-opacity:0.80;stroke-width:8.64"/>
	<line x1="3429.48" y1="616.42" x2="3473.54" y2="616.42" stroke-linecap="round" style="stroke:#FF7440;stroke-opacity:0.80;stroke-width:8.64"/>
	<line x1="3429.48" y1="1545.56" x2="3473.54" y2="1545.56" stroke-linecap="round" style="stroke:#FF7440;stroke-opacity:0.80;stroke-width:8.64"/>
	<line x1="3623.65" y1="1301.89" x2="3623.65" y2="406.41" style="stroke:#FF7440;stroke-opacity:0.80;stroke-width:8.64"/>
	<line x1="3601.62" y1="406.41" x2="3645.68" y2="406.41" stroke-linecap="round" style="stroke:#FF7440;stroke-opacity:0.80;stroke-width:8.64"/>
	<line x1="3601.62" y1="1301.89" x2="3645.68" y2="1301.89" stroke-linecap="round" style="stroke:#FF7440;stroke-opacity:0.80;stroke-width:8.64"/>
	<line x1="3795.66" y1="1245.34" x2="3795.66" y2="292.31" style="stroke:#FF7440;stroke-opacity:0.80;stroke-width:8.64"/>
	<line x1="3773.63" y1="292.31" x2="3817.69" y2="292.31" stroke-linecap="round" style="stroke:#FF7440;stroke-opacity:0.80;stroke-width:8.64"/>
	<line x1="3773.63" y1="1245.34" x2="3817.69" y2="1245.34" stroke-linecap="round" style="stroke:#FF7440;stroke-opacity:0.80;stroke-width:8.64"/>
	<circle cx="354.05" cy="1500.14" r="26.35" style="fill:#FF4500"/>
	<circle cx="354.05" cy="1500.14" r="22.03" style="fill:none;stroke:#FF4500;stroke-width:8.64"/>
	<circle cx="526.18" cy="1413.64" r="26.35" style="fill:#FF4500"/>
	<circle cx="526.18" cy="1413.64" r="22.03" style="fill:none;stroke:#FF4500;stroke-width:8.64"/>
	<circle cx="698.20" cy="1388.52" r="26.35" style="fill:#FF4500"/>
	<circle cx="698.20" cy="1388.52" r="22.03" style="fill:none;stroke:#FF4500;stroke-width:8.64"/>
	<circle cx="870.33" cy="1402.26" r="26.35" style="fill:#FF4500"/>
	<circle cx="870.33" cy="1402.26" r="22.03" style="fill:none;stroke:#FF4500;stroke-width:8.64"/>
	<circle cx="1042.35" cy="1371.32" r="26.35" style="fill:#FF4500"/>
	<circle cx="1042.35" cy="1371.32" r="22.03" style="fill:none;stroke:#FF4500;stroke-width:8.64"/>
	<circle cx="1214.48" cy="1261.05" r="26.35" style="fill:#FF4500"/>
	<circle cx="1214.48" cy="1261.05" r="22.03" style="fill:none;stroke:#FF4500;stroke-width:8.64"/>
	<circle cx="1386.49" cy="1186.92" r="26.35" style="fill:#FF4500"/>
	<circle cx="1386.49" cy="1186.92" r="22.03" style="fill:none;stroke:#FF4500;stroke-width:8.64"/>
	<circle cx="1558.63" cy="1359.81" r="26.35" style="fill:#FF4500"/>
	<circle cx="1558.63" cy="1359.81" r="22.03" style="fill:none;stroke:#FF4500;stroke-width:8.64"/>
	<circle cx="1730.77" cy="1411.41" r="26.35" style="fill:#FF4500"/>
	<circle cx="1730.77" cy="1411.41" r="22.03" style="fill:none;stroke:#FF4500;stroke-width:8.64"/>
	<circle cx="1902.78" cy="1501.63" r="26.35" style="fill:#FF4500"/>
	<circle cx="1902.78" cy="1501.63" r="22.03" style="fill:none;stroke:#FF4500;stroke-width:8.64"/>
	<circle cx="2074.92" cy="1531.58" r="26.35" style="fill:#FF4500"/>
	<circle cx="2074.92" cy="1531.58" r="22.03" style="fill:none;stroke:#FF4500;stroke-width:8.64"/>
	<circle cx="2246.93" cy="1449.28" r="26.35" style="fill:#FF4500"/>
	<circle cx="2246.93" cy="1449.28" r="22.03" style="fill:none;stroke:#FF4500;stroke-width:8.64"/>
	<circle cx="2419.07" cy="1395.94" r="26.35" style="fill:#FF4500"/>
	<circle cx="2419.07" cy="1395.94" r="22.03" style="fill:none;stroke:#FF4500;stroke-width:8.64"/>
	<circle cx="2591.08" cy="1370.08" r="26.35" style="fill:#FF4500"/>
	<circle cx="2591.08" cy="1370.08" r="22.03" style="fill:none;stroke:#FF4500;stroke-width:8.64"/>
	<circle cx="2763.21" cy="1360.43" r="26.35" style="fill:#FF4500"/>
	<circle cx="2763.21" cy="1360.43" r="22.03" style="fill:none;stroke:#FF4500;stroke-width:8.64"/>
	<circle cx="2935.23" cy="1379.24" r="26.35" style="fill:#FF4500"/>
	<circle cx="2935.23" cy="1379.24" r="22.03" style="fill:none;stroke:#FF4500;stroke-width:8.64"/>
	<circle cx="3107.36" cy="1379.48" r="26.35" style="fill:#FF4500"/>
	<circle cx="3107.36" cy="1379.48" r="22.03" style="fill:none;stroke:#FF4500;stroke-width:8.64"/>
	<circle cx="3279.38" cy="1287.54" r="26.35" style="fill:#FF4500"/>
	<circle cx="3279.38" cy="1287.54" r="22.03" style="fill:none;stroke:#FF4500;stroke-width:8.64"/>
	<circle cx="3451.51" cy="1080.99" r="26.35" style="fill:#FF4500"/>
	<circle cx="3451.51" cy="1080.99" r="22.03" style="fill:none;stroke:#FF4500;stroke-width:8.64"/>
	<circle cx="3623.52" cy="854.27" r="26.35" style="fill:#FF4500"/>
	<circle cx="3623.52" cy="854.27" r="22.03" style="fill:none;stroke:#FF4500;stroke-width:8.64"/>
	<circle cx="3795.66" cy="768.88" r="26.35" style="fill:#FF4500"/>
	<circle cx="3795.66" cy="768.88" r="22.03" style="fill:none;stroke:#FF4500;stroke-width:8.64"/>
	<line x1="290.81" y1="2233.63" x2="290.81" y2="100.86" style="stroke:#000000;stroke-width:5.76"/>
	<line x1="290.81" y1="2170.27" x2="250.84" y2="2170.27" style="stroke:#000000;stroke-width:5.76"/>
	<text x="200.73" y="2170.27" style="font-family:'Helvetica';font-size:99.99px;fill:#000000" transform="rotate(-90 200.73,2170.27)" text-anchor="middle">-.5</text>
	<line x1="290.81" y1="1501.63" x2="250.84" y2="1501.63" style="stroke:#000000;stroke-width:5.76"/>
	<text x="200.73" y="1501.63" style="font-family:'Helvetica';font-size:99.99px;fill:#000000" transform="rotate(-90 200.73,1501.63)" text-anchor="middle">0</text>
	<line x1="290.81" y1="832.86" x2="250.84" y2="832.86" style="stroke:#000000;stroke-width:5.76"/>
	<text x="200.73" y="832.86" style="font-family:'Helvetica';font-size:99.99px;fill:#000000" transform="rotate(-90 200.73,832.86)" text-anchor="middle">.5</text>
	<line x1="290.81" y1="164.22" x2="250.84" y2="164.22" style="stroke:#000000;stroke-width:5.76"/>
	<text x="200.73" y="164.22" style="font-family:'Helvetica';font-size:99.99px;fill:#000000" transform="rotate(-90 200.73,164.22)" text-anchor="middle">1</text>
	<line x1="290.81" y1="2233.63" x2="3859.02" y2="2233.63" style="stroke:#000000;stroke-width:5.76"/>
	<line x1="354.17" y1="2233.63" x2="354.17" y2="2273.73" style="stroke:#000000;stroke-width:5.76"/>
	<text x="354.17" y="2363.59" style="font-family:'Helvetica';font-size:99.99px;fill:#000000" text-anchor="middle">-10</text>
	<line x1="1214.48" y1="2233.63" x2="1214.48" y2="2273.73" style="stroke:#000000;stroke-width:5.76"/>
	<text x="1214.48" y="2363.59" style="font-family:'Helvetica';font-size:99.99px;fill:#000000" text-anchor="middle">-5</text>
	<line x1="2074.92" y1="2233.63" x2="2074.92" y2="2273.73" style="stroke:#000000;stroke-width:5.76"/>
	<text x="2074.92" y="2363.59" style="font-family:'Helvetica';font-size:99.99px;fill:#000000" text-anchor="middle">0</text>
	<line x1="2935.35" y1="2233.63" x2="2935.35" y2="2273.73" style="stroke:#000000;stroke-width:5.76"/>
	<text x="2935.35" y="2363.59" style="font-family:'Helvetica';font-size:99.99px;fill:#000000" text-anchor="middle">5</text>
	<line x1="3795.66" y1="2233.63" x2="3795.66" y2="2273.73" style="stroke:#000000;stroke-width:5.76"/>
	<text x="3795.66" y="2363.59" style="font-family:'Helvetica';font-size:99.99px;fill:#000000" text-anchor="middle">10</text>
	<text x="2074.92" y="2473.60" style="font-family:'Helvetica';font-size:99.99px;fill:#000000" text-anchor="middle">x</text>
	<rect x="1542.79" y="2558.24" width="1064.37" height="186.37" style="fill:#FFFFFF"/>
	<rect x="1545.67" y="2561.12" width="1058.61" height="180.61" style="fill:none;stroke:#000000;stroke-width:5.76"/>
	<circle cx="1608.01" cy="2651.43" r="26.35" style="fill:#006000"/>
	<circle cx="1608.01" cy="2651.43" r="22.03" style="fill:none;stroke:#006000;stroke-width:8.64"/>
	<circle cx="2231.09" cy="2651.43" r="26.35" style="fill:#FF4500"/>
	<circle cx="2231.09" cy="2651.43" r="22.03" style="fill:none;stroke:#FF4500;stroke-width:8.64"/>
	<text x="1689.93" y="2686.46" style="font-family:'Helvetica';font-size:99.99px;fill:#000000">Female </text>
	<text x="2313.14" y="2686.46" style="font-family:'Helvetica';font-size:99.99px;fill:#000000">Male </text>
</svg>
